<svg width="1252" height="1250" viewBox="0 0 1252 1250" fill="none" xmlns="http://www.w3.org/2000/svg">
<g filter="url(#filter0_i)">
<path d="M897.722 1209.43C864.847 1230.43 827.194 1236.74 790.065 1244.99C779.645 1247.27 768.975 1248.36 758.441 1250L739.376 1249.54L730.275 1247.27C729.343 1243.26 727.363 1239.17 727.659 1235.26C728.395 1225.45 729.725 1215.69 731.64 1206.04C733.301 1197.67 729.934 1193.85 722.335 1191.19C712.939 1187.89 703.93 1183.5 694.83 1179.4C692.714 1178.47 689.824 1177.38 689.074 1175.6C681.611 1157.81 669.69 1141.93 669.03 1121C668.78 1112.95 661.818 1105.08 657.655 1097.14C653.696 1089.67 649.806 1082.12 645.165 1075.09C641.706 1069.86 637.862 1062.58 632.834 1061.19C623.733 1058.66 619.342 1053.3 619.183 1045.4C618.91 1021.56 619.593 997.624 620.161 973.849C621.231 929.121 623.164 884.37 623.073 839.619C623.073 829.654 616.749 819.348 612.085 809.793C607.899 801.239 601.278 793.867 597.047 785.336C589.675 770.502 597.866 756.556 614.019 755.145C633.493 753.439 634.904 753.121 638.066 734.033C640.341 719.654 639.568 704.775 641.32 690.26C643.117 675.381 646.12 660.684 649.055 645.919C651.535 633.588 655.88 621.53 657.131 609.108C658.133 598.46 661.909 591.772 671.897 588.518C693.442 581.511 712.575 581.693 729.775 600.394C751.843 624.351 758.168 625.42 784.718 607.652C810.586 590.406 834.77 570.477 859.546 551.753C862.685 549.478 865.848 547.066 870.58 543.562C870.58 559.738 870.58 574.208 870.58 588.7C870.853 626.99 870.989 665.279 871.649 703.546C871.922 718.471 881.796 728.413 892.352 737.218C901.749 745.112 906.958 753.485 901.976 766.202C900.816 769.137 902.226 773.824 903.842 777.032C918.084 805.493 933.008 833.613 946.863 862.234C951.118 871.038 954.007 878.751 966.111 878.045C969.569 877.841 975.211 882.186 976.576 885.69C979.397 893.357 980.307 901.775 981.49 909.988C983.947 927.255 984.63 944.933 988.702 961.814C994.344 985.27 1009.04 994.325 1032.57 989.342C1047.65 986.157 1062.14 980.242 1076.82 975.146C1089.97 970.596 1102.66 964.43 1116.02 960.722C1128.44 957.241 1138.77 963.224 1144.68 974.782C1155.47 995.599 1152.53 1018.44 1133.9 1033.41C1118.79 1045.56 1101.3 1054.86 1084.51 1064.81C1035.68 1093.68 985.472 1120.41 945.862 1162.5C930.642 1178.95 913.852 1193.87 897.722 1209.43Z" fill="#D5E7F2" fill-opacity="0.6"/>
<path d="M605.101 1133.56C606.33 1116.2 596.16 1103.12 582.35 1093.59C558.758 1077.21 533.482 1063.28 509.934 1046.86C406.448 974.6 303.114 902.063 199.932 829.245C198.635 828.335 197.474 827.243 194.54 824.695C212.626 814.798 229.621 805.015 247.162 796.279C251.303 794.232 257.355 795.119 262.36 795.824C272.643 797.28 279.332 793.549 282.836 783.857C284.906 778.261 287.386 772.846 289.661 767.317C294.984 754.372 303.493 745.977 317.826 742.291C346.947 734.693 350.406 728.209 353.067 698.178C354.182 685.483 357.618 671.559 364.443 661.139C376.615 642.575 391.744 625.784 406.577 609.176C416.747 597.801 431.603 596.686 445.982 594.024C459.194 591.494 472.109 587.606 484.522 582.421C491.802 579.418 494.714 572.684 492.78 563.493C489.914 550.07 495.055 538.922 505.27 529.366C515.486 519.811 526.27 509.482 534.232 497.765C548.327 476.773 566.644 458.951 588.015 445.438C608.172 432.698 628.307 419.912 650.08 406.125C648.51 430.832 648.646 453.674 645.234 475.947C641.275 501.906 645.552 526.955 648.988 552.208C652.299 576.483 649.063 601.201 639.614 623.805C631.612 642.998 627.878 663.702 628.671 684.482C628.998 697.637 628.137 710.794 626.1 723.795C625.463 727.981 620.139 731.69 616.522 735.17C604.896 746.341 592.474 756.784 581.736 768.751C579.302 771.458 581.258 779.694 583.306 784.494C586.179 791.094 590.088 797.192 594.886 802.558C610.539 820.304 614.133 841.508 613.678 863.986C612.313 929.554 610.865 995.122 609.333 1060.69C609.105 1070.47 610.516 1076.62 622.597 1073.36C624.872 1072.77 629.035 1075.64 630.878 1077.91C636.475 1085.1 641.025 1093.11 646.576 1100.32C656.404 1113.04 662.502 1126.74 662.615 1143.23C662.615 1149.69 665.209 1156.17 667.165 1165.46C657.906 1164.37 649.192 1163.55 640.57 1162.14C638.477 1161.79 635.11 1159.61 634.996 1158.09C633.744 1139.82 615.453 1143.53 605.101 1133.56Z" fill="#D5E7F2" fill-opacity="0.6"/>
<path d="M1161.61 1011.44C1161.61 999.127 1162.2 986.773 1161.27 974.533C1160.94 972.192 1160.14 969.941 1158.93 967.912C1157.71 965.884 1156.1 964.12 1154.19 962.726C1127.32 945.458 1100.8 943.16 1072.63 962.02C1060.87 969.869 1045.67 973.396 1031.52 976.626C1018.37 979.629 1008.11 972.759 1002.49 960.564C995.05 944.479 990.25 927.848 992.843 909.648C995.824 888.831 990.682 880.072 971.617 869.447C967.859 867.211 964.789 863.984 962.744 860.119C948.206 832.249 934.101 804.152 919.677 776.214C917.434 772.576 914.917 769.116 912.146 765.863C923.226 747.935 922.566 741.61 904.684 730.166C891.648 721.84 887.325 709.895 885.846 696.04C883.002 669.854 880.158 643.713 884.413 617.254C886.187 606.106 883.275 594.207 882.502 582.65C882.047 575.825 881.182 569 881.25 562.356C881.478 538.263 892.034 523.68 915.49 518.265C936.808 513.419 958.854 511.645 980.239 506.89C1014.07 499.541 1047.63 490.964 1081.32 482.933C1085.19 481.988 1089.17 481.515 1093.15 481.523C1105.32 481.659 1108.42 485.822 1103.57 496.902C1098.45 508.573 1102.48 518.402 1107.08 528.753C1114.22 545.02 1122.05 561.264 1126.5 578.305C1129.19 588.634 1125.41 600.487 1125.78 611.612C1126.09 625.784 1127.26 639.923 1129.3 653.951C1130.85 664.075 1131.58 672.152 1124.75 681.844C1120.45 687.964 1123.52 699.635 1124.27 708.758C1124.71 714.195 1127.3 719.451 1128.46 724.888C1131.67 739.949 1128.71 746.661 1115.58 755.033C1095.79 767.637 1093.81 776.965 1107.28 795.985C1111.59 802.231 1116.28 808.211 1121.32 813.89C1133.28 827.131 1140 841.873 1140.45 860.256C1140.97 880.003 1153.6 890.969 1173.62 892.357C1198.97 894.086 1220.42 904.779 1238.6 921.933C1243.19 926.347 1246.79 931.681 1249.18 937.586C1252.36 945.776 1253.86 954.194 1244.17 960.61C1217.74 978.128 1191.64 996.192 1165.39 1014.03L1161.61 1011.44Z" fill="#D5E7F2" fill-opacity="0.6"/>
<path d="M357.117 365.152C386.17 366.562 413.493 368.269 440.84 368.974C449.144 369.201 457.63 367.108 465.866 365.175C470.78 364.037 475.148 360.192 480.062 359.259C494.532 356.529 499.537 361.534 499.605 376.004C499.611 387.583 500.371 399.15 501.88 410.631C503.792 424.6 513.756 433.586 523.653 442.482C547.337 463.89 547.291 464.095 525.064 487.688C515.963 497.266 506.863 506.821 497.307 515.853C487.752 524.885 483.657 534.441 484.544 547.705C485.909 567.27 475.444 579.26 455.719 579.76C422.457 580.625 397.795 595.686 379.708 622.509C366.604 642.03 353.863 661.823 341.328 681.661C332.796 695.175 317.257 697.746 307.588 684.778C298.115 672.029 290.295 658.132 284.314 643.417C276.388 623.016 269.553 602.208 263.838 581.08C256.717 556.35 251.143 551.504 225.162 551.504C217.404 551.504 207.712 552.209 206.347 543.154C205.323 536.557 208.167 526 213.172 522.428C234.353 507.117 256.808 493.535 279.15 479.816C285.179 476.108 292.504 474.538 298.897 471.284C316.097 462.503 320.807 446.122 311.365 429.4C305.154 418.457 305.905 409.493 316.37 402.509C324.713 397.29 333.872 393.506 343.466 391.315C361.439 386.765 361.667 387.22 357.117 365.152Z" fill="#D5E7F2" fill-opacity="0.6"/>
<path d="M177.089 553.574C187.122 550.594 196.746 548.296 203.617 559.535C204.709 561.332 209.327 561.81 212.239 561.514C220.011 560.809 227.802 562.646 234.44 566.749C241.078 570.852 246.205 576.998 249.05 584.265C257.422 603.626 265.931 622.941 274.076 642.371C276.179 647.539 277.549 652.976 278.148 658.524C280.606 682.184 292.186 695.926 315.687 702.046C320.238 703.252 325.038 703.934 329.725 704.867C334.411 705.8 341.441 704.025 339.917 712.625C338.711 719.45 337.119 726.822 327.791 725.98C305.541 723.978 292.959 736.286 283.836 754.418C281.195 759.344 278.239 764.093 274.986 768.638C272.864 771.937 270.021 774.711 266.671 776.752C263.322 778.794 259.553 780.048 255.648 780.423C245.092 782.038 235.172 788.158 225.139 792.776C222.056 794.621 219.194 796.812 216.607 799.306C195.199 816.096 179.433 817.779 156.295 802.536C133.157 787.293 111.112 769.684 88.2245 753.668C63.9948 736.718 39.5604 720.065 14.7393 704.003C7.09499 699.043 4.52415 693.583 4.25114 684.642C3.75062 667.123 1.17977 649.696 0.110482 632.178C-1.04981 612.999 6.93574 599.69 23.7486 588.815C60.15 565.109 99.4407 552.05 142.94 551.14C151.176 550.98 159.321 547.932 167.602 547.113C170.583 546.817 173.836 549.138 176.976 550.252L177.089 553.574Z" fill="#D5E7F2" fill-opacity="0.6"/>
<path d="M725.681 579.851C749.023 568.908 759.102 548.91 765.199 527.866C779.213 479.725 791.59 431.083 803.716 382.419C808.152 364.651 813.135 347.724 827.081 334.961C839.594 323.586 842.233 309.412 839.321 293.395C838.59 288.194 838.195 282.95 838.138 277.697C846.328 276.651 852.244 275.673 858.182 275.172C868.874 274.285 879.59 273.625 890.283 273.033C894.628 272.806 898.997 273.033 904.275 273.033V244.413L905.685 244.276C910.235 261.863 913.33 280.063 919.927 296.854C927.733 316.857 937.343 336.107 948.639 354.368C960.879 374.024 980.604 379.394 1003.24 375.412C1019.32 372.546 1035.44 369.937 1051.61 367.586C1075.11 364.173 1084.85 370.02 1089.81 392.817C1095.22 417.706 1098.91 442.868 1103.69 469.464C1079.32 474.424 1056.07 479.452 1032.73 483.865C1000.97 489.849 969.115 495.81 937.263 500.997C901.977 506.753 873.902 526.591 846.101 546.68C823.76 562.811 802.351 580.193 780.76 597.301C761.923 612.226 756.69 612.135 739.672 595.026C735.304 590.43 731.118 585.675 725.681 579.851Z" fill="#D5E7F2" fill-opacity="0.6"/>
<path d="M663.138 578.579C656.517 538.681 655.194 498.084 659.202 457.84C661.864 428.537 668.462 399.643 672.352 370.431C673.916 356.573 674.569 342.627 674.309 328.683C674.309 322.381 675.333 318.787 682.363 318.445C697.674 317.74 713.031 315.624 728.32 316.17C739.012 316.557 742.948 312.621 742.698 302.292C771.546 299.813 798.733 303.453 828.4 313.372C821.302 321.79 816.07 329.093 809.745 335.281C798.483 346.292 794.456 358.987 793.478 374.845C792.002 394.268 788.339 413.462 782.557 432.063C772.661 465.325 760.671 498.041 749.819 530.938C741.583 555.964 724.543 569.774 698.561 573.118C687.231 574.574 675.924 576.599 663.138 578.579Z" fill="#D5E7F2" fill-opacity="0.6"/>
<path d="M538.759 202.871C552.409 209.31 565.173 210.424 579.71 203.235C591.837 197.229 586.24 208.832 588.674 211.767C593.46 216.9 598.567 221.725 603.963 226.213C609.464 230.668 615.669 234.174 622.323 236.588C633.971 240.182 638.499 247.736 640.523 259.111C641.752 265.936 646.461 272.238 648.964 278.995C650.963 284.666 652.544 290.476 653.696 296.377C657.586 315.033 662.796 333.575 664.548 352.435C665.465 360.9 664.041 369.454 660.43 377.164C656.82 384.875 651.161 391.446 644.073 396.162C615.52 415.819 586.285 434.452 557.187 453.29C555.117 454.632 550.521 455.565 549.429 454.382C539.525 444.053 529.962 433.436 520.74 422.53C518.852 420.255 519.216 416.297 517.692 413.589C506.316 393.478 510.866 374.913 521.195 355.757C525.702 346.586 528.72 336.756 530.136 326.636C534.277 302.679 538.213 278.631 540.556 254.447C541.512 244.528 538.099 234.199 536.757 224.052C535.892 217.591 535.233 211.13 534.482 204.668L538.759 202.871Z" fill="#D5E7F2" fill-opacity="0.6"/>
<path d="M853.813 195.384L959.491 218.976C964.041 205.531 966.725 204.78 985.654 212.447C986.405 226.302 985.813 239.27 988.111 251.738C989.426 259.86 992.455 267.61 996.997 274.471C1001.54 281.332 1007.49 287.147 1014.46 291.529C1026.7 299.31 1032.84 309.957 1033.02 325.428C1033.02 332.253 1039.51 340.079 1044.92 345.653C1049.95 350.818 1057.43 353.593 1063.46 359.668C1036.98 361.01 1010.5 363.376 984.016 363.308C964.018 363.308 954.804 346.336 949.139 331.115C936.808 298.036 927.435 263.75 916.787 229.965C916.105 227.69 915.49 225.597 914.853 223.367C890.01 232.672 889.282 233.878 891.352 263.181C886.21 263.181 881.16 262.954 876.154 263.181C852.766 264.387 851.629 248.735 855.679 233.014C857.317 226.598 863.186 220.774 863.277 214.608C863.437 209.307 858.181 203.688 853.813 195.384Z" fill="#D5E7F2" fill-opacity="0.6"/>
<path d="M493.621 212.699C496.647 220.23 500.447 229.763 504.997 240.729L522.743 226.327C524.722 232.242 527.952 237.043 527.543 241.525C525.541 263.343 522.515 285.093 519.967 306.865C519.262 312.803 518.647 318.764 518.443 324.725C517.874 340.081 510.275 348.886 495.032 349.159C485.477 349.318 475.853 347.111 463.818 345.678L473.123 332.71C467.458 327.682 461.884 322.632 456.242 317.695C442.409 305.614 436.221 290.394 436.403 272.056C436.403 262.956 436.949 252.786 433.059 245.233C424.368 228.42 435.334 212.882 455.81 212.722C467.959 212.609 480.244 212.699 493.621 212.699Z" fill="#D5E7F2" fill-opacity="0.6"/>
<path d="M697.56 131.205C701.314 123.925 703.543 114.893 709.299 109.842C714.373 105.292 725.225 101.811 730.139 104.337C736.259 107.431 739.103 117.191 743.039 124.244C743.263 125.009 743.282 125.819 743.094 126.594C742.906 127.368 742.519 128.08 741.97 128.657C728.933 135.483 736.646 144.355 739.262 152.91C742.015 161.828 744.813 170.155 754.846 174.182C758.214 175.524 760.739 180.143 762.627 183.805C769.088 196.318 775.117 209.082 782.216 223.619C776.346 230.445 782.784 236.246 790.588 240.432C800.413 245.684 810.592 250.245 821.051 254.083C830.152 257.45 832.427 260.908 828.286 270.987C824.987 278.745 826.466 288.55 825.602 300.312C819.3 297.764 809.676 296.968 806.127 291.917C790.816 270.714 769.066 258.11 747.907 244.55C735.258 236.474 723.723 228.488 721.221 211.448C719.605 200.368 707.229 196.91 699.334 204.304C691.44 211.698 686.412 206.579 683.295 200.482C677.403 189.106 676.47 176.73 683.295 164.968C686.093 160.145 689.461 155.64 692.737 151.09C699.243 141.876 701.564 133.026 697.56 131.205Z" fill="#D5E7F2" fill-opacity="0.6"/>
<path d="M666.528 183.349C669.531 191.516 671.875 200.025 675.629 207.806C684.206 225.21 693.192 226.985 709.05 214.472C709.982 216.087 711.529 217.566 711.62 219.022C712.667 238.792 726.613 247.233 741.993 255.287C755.348 262.294 768.043 270.644 780.669 278.925C784.469 281.427 787.108 285.75 791.863 290.937H715.852L721.949 300.948C709.345 303.223 697.037 305.907 684.615 307.773C674.787 309.32 667.279 306.271 665.004 294.327C675.924 290.232 677.267 281.746 673.831 270.075C659.316 274.375 655.881 264.797 652.059 253.125C647.099 238.064 636.656 227.121 617.022 223.549L666.528 183.349Z" fill="#D5E7F2" fill-opacity="0.6"/>
<path d="M575.183 141.056C579.733 134.731 584.875 128.929 588.538 122.309C595.636 109.5 601.711 106.634 615.998 110.183C624.825 112.458 633.857 113.709 642.708 115.802C645.061 116.63 647.199 117.975 648.964 119.738C656.222 125.903 663.07 132.615 670.714 138.257C672.739 139.736 677.039 138.257 683.409 137.779C680.042 144.605 678.29 152.112 673.74 156.822C667.188 163.647 658.11 167.856 650.989 174.158C642.777 181.455 635.084 189.316 627.965 197.682C620.002 207.01 609.764 205.19 600.277 205.736C593.452 196.181 593.884 183.782 583.555 176.615C580.53 174.522 579.756 166.195 581.03 161.554C583.692 151.635 582.759 144.309 575.183 141.056Z" fill="#D5E7F2" fill-opacity="0.6"/>
<path d="M876.2 149.974C875.881 145.242 875.699 142.216 875.472 138.78C877.337 139.008 879.157 138.78 879.453 139.349C882.957 146.174 884.618 156.64 890.01 159.12C895.857 161.804 905.116 157.117 912.76 155.639C917.857 173.407 917.993 173.544 934.283 175.364C932.667 193.564 929.255 196.431 912.487 193.564C895.72 190.698 879.658 187.331 863.141 184.873C857.669 184.205 852.118 184.662 846.828 186.216C838.138 188.673 834.793 193.542 839.366 203.233C847.647 220.752 848.626 237.018 844.599 250.237C834.156 246.005 823.645 241.637 813.043 237.496C807.31 235.221 803.602 233.606 803.943 225.165C804.216 217.066 798.551 208.876 796.049 200.549C791.658 186.011 793.227 184.282 807.811 181.552C813.976 180.346 824.396 183.827 823.077 171.064C835.612 171.064 837.91 153.091 852.653 155.138C859.91 156.139 867.941 151.953 876.2 149.974Z" fill="#D5E7F2" fill-opacity="0.6"/>
<path d="M773.775 178.935C771.502 174.902 768.851 171.093 765.858 167.56C751.115 152.112 750.706 148.199 757.69 129.02C759.601 123.81 756.917 116.803 755.825 110.706C754.619 104.131 752.822 97.6694 751.024 90.0251L779.053 94.0747C780.145 84.6559 784.104 79.9237 793.364 83.8824C794.433 99.2619 795.639 100.877 809.995 95.2578C823.986 89.7976 831.13 97.9879 838.956 107.475L822.485 105.2C820.528 115.301 818.526 125.676 816.547 135.868H812.133C815.5 140.187 818.542 144.75 821.233 149.519C822.508 152.112 822.872 157.595 821.393 158.619C815.423 162.915 808.962 166.482 802.145 169.243C793.409 173.02 784.195 175.523 773.775 178.935Z" fill="#D5E7F2" fill-opacity="0.6"/>
<path d="M987.884 125.927L1015.46 111.048C1014.89 104.359 1012.8 97.0788 1014.32 90.572C1015.14 87.1139 1022.21 85.1801 1028.43 81.4717C1030.04 116.917 1043.1 150.429 1021.19 181.985C1013.46 193.156 1004.22 200.777 989.841 200.777C981.354 200.777 977.942 196.864 979.261 188.924C981.946 172.498 985.131 156.163 987.793 139.737C988.158 135.142 988.188 130.526 987.884 125.927V125.927Z" fill="#D5E7F2" fill-opacity="0.6"/>
<path d="M935.602 102.676C929.733 114.324 924.818 123.402 920.564 132.798C916.014 142.854 909.325 145.607 898.951 140.192C903.501 126.541 890.237 126.541 884.072 125.199C876.268 123.584 867.304 127.474 861.776 128.43C857.226 134.959 854.837 142.353 851.151 143.036C845.987 143.969 839.002 140.988 834.68 137.416C832.951 135.983 834.566 126.246 837.455 124.198C849.627 115.553 862.185 106.93 875.836 101.151C886.718 96.9867 898.315 95.015 909.962 95.35C918.494 95.3955 926.911 100.105 935.602 102.676Z" fill="#D5E7F2" fill-opacity="0.6"/>
<path d="M428.736 186.149C420.295 183.51 421.911 176.707 427.007 169.745L403.369 150.157C417.77 147.381 429.259 143.832 440.885 143.218C457.493 142.376 475.807 160.964 472.122 176.707C470.074 185.444 460.041 192.474 453.125 199.822C450.692 201.903 447.702 203.224 444.525 203.621C439.338 204.6 434.014 204.782 428.736 205.282V186.149Z" fill="#D5E7F2" fill-opacity="0.6"/>
<path d="M945.317 205.283C945.317 199.231 944.589 195.5 945.317 192.155C948.547 179.483 947.865 168.54 938.173 158.029C929.71 148.587 934.988 118.852 946.363 113.87C952.529 111.185 961.788 113.301 968.795 115.735C971.958 116.85 974.802 124.085 974.62 128.407C974.256 136.188 970.957 143.764 969.91 151.568C968.864 159.371 970.138 167.675 968.363 175.274C966.37 182.399 963.219 189.148 959.035 195.249C957.033 198.435 952.642 200.209 945.317 205.283Z" fill="#D5E7F2" fill-opacity="0.6"/>
<path d="M508.66 216.817C502.859 199.048 502.859 199.048 478.424 200.118C480.699 193.543 482.974 186.763 485.249 180.006C487.957 171.998 486.637 165.696 481.063 158.415C473.396 148.428 479.266 135.665 491.779 132.593C497.762 131.137 504.178 131.296 512.118 130.568C509.684 138.144 506.863 143.65 506.339 149.361C506.113 156.152 506.555 162.949 507.659 169.654C508.225 176.539 509.243 183.379 510.708 190.13C511.458 193.133 514.097 197.388 516.555 197.911C521.651 198.957 527.27 199.344 525.177 205.851C523.812 210.083 519.239 213.563 515.485 216.635C514.097 217.772 510.867 216.817 508.66 216.817Z" fill="#D5E7F2" fill-opacity="0.6"/>
<path d="M737.056 81.4936L718.856 88.0003L699.222 82.4946C700.041 103.903 700.041 103.903 675.265 109.5C674.296 104.074 674.65 98.4943 676.298 93.2345C677.946 87.9748 680.838 83.1902 684.729 79.2867C690.986 72.78 695.627 66.7283 689.507 57.4459L735.009 50.3477C746.293 57.0592 722.883 73.5308 737.056 81.4936Z" fill="#D5E7F2" fill-opacity="0.6"/>
<path d="M518.989 157.323C524.745 145.447 535.256 152.909 545.198 154.297C552.524 155.298 560.123 154.502 568.063 154.502C558.962 166.378 565.788 176.32 573.66 186.649C572.294 188.196 571.157 190.721 569.837 190.789C559.327 191.449 548.77 191.836 538.259 191.722C536.576 191.722 534.323 189.083 533.345 187.172C528.658 177.89 524.29 168.357 518.989 157.323Z" fill="#D5E7F2" fill-opacity="0.6"/>
<path d="M887.211 74.8506C880.386 79.56 875.54 83.4277 870.239 86.3853C863.709 89.9799 856.77 92.801 850.013 95.9634C848.853 93.2333 846.055 89.9344 846.783 87.8413C851.629 73.6903 851.833 69.7772 845.873 54.6934L851.697 55.3304C855.155 50.7802 859.66 42.4534 861.207 42.9767C867.231 44.9473 872.525 48.6801 876.404 53.6923C881.66 60.9498 884.754 69.6862 887.211 74.8506Z" fill="#D5E7F2" fill-opacity="0.6"/>
<path d="M998.304 101.196C994.14 111.138 991.865 111.297 981.468 104.654C976.508 101.514 969.524 101.605 963.563 99.8764C953.371 96.9415 942.792 94.6892 933.327 90.1163C929.846 88.4327 929.141 81.0159 927.185 76.1928C931.462 74.9415 935.853 72.3934 940.016 72.7119C949.139 73.5189 958.175 75.1174 967.021 77.4896C970.775 78.4678 973.96 81.835 977.214 84.3148C983.88 89.5247 990.386 94.8484 998.304 101.196Z" fill="#D5E7F2" fill-opacity="0.6"/>
<path d="M511.823 112.39C516.373 103.858 527.908 101.424 540.762 107.498C545.813 109.773 550.59 112.845 555.573 115.37C560.555 117.895 565.606 120.193 570.474 122.537C566.698 125.858 561.806 128.77 558.826 133.048C553.252 141.079 546.814 142.99 537.304 141.079C528.34 139.281 530.137 132.342 527.293 127.155C524.267 121.581 517.829 117.85 511.823 112.39Z" fill="#D5E7F2" fill-opacity="0.6"/>
<path d="M580.394 69.3682L583.966 81.8811L603.031 85.4758C594.476 110.797 573.841 116.622 552.638 101.037C556.21 95.2131 559.076 88.7974 563.49 83.7467C567.904 78.696 574.183 74.5326 580.394 69.3682Z" fill="#D5E7F2" fill-opacity="0.6"/>
<path d="M657.951 75.0792C654.379 75.3749 650.534 74.9199 647.304 76.1257C640.205 78.7648 637.134 74.3057 636.087 69.3005C635.268 65.3418 636.383 57.561 638.181 57.0605C649.827 53.9168 661.701 51.688 673.695 50.3945C675.082 50.2353 678.882 56.6283 678.586 59.6996C678.154 64.2498 676.152 69.9602 672.807 72.5311C669.463 75.1019 663.161 75.1702 658.178 76.3077L657.951 75.0792Z" fill="#D5E7F2" fill-opacity="0.6"/>
<path d="M919.654 13.2416C918.638 9.14643 917.629 5.05128 916.628 0.956129C921.497 0.796873 927.048 -0.977692 931.143 0.751372C943.542 5.91581 954.872 14.4019 970.456 9.30569C975.939 24.799 959.604 25.0265 956.374 32.2613L936.876 23.525L923.362 16.8817L922.452 17.4277L919.654 13.2416Z" fill="#D5E7F2" fill-opacity="0.6"/>
<path d="M981.628 65.8181C993.299 64.6351 1004.86 65.1128 1013.68 53.7147C1017.14 49.1645 1027.18 49.8925 1035.12 47.9814V56.6723L1034.16 63.7023C1033.14 65.9774 1032.11 68.2524 1031.07 70.5275C1018.62 80.1966 1003.76 78.4448 989.773 77.5803C986.838 77.5348 984.335 69.9815 981.628 65.8181Z" fill="#D5E7F2" fill-opacity="0.6"/>
<path d="M752.049 39.9053L788.632 48.7098C782.74 57.1049 777.12 66.0915 770.431 74.2818C765.108 80.8795 758.305 79.105 752.39 74.6003C746.475 70.0956 751.707 66.2962 752.936 61.5641C754.688 55.1483 752.572 47.7771 752.049 39.9053Z" fill="#D5E7F2" fill-opacity="0.6"/>
<path d="M617.478 38.2451C616.818 50.4396 616.317 59.9949 615.589 73.2359C611.562 76.3528 604.055 73.9412 598.094 68.4582C592.634 63.4075 588.766 56.605 583.215 49.302L617.478 38.2451Z" fill="#D5E7F2" fill-opacity="0.6"/>
<path d="M961.356 49.5975C962.585 46.7991 963.04 42.9088 965.179 41.4072C979.034 31.5561 991.183 31.8291 1005.68 44.0463L979.33 57.219L963.654 62.338C962.904 58.1518 962.13 53.8747 961.356 49.5975Z" fill="#D5E7F2" fill-opacity="0.6"/>
<path d="M832.609 83.9064C824.692 76.3076 805.832 87.9105 806.036 67.1162L795.662 69.6188C796.663 67.3437 796.822 65.7057 797.505 65.4327C804.012 62.8391 810.587 58.6074 817.184 58.6074C823.782 58.6074 831.586 61.3148 835.522 65.7967C838.479 69.1866 836.113 77.1721 836.113 83.2238L832.609 83.9064Z" fill="#D5E7F2" fill-opacity="0.6"/>
<path d="M789.656 11.0107L801.031 11.8525C798.961 35.9457 789.974 41.2694 763.697 32.6468L780.01 15.4699L789.656 11.0107Z" fill="#D5E7F2" fill-opacity="0.6"/>
<path d="M902.5 37.2432L907.232 37.6754C908.119 43.2721 909.029 48.8461 909.962 54.7613C911.6 58.1057 916.196 63.2929 915.013 65.9775C913.284 69.9589 907.459 72.143 903.182 75.2143C897.495 62.5648 892.853 52.145 887.575 40.36L902.5 37.2432Z" fill="#D5E7F2" fill-opacity="0.6"/>
<path d="M660.408 88.4102C651.148 97.647 644.3 108.431 630.832 102.88C626.828 101.242 625.099 94.1206 621.731 88.4102H660.408Z" fill="#D5E7F2" fill-opacity="0.6"/>
<path d="M818.026 15.9258L832.723 18.6331L839.548 25.7996C838.911 27.1192 838.183 29.6445 837.637 29.6218C822.758 28.4842 814.135 39.1999 804.011 47.0489L804.148 47.1854C806.423 43.022 808.88 38.9041 810.973 34.6725C812.907 30.9641 814.613 27.1192 816.433 23.2971L818.026 15.9258Z" fill="#D5E7F2" fill-opacity="0.6"/>
<path d="M948.024 49.7555L950.504 54.3056C942.746 62.4959 929.277 57.9003 924.25 45.3418C934.396 36.6737 937.081 37.197 948.024 49.7555Z" fill="#D5E7F2" fill-opacity="0.6"/>
<path d="M886.073 15.9271C894.696 16.5641 904.274 12.378 911.941 22.1153L896.311 27.0295L890.578 28.2353H873.742C872.992 26.4835 872.218 24.7317 871.467 23.0026L876.154 20.1588L886.073 15.9271Z" fill="#D5E7F2" fill-opacity="0.6"/>
<path d="M562.398 60.7227C559.44 76.0795 543.811 90.7083 531.73 88.8199C538.669 75.8065 549.84 69.0722 562.398 60.7227Z" fill="#D5E7F2" fill-opacity="0.6"/>
<path d="M458.357 116.827L472.645 125.017L467.594 136.165C450.531 131.388 449.462 128.658 458.357 116.827Z" fill="#D5E7F2" fill-opacity="0.6"/>
<path d="M505.293 95.8955C503.951 107.908 488.571 113.482 474.58 104.268L505.293 95.8955Z" fill="#D5E7F2" fill-opacity="0.6"/>
<path d="M873.675 28.3027H890.51C888.463 30.5778 885.801 35.0142 884.481 34.6502C880.591 33.5127 877.247 30.5323 873.675 28.3027Z" fill="#D5E7F2" fill-opacity="0.6"/>
<path d="M876.086 20.2269L871.4 23.0708L867.123 17.6333C868.579 16.5185 871.058 14.2434 871.309 14.471C873.075 16.2386 874.674 18.1654 876.086 20.2269V20.2269Z" fill="#D5E7F2" fill-opacity="0.6"/>
<path d="M839.435 25.7089L832.61 18.5424L840.368 17.9736L839.435 25.7089Z" fill="#D5E7F2" fill-opacity="0.6"/>
<path d="M789.655 11.011L780.032 15.5612C782.557 11.9665 784.832 8.4629 787.289 4.93652L789.655 11.011Z" fill="#D5E7F2" fill-opacity="0.6"/>
<path d="M1031.07 70.6651C1032.11 68.39 1033.14 66.1149 1034.16 63.8398L1038.71 67.8895L1031.07 70.6651Z" fill="#D5E7F2" fill-opacity="0.6"/>
<path d="M834.748 50.6678L830.903 46.4362C831.791 45.6626 833.042 44.1611 833.542 44.3203C834.783 44.9093 835.769 45.9276 836.318 47.1869C836.591 47.7785 835.544 49.007 834.748 50.6678Z" fill="#D5E7F2" fill-opacity="0.6"/>
<path d="M818.026 15.9258L816.524 23.3198L818.026 15.9258Z" fill="#D5E7F2" fill-opacity="0.6"/>
<path d="M805.854 9.73828L807.674 10.5346C807.424 11.1488 807.287 12.1044 806.855 12.2864C806.423 12.4684 805.672 11.8541 805.058 11.5811C805.308 10.9668 805.581 10.3526 805.854 9.73828Z" fill="#D5E7F2" fill-opacity="0.6"/>
<path d="M803.989 46.959L803.238 50.0531L804.126 47.2092L803.989 46.959Z" fill="#D5E7F2" fill-opacity="0.6"/>
<path d="M1046.94 15.3812C1042.85 19.612 1038.97 24.0545 1035.34 28.6904C1028.08 38.951 1019.42 34.8104 1011.23 30.9655C1010.38 30.5787 1011.23 22.3657 1012.77 21.8652C1023.49 17.7245 1034.64 14.6532 1045.62 11.2178L1046.94 15.3812Z" fill="#D5E7F2" fill-opacity="0.6"/>
<path d="M982.538 1.00195C998.463 9.30601 999.51 14.2884 987.839 22.001C986.155 15.2895 984.653 9.35151 982.538 1.00195Z" fill="#D5E7F2" fill-opacity="0.6"/>
<path d="M919.654 13.2422L922.453 17.4283L918.312 16.8823C918.744 15.6765 919.199 14.4707 919.654 13.2422Z" fill="#D5E7F2" fill-opacity="0.6"/>
</g>
<defs>
<filter id="filter0_i" x="0" y="0" width="1259.6" height="1258" filterUnits="userSpaceOnUse" color-interpolation-filters="sRGB">
<feFlood flood-opacity="0" result="BackgroundImageFix"/>
<feBlend mode="normal" in="SourceGraphic" in2="BackgroundImageFix" result="shape"/>
<feColorMatrix in="SourceAlpha" type="matrix" values="0 0 0 0 0 0 0 0 0 0 0 0 0 0 0 0 0 0 127 0" result="hardAlpha"/>
<feOffset dx="8" dy="8"/>
<feGaussianBlur stdDeviation="4"/>
<feComposite in2="hardAlpha" operator="arithmetic" k2="-1" k3="1"/>
<feColorMatrix type="matrix" values="0 0 0 0 0 0 0 0 0 0 0 0 0 0 0 0 0 0 0.3 0"/>
<feBlend mode="normal" in2="shape" result="effect1_innerShadow"/>
</filter>
</defs>
</svg>
