<svg width="29" height="29" viewBox="0 0 29 29" fill="none" xmlns="http://www.w3.org/2000/svg">
<path d="M3.21878 27.4031C3.05827 27.4026 2.89942 27.3706 2.75131 27.3087C2.6032 27.2469 2.46871 27.1565 2.35554 27.0427C2.24237 26.9289 2.15272 26.7939 2.09172 26.6454C2.03071 26.4969 1.99955 26.3379 2 26.1774V3.2257C2 2.54848 2.54559 2 3.21878 2H26.1849C26.8575 2 27.4031 2.54848 27.4031 3.2257V26.1774C27.4036 26.3379 27.3724 26.4969 27.3114 26.6454C27.2504 26.7939 27.1607 26.9289 27.0476 27.0427C26.9344 27.1565 26.7999 27.2469 26.6518 27.3087C26.5037 27.3706 26.3448 27.4026 26.1843 27.4031H3.2182H3.21878Z" stroke="#31436A" stroke-width="3" stroke-linecap="round" stroke-linejoin="round"/>
<path fill-rule="evenodd" clip-rule="evenodd" d="M23.1659 11.1722H20.3554C19.9812 11.1722 19.6223 11.3208 19.3577 11.5854C19.0931 11.8501 18.9444 12.209 18.9444 12.5832V15.4064H23.1659L22.5482 19.6395H18.9444V25.9222H14.3008V19.6395H10.4673V15.407H14.2518L14.3008 11.3893L14.287 9.94936C14.2823 9.46291 14.3741 8.98037 14.5571 8.52961C14.74 8.07885 15.0105 7.66881 15.3528 7.32319C15.6951 6.97758 16.1026 6.70323 16.5516 6.51601C17.0006 6.32878 17.4822 6.2324 17.9687 6.23242H23.1659V11.1722Z" fill="#31436A"/>
</svg>
