<svg width="29" height="30" viewBox="0 0 29 30" fill="none" xmlns="http://www.w3.org/2000/svg">
<path d="M2.73489 27.742C2.57438 27.7415 2.41554 27.7095 2.26742 27.6476C2.11931 27.5858 1.98483 27.4954 1.87165 27.3815C1.75848 27.2677 1.66883 27.1327 1.60783 26.9843C1.54683 26.8358 1.51566 26.6768 1.51612 26.5163V3.56457C1.51612 2.88734 2.06171 2.33887 2.73489 2.33887H25.701C26.3736 2.33887 26.9192 2.88734 26.9192 3.56457V26.5163C26.9197 26.6768 26.8885 26.8358 26.8275 26.9843C26.7665 27.1327 26.6769 27.2677 26.5637 27.3815C26.4505 27.4954 26.316 27.5858 26.1679 27.6476C26.0198 27.7095 25.861 27.7415 25.7004 27.742H2.73431H2.73489Z" stroke="#D5E7F2" stroke-opacity="0.75" stroke-width="3" stroke-linecap="round" stroke-linejoin="round"/>
<path fill-rule="evenodd" clip-rule="evenodd" d="M22.6821 11.511H19.8716C19.4973 11.511 19.1384 11.6597 18.8738 11.9243C18.6092 12.1889 18.4605 12.5478 18.4605 12.9221V15.7453H22.6821L22.0643 19.9784H18.4605V26.261H13.817V19.9784H9.9834V15.7458H13.7679L13.817 11.7281L13.8031 10.2882C13.7984 9.80178 13.8902 9.31923 14.0732 8.86847C14.2561 8.41771 14.5266 8.00768 14.8689 7.66206C15.2113 7.31644 15.6187 7.0421 16.0677 6.85487C16.5167 6.66765 16.9984 6.57127 17.4848 6.57129H22.6821V11.511Z" fill="#D5E7F2" fill-opacity="0.75"/>
</svg>
