<svg width="28" height="28" viewBox="0 0 28 28" fill="none" xmlns="http://www.w3.org/2000/svg">
<path d="M13.8306 0C10.0773 0 9.60534 0.0172882 8.13065 0.0829835C6.65597 0.152136 5.65152 0.383799 4.77155 0.726105C3.84852 1.07329 3.01246 1.61788 2.32181 2.32181C1.61831 3.01281 1.07378 3.84877 0.726105 4.77155C0.383799 5.64979 0.150408 6.65597 0.0829835 8.12546C0.0172882 9.60361 0 10.0738 0 13.8323C0 17.5873 0.0172882 18.0575 0.0829835 19.5322C0.152136 21.0052 0.383799 22.0096 0.726105 22.8896C1.08051 23.799 1.55248 24.57 2.32181 25.3393C3.08941 26.1087 3.86046 26.5824 4.76982 26.9351C5.65152 27.2774 6.65424 27.5107 8.12719 27.5782C9.60361 27.6439 10.0738 27.6612 13.8306 27.6612C17.5873 27.6612 18.0558 27.6439 19.5322 27.5782C21.0035 27.509 22.0114 27.2774 22.8913 26.9351C23.8138 26.5877 24.6492 26.0431 25.3393 25.3393C26.1087 24.57 26.5806 23.799 26.9351 22.8896C27.2756 22.0096 27.509 21.0052 27.5782 19.5322C27.6439 18.0575 27.6612 17.5873 27.6612 13.8306C27.6612 10.0738 27.6439 9.60361 27.5782 8.12719C27.509 6.65597 27.2756 5.64979 26.9351 4.77155C26.5874 3.84875 26.0429 3.01278 25.3393 2.32181C24.6489 1.61762 23.8128 1.07299 22.8896 0.726105C22.0079 0.383799 21.0017 0.150408 19.5305 0.0829835C18.0541 0.0172882 17.5856 0 13.8271 0H13.8323H13.8306ZM12.591 2.49296H13.8323C17.5251 2.49296 17.9625 2.50506 19.4199 2.57249C20.7683 2.633 21.5014 2.85947 21.9889 3.04791C22.6337 3.29859 23.0953 3.59941 23.5794 4.08348C24.0635 4.56755 24.3626 5.02742 24.6132 5.67399C24.8034 6.15979 25.0282 6.89281 25.0887 8.2413C25.1561 9.69869 25.1699 10.1361 25.1699 13.8271C25.1699 17.5182 25.1561 17.9573 25.0887 19.4147C25.0282 20.7632 24.8017 21.4944 24.6132 21.982C24.3915 22.5825 24.0376 23.1255 23.5777 23.5708C23.0936 24.0548 22.6337 24.3539 21.9872 24.6046C21.5031 24.7948 20.7701 25.0195 19.4199 25.0818C17.9625 25.1474 17.5251 25.163 13.8323 25.163C10.1395 25.163 9.70042 25.1474 8.24302 25.0818C6.89454 25.0195 6.16325 24.7948 5.67572 24.6046C5.07496 24.3832 4.53146 24.0299 4.08521 23.5708C3.62491 23.1248 3.27045 22.5813 3.04791 21.9802C2.85947 21.4944 2.633 20.7614 2.57249 19.4129C2.50679 17.9555 2.49296 17.5182 2.49296 13.8237C2.49296 10.1309 2.50679 9.69523 2.57249 8.23784C2.63473 6.88936 2.85947 6.15634 3.04964 5.66881C3.30032 5.02396 3.60114 4.56236 4.08521 4.07829C4.56928 3.59422 5.02914 3.29514 5.67572 3.04446C6.16325 2.85429 6.89454 2.62954 8.24302 2.5673C9.5189 2.50852 10.0133 2.49123 12.591 2.4895V2.49296V2.49296ZM21.2144 4.78884C20.9964 4.78884 20.7806 4.83177 20.5792 4.91517C20.3779 4.99858 20.1949 5.12083 20.0408 5.27494C19.8867 5.42906 19.7644 5.61202 19.681 5.81338C19.5976 6.01474 19.5547 6.23056 19.5547 6.44851C19.5547 6.66646 19.5976 6.88227 19.681 7.08363C19.7644 7.28499 19.8867 7.46796 20.0408 7.62207C20.1949 7.77618 20.3779 7.89844 20.5792 7.98184C20.7806 8.06525 20.9964 8.10818 21.2144 8.10818C21.6545 8.10818 22.0767 7.93332 22.3879 7.62207C22.6992 7.31082 22.874 6.88868 22.874 6.44851C22.874 6.00834 22.6992 5.58619 22.3879 5.27494C22.0767 4.9637 21.6545 4.78884 21.2144 4.78884V4.78884ZM13.8323 6.72858C12.8902 6.71388 11.9546 6.88674 11.08 7.23709C10.2053 7.58745 9.40914 8.1083 8.73773 8.76932C8.06631 9.43034 7.53311 10.2183 7.16915 11.0874C6.80519 11.9565 6.61776 12.8892 6.61776 13.8314C6.61776 14.7736 6.80519 15.7064 7.16915 16.5755C7.53311 17.4446 8.06631 18.2325 8.73773 18.8936C9.40914 19.5546 10.2053 20.0754 11.08 20.4258C11.9546 20.7761 12.8902 20.949 13.8323 20.9343C15.6969 20.9052 17.4753 20.1441 18.7836 18.8152C20.0919 17.4863 20.8252 15.6963 20.8252 13.8314C20.8252 11.9666 20.0919 10.1766 18.7836 8.84768C17.4753 7.5188 15.6969 6.75767 13.8323 6.72858V6.72858ZM13.8323 9.21981C15.0552 9.21981 16.2279 9.70559 17.0926 10.5703C17.9573 11.435 18.4431 12.6077 18.4431 13.8306C18.4431 15.0534 17.9573 16.2262 17.0926 17.0909C16.2279 17.9556 15.0552 18.4413 13.8323 18.4413C12.6095 18.4413 11.4367 17.9556 10.572 17.0909C9.70731 16.2262 9.22154 15.0534 9.22154 13.8306C9.22154 12.6077 9.70731 11.435 10.572 10.5703C11.4367 9.70559 12.6095 9.21981 13.8323 9.21981V9.21981Z" fill="url(#paint0_linear)" fill-opacity="0.75"/>
<defs>
<linearGradient id="paint0_linear" x1="2.5" y1="28" x2="30" y2="8.3972e-07" gradientUnits="userSpaceOnUse">
<stop stop-color="#344591"/>
<stop offset="0.193651" stop-color="#3C438C"/>
<stop offset="0.378061" stop-color="#5A3376"/>
<stop offset="0.589951" stop-color="#6E3266"/>
<stop offset="0.795626" stop-color="#7B305C"/>
<stop offset="1" stop-color="#8E283A"/>
</linearGradient>
</defs>
</svg>
