<svg width="29" height="28" viewBox="0 0 29 28" fill="none" xmlns="http://www.w3.org/2000/svg">
<path d="M14.6528 0.338867C10.8996 0.338867 10.4276 0.356155 8.95292 0.421851C7.47823 0.491004 6.47379 0.722666 5.59381 1.06497C4.67079 1.41215 3.83472 1.95674 3.14407 2.66068C2.44058 3.35168 1.89605 4.18764 1.54837 5.11042C1.20606 5.98866 0.972673 6.99483 0.905249 8.46433C0.839554 9.94247 0.822266 10.4127 0.822266 14.1712C0.822266 17.9262 0.839554 18.3964 0.905249 19.8711C0.974402 21.3441 1.20606 22.3485 1.54837 23.2285C1.90278 24.1378 2.37475 24.9089 3.14407 25.6782C3.91167 26.4475 4.68273 26.9212 5.59209 27.2739C6.47379 27.6162 7.4765 27.8496 8.94946 27.917C10.4259 27.9827 10.8961 28 14.6528 28C18.4096 28 18.8781 27.9827 20.3545 27.917C21.8257 27.8479 22.8336 27.6162 23.7136 27.2739C24.636 26.9266 25.4715 26.382 26.1616 25.6782C26.9309 24.9089 27.4029 24.1378 27.7573 23.2285C28.0979 22.3485 28.3313 21.3441 28.4004 19.8711C28.4661 18.3964 28.4834 17.9262 28.4834 14.1694C28.4834 10.4127 28.4661 9.94248 28.4004 8.46606C28.3313 6.99483 28.0979 5.98866 27.7573 5.11042C27.4097 4.18761 26.8652 3.35164 26.1616 2.66068C25.4712 1.95648 24.6351 1.41185 23.7119 1.06497C22.8302 0.722666 21.824 0.489275 20.3528 0.421851C18.8764 0.356155 18.4078 0.338867 14.6494 0.338867H14.6546H14.6528ZM13.4133 2.83183H14.6546C18.3473 2.83183 18.7847 2.84393 20.2421 2.91135C21.5906 2.97186 22.3236 3.19834 22.8112 3.38678C23.456 3.63746 23.9176 3.93828 24.4017 4.42235C24.8857 4.90642 25.1848 5.36628 25.4355 6.01286C25.6257 6.49866 25.8504 7.23168 25.9109 8.58016C25.9784 10.0376 25.9922 10.475 25.9922 14.166C25.9922 17.857 25.9784 18.2961 25.9109 19.7535C25.8504 21.102 25.624 21.8333 25.4355 22.3208C25.2138 22.9214 24.8599 23.4643 24.3999 23.9096C23.9159 24.3937 23.456 24.6928 22.8094 24.9435C22.3254 25.1336 21.5923 25.3584 20.2421 25.4206C18.7847 25.4863 18.3473 25.5019 14.6546 25.5019C10.9618 25.5019 10.5227 25.4863 9.06529 25.4206C7.71681 25.3584 6.98552 25.1336 6.49799 24.9435C5.89722 24.722 5.35373 24.3688 4.90747 23.9096C4.44718 23.4637 4.09272 22.9202 3.87018 22.3191C3.68174 21.8333 3.45526 21.1003 3.39475 19.7518C3.32906 18.2944 3.31523 17.857 3.31523 14.1625C3.31523 10.4698 3.32906 10.0341 3.39475 8.5767C3.45699 7.22822 3.68174 6.4952 3.87191 6.00768C4.12259 5.36282 4.4234 4.90123 4.90747 4.41716C5.39154 3.93309 5.85141 3.634 6.49799 3.38332C6.98552 3.19315 7.71681 2.96841 9.06529 2.90617C10.3412 2.84739 10.8356 2.8301 13.4133 2.82837V2.83183ZM22.0366 5.1277C21.8187 5.1277 21.6029 5.17063 21.4015 5.25404C21.2002 5.33745 21.0172 5.4597 20.8631 5.61381C20.709 5.76793 20.5867 5.95089 20.5033 6.15225C20.4199 6.35361 20.377 6.56942 20.377 6.78737C20.377 7.00532 20.4199 7.22114 20.5033 7.4225C20.5867 7.62386 20.709 7.80682 20.8631 7.96094C21.0172 8.11505 21.2002 8.2373 21.4015 8.32071C21.6029 8.40411 21.8187 8.44704 22.0366 8.44704C22.4768 8.44704 22.899 8.27219 23.2102 7.96094C23.5215 7.64969 23.6963 7.22755 23.6963 6.78737C23.6963 6.3472 23.5215 5.92506 23.2102 5.61381C22.899 5.30256 22.4768 5.1277 22.0366 5.1277ZM14.6546 7.06744C13.7125 7.05275 12.7769 7.22561 11.9022 7.57596C11.0276 7.92632 10.2314 8.44717 9.55999 9.10819C8.88858 9.76921 8.35537 10.5572 7.99142 11.4263C7.62746 12.2953 7.44002 13.2281 7.44002 14.1703C7.44002 15.1125 7.62746 16.0453 7.99142 16.9144C8.35537 17.7834 8.88858 18.5714 9.55999 19.2324C10.2314 19.8935 11.0276 20.4143 11.9022 20.7647C12.7769 21.115 13.7125 21.2879 14.6546 21.2732C16.5192 21.2441 18.2976 20.483 19.6059 19.1541C20.9142 17.8252 21.6475 16.0351 21.6475 14.1703C21.6475 12.3055 20.9142 10.5154 19.6059 9.18655C18.2976 7.85767 16.5192 7.09653 14.6546 7.06744ZM14.6546 9.55868C15.8774 9.55868 17.0502 10.0445 17.9149 10.9091C18.7796 11.7738 19.2653 12.9466 19.2653 14.1694C19.2653 15.3923 18.7796 16.5651 17.9149 17.4298C17.0502 18.2944 15.8774 18.7802 14.6546 18.7802C13.4317 18.7802 12.259 18.2944 11.3943 17.4298C10.5296 16.5651 10.0438 15.3923 10.0438 14.1694C10.0438 12.9466 10.5296 11.7738 11.3943 10.9091C12.259 10.0445 13.4317 9.55868 14.6546 9.55868Z" fill="#D5E7F2" fill-opacity="0.75"/>
</svg>
