<svg width="439" height="403" viewBox="0 0 439 403" fill="none" xmlns="http://www.w3.org/2000/svg">
<g opacity="0.9">
<path fill-rule="evenodd" clip-rule="evenodd" d="M435.155 21.2165C433.956 22.0092 432.549 22.4285 431.112 22.4214C430.157 22.4167 429.213 22.2241 428.333 21.8546C427.453 21.485 426.655 20.9458 425.983 20.2676C425.312 19.5895 424.781 18.7857 424.42 17.9022C424.226 17.4283 424.084 16.9365 423.994 16.435L386.95 16.2716L375.283 4.49946L235 2.64022L235.012 0L376.389 1.86412L388.055 13.6362L424.009 13.7948C424.192 12.8303 424.57 11.9084 425.125 11.0871C425.929 9.89601 427.069 8.97018 428.399 8.42669C429.73 7.8832 431.192 7.74649 432.6 8.03383C434.009 8.32117 435.3 9.01967 436.311 10.041C437.323 11.0623 438.008 12.3606 438.282 13.7716C438.555 15.1827 438.404 16.6431 437.848 17.9683C437.291 19.2935 436.354 20.4239 435.155 21.2165ZM425.809 13.8027C425.964 13.1887 426.225 12.6027 426.584 12.0722C427.193 11.1696 428.057 10.468 429.065 10.0562C430.073 9.64432 431.181 9.54072 432.248 9.75846C433.316 9.97621 434.294 10.5055 435.061 11.2795C435.827 12.0534 436.347 13.0372 436.554 14.1065C436.761 15.1758 436.647 16.2825 436.225 17.2868C435.803 18.291 435.093 19.1476 434.184 19.7482C433.276 20.3489 432.209 20.6666 431.12 20.6613C430.397 20.6577 429.682 20.5118 429.015 20.2317C428.348 19.9517 427.743 19.543 427.234 19.0292C426.725 18.5153 426.323 17.9062 426.049 17.2367C425.944 16.9784 425.858 16.713 425.793 16.443L425.906 16.4434L425.917 13.8032L425.809 13.8027Z" fill="#272D3C"/>
<path fill-rule="evenodd" clip-rule="evenodd" d="M226.086 99.3078C227.523 99.3008 228.93 99.7201 230.129 100.513C231.328 101.305 232.265 102.436 232.822 103.761C233.378 105.086 233.529 106.547 233.256 107.958C232.982 109.369 232.297 110.667 231.285 111.688C230.274 112.71 228.983 113.408 227.574 113.695C226.166 113.983 224.704 113.846 223.374 113.303C222.043 112.759 220.904 111.833 220.099 110.642C219.544 109.821 219.166 108.899 218.983 107.934L183.029 108.093L171.363 119.865L59.9857 121.729L59.9739 119.089L170.257 117.23L181.924 105.458L218.968 105.294C219.058 104.793 219.2 104.301 219.394 103.827C219.755 102.944 220.286 102.14 220.958 101.462C221.629 100.783 222.428 100.244 223.308 99.8747C224.187 99.5051 225.131 99.3125 226.086 99.3078ZM221.558 109.657C221.2 109.127 220.938 108.541 220.783 107.926L220.891 107.926L220.88 105.286L220.767 105.286C220.832 105.016 220.918 104.751 221.023 104.493C221.297 103.823 221.7 103.214 222.208 102.7C222.717 102.186 223.322 101.778 223.989 101.498C224.656 101.217 225.371 101.072 226.094 101.068C227.184 101.063 228.25 101.38 229.159 101.981C230.067 102.582 230.777 103.438 231.199 104.442C231.621 105.447 231.735 106.553 231.528 107.623C231.321 108.692 230.801 109.676 230.035 110.45C229.268 111.224 228.29 111.753 227.223 111.971C226.155 112.189 225.048 112.085 224.039 111.673C223.031 111.261 222.167 110.56 221.558 109.657Z" fill="#272D3C"/>
<path fill-rule="evenodd" clip-rule="evenodd" d="M227.846 320.209C229.283 320.202 230.691 320.621 231.89 321.414C233.089 322.206 234.025 323.337 234.582 324.662C235.139 325.987 235.29 327.447 235.016 328.858C234.743 330.27 234.057 331.568 233.046 332.589C232.034 333.61 230.743 334.309 229.335 334.596C227.926 334.884 226.464 334.747 225.134 334.203C223.803 333.66 222.664 332.734 221.859 331.543C221.305 330.722 220.927 329.8 220.743 328.835L184.79 328.994L173.123 340.766L61.7459 342.63L61.7341 339.99L172.018 338.131L183.684 326.359L220.728 326.195C220.818 325.694 220.961 325.202 221.154 324.728C221.515 323.844 222.046 323.041 222.718 322.362C223.389 321.684 224.188 321.145 225.068 320.776C225.948 320.406 226.892 320.213 227.846 320.209ZM223.318 330.558C222.96 330.027 222.699 329.441 222.543 328.827L222.652 328.827L222.64 326.187L222.528 326.187C222.593 325.917 222.678 325.652 222.784 325.393C223.057 324.724 223.46 324.115 223.969 323.601C224.477 323.087 225.083 322.678 225.749 322.398C226.416 322.118 227.132 321.972 227.855 321.969C228.944 321.964 230.01 322.281 230.919 322.882C231.827 323.483 232.537 324.339 232.959 325.343C233.381 326.348 233.495 327.454 233.288 328.524C233.081 329.593 232.561 330.577 231.795 331.351C231.029 332.125 230.05 332.654 228.983 332.872C227.916 333.089 226.808 332.986 225.799 332.574C224.791 332.162 223.928 331.461 223.318 330.558Z" fill="#272D3C"/>
<path fill-rule="evenodd" clip-rule="evenodd" d="M167.121 191.717C168.558 191.709 169.965 192.129 171.164 192.921C172.363 193.714 173.3 194.844 173.856 196.17C174.413 197.495 174.564 198.955 174.291 200.366C174.017 201.777 173.331 203.076 172.32 204.097C171.309 205.118 170.017 205.817 168.609 206.104C167.201 206.391 165.739 206.255 164.408 205.711C163.078 205.168 161.938 204.242 161.134 203.051C160.579 202.23 160.201 201.308 160.017 200.343L124.064 200.502L112.398 212.274L1.02034 214.138L1.00856 211.498L111.292 209.638L122.959 197.866L160.003 197.703C160.093 197.201 160.235 196.71 160.429 196.236C160.789 195.352 161.321 194.548 161.992 193.87C162.664 193.192 163.462 192.653 164.342 192.283C165.222 191.914 166.166 191.721 167.121 191.717ZM162.592 202.066C162.234 201.535 161.973 200.949 161.818 200.335L161.926 200.335L161.914 197.694L161.802 197.695C161.867 197.425 161.953 197.16 162.058 196.901C162.331 196.232 162.734 195.623 163.243 195.109C163.752 194.595 164.357 194.186 165.024 193.906C165.691 193.626 166.406 193.48 167.129 193.477C168.218 193.471 169.285 193.789 170.193 194.39C171.102 194.99 171.812 195.847 172.234 196.851C172.655 197.855 172.77 198.962 172.563 200.031C172.355 201.101 171.836 202.085 171.069 202.858C170.303 203.632 169.324 204.162 168.257 204.379C167.19 204.597 166.082 204.494 165.074 204.082C164.066 203.67 163.202 202.968 162.592 202.066Z" fill="#272D3C"/>
<path fill-rule="evenodd" clip-rule="evenodd" d="M193.166 217.564C191.967 216.771 190.56 216.352 189.122 216.359C188.168 216.364 187.224 216.556 186.344 216.926C185.464 217.295 184.666 217.835 183.994 218.513C183.323 219.191 182.791 219.995 182.431 220.878C182.237 221.352 182.094 221.844 182.005 222.346L144.961 222.509L133.294 234.281L23.0105 236.14L23.0223 238.781L134.4 236.916L146.066 225.144L182.019 224.986C182.203 225.95 182.581 226.872 183.136 227.693C183.94 228.885 185.08 229.81 186.41 230.354C187.741 230.897 189.203 231.034 190.611 230.747C192.019 230.459 193.311 229.761 194.322 228.74C195.333 227.718 196.019 226.42 196.293 225.009C196.566 223.598 196.415 222.137 195.858 220.812C195.302 219.487 194.365 218.357 193.166 217.564ZM183.82 224.978C183.975 225.592 184.236 226.178 184.594 226.708C185.204 227.611 186.067 228.312 187.076 228.724C188.084 229.136 189.192 229.24 190.259 229.022C191.326 228.804 192.305 228.275 193.071 227.501C193.838 226.727 194.357 225.743 194.565 224.674C194.772 223.605 194.657 222.498 194.236 221.494C193.814 220.49 193.104 219.633 192.195 219.032C191.287 218.432 190.22 218.114 189.131 218.119C188.408 218.123 187.693 218.269 187.026 218.549C186.359 218.829 185.754 219.237 185.245 219.751C184.736 220.265 184.333 220.874 184.06 221.544C183.955 221.802 183.869 222.068 183.804 222.338L183.916 222.337L183.928 224.977L183.82 224.978Z" fill="#272D3C"/>
<path fill-rule="evenodd" clip-rule="evenodd" d="M318.495 51.7834C319.932 51.7764 321.339 52.1956 322.538 52.9883C323.737 53.7809 324.674 54.9113 325.231 56.2365C325.788 57.5617 325.939 59.0221 325.665 60.4332C325.392 61.8442 324.706 63.1425 323.695 64.1638C322.683 65.1852 321.392 65.8837 319.984 66.171C318.575 66.4583 317.113 66.3216 315.783 65.7781C314.452 65.2347 313.313 64.3088 312.508 63.1177C311.954 62.2964 311.576 61.3745 311.392 60.41L275.439 60.5686L263.772 72.3407L112.395 74.2048L112.383 71.5646L262.667 69.7054L274.333 57.9332L311.377 57.7698C311.467 57.2683 311.609 56.7765 311.803 56.3026C312.164 55.4191 312.695 54.6153 313.367 53.9372C314.038 53.259 314.837 52.7198 315.717 52.3503C316.597 51.9807 317.541 51.7881 318.495 51.7834ZM313.967 62.1326C313.609 61.6021 313.348 61.0162 313.192 60.4021L313.3 60.4016L313.289 57.7614L313.177 57.7619C313.242 57.4918 313.327 57.2265 313.433 56.9682C313.706 56.2986 314.109 55.6896 314.618 55.1757C315.126 54.6618 315.732 54.2531 316.398 53.9731C317.065 53.6931 317.78 53.5471 318.504 53.5436C319.593 53.5382 320.659 53.856 321.568 54.4566C322.476 55.0573 323.186 55.9138 323.608 56.9181C324.03 57.9223 324.144 59.029 323.937 60.0983C323.73 61.1676 323.21 62.1514 322.444 62.9254C321.677 63.6993 320.699 64.2286 319.632 64.4464C318.565 64.6641 317.457 64.5605 316.448 64.1487C315.44 63.7368 314.576 63.0352 313.967 62.1326Z" fill="#272D3C"/>
<path fill-rule="evenodd" clip-rule="evenodd" d="M386.155 23.2051C384.956 22.4124 383.549 21.9931 382.112 22.0002C381.157 22.0049 380.213 22.1975 379.333 22.5671C378.453 22.9366 377.655 23.4758 376.983 24.154C376.312 24.8321 375.781 25.6359 375.42 26.5194C375.226 26.9933 375.084 27.4851 374.994 27.9866L337.95 28.15L326.283 39.9222L116 41.7814L116.012 44.4216L327.389 42.5575L339.055 30.7854L375.009 30.6268C375.192 31.5913 375.57 32.5132 376.125 33.3345C376.929 34.5256 378.069 35.4515 379.399 35.9949C380.73 36.5384 382.192 36.6751 383.6 36.3878C385.009 36.1005 386.3 35.402 387.311 34.3806C388.323 33.3593 389.008 32.061 389.282 30.65C389.555 29.2389 389.404 27.7785 388.848 26.4533C388.291 25.1281 387.354 23.9977 386.155 23.2051ZM376.809 30.6189C376.964 31.233 377.225 31.8189 377.584 32.3494C378.193 33.252 379.057 33.9536 380.065 34.3655C381.073 34.7773 382.181 34.8809 383.248 34.6632C384.316 34.4454 385.294 33.9161 386.061 33.1422C386.827 32.3682 387.347 31.3844 387.554 30.3151C387.761 29.2458 387.647 28.1391 387.225 27.1349C386.803 26.1306 386.093 25.2741 385.184 24.6734C384.276 24.0728 383.21 23.755 382.12 23.7604C381.397 23.7639 380.682 23.9099 380.015 24.1899C379.348 24.4699 378.743 24.8786 378.234 25.3925C377.725 25.9064 377.323 26.5154 377.049 27.1849C376.944 27.4433 376.858 27.7086 376.793 27.9787L376.906 27.9782L376.917 30.6184L376.809 30.6189Z" fill="#272D3C"/>
<path fill-rule="evenodd" clip-rule="evenodd" d="M197.923 144.192C199.36 144.185 200.768 144.604 201.967 145.397C203.166 146.19 204.103 147.32 204.659 148.645C205.216 149.97 205.367 151.431 205.093 152.842C204.82 154.253 204.134 155.551 203.123 156.573C202.112 157.594 200.82 158.292 199.412 158.58C198.004 158.867 196.542 158.73 195.211 158.187C193.88 157.643 192.741 156.718 191.936 155.526C191.382 154.705 191.004 153.783 190.82 152.819L154.867 152.977L143.2 164.749L31.8231 166.614L31.8113 163.973L142.095 162.114L153.761 150.342L190.805 150.179C190.895 149.677 191.038 149.185 191.231 148.711C191.592 147.828 192.123 147.024 192.795 146.346C193.467 145.668 194.265 145.128 195.145 144.759C196.025 144.389 196.969 144.197 197.923 144.192ZM193.395 154.541C193.037 154.011 192.776 153.425 192.62 152.811L192.729 152.81L192.717 150.17L192.605 150.171C192.67 149.901 192.755 149.635 192.861 149.377C193.134 148.707 193.537 148.098 194.046 147.584C194.555 147.07 195.16 146.662 195.826 146.382C196.493 146.102 197.209 145.956 197.932 145.952C199.021 145.947 200.087 146.265 200.996 146.865C201.904 147.466 202.615 148.323 203.036 149.327C203.458 150.331 203.573 151.438 203.365 152.507C203.158 153.576 202.638 154.56 201.872 155.334C201.106 156.108 200.127 156.637 199.06 156.855C197.993 157.073 196.885 156.969 195.877 156.557C194.868 156.146 194.005 155.444 193.395 154.541Z" fill="#272D3C"/>
<path fill-rule="evenodd" clip-rule="evenodd" d="M277.346 293.035C275.931 292.787 274.475 292.963 273.16 293.542C271.846 294.121 270.732 295.076 269.96 296.287C269.427 297.124 269.073 298.057 268.915 299.027L175.754 301.77L161.336 294.488L7.8904 298.835L7.95583 301.475L160.738 297.144L175.156 304.426L268.974 301.666C269.078 302.165 269.234 302.652 269.44 303.12C269.826 303.995 270.38 304.785 271.072 305.445C271.763 306.105 272.577 306.623 273.469 306.969C274.36 307.314 275.311 307.48 276.266 307.458L276.268 307.458C277.703 307.423 279.097 306.963 280.271 306.136C281.446 305.309 282.349 304.153 282.867 302.814C283.385 301.474 283.494 300.011 283.181 298.609C282.868 297.208 282.147 295.93 281.108 294.938C280.07 293.946 278.76 293.284 277.346 293.035ZM273.87 295.153C274.866 294.714 275.969 294.581 277.041 294.769C278.113 294.957 279.105 295.459 279.892 296.211C280.679 296.963 281.226 297.931 281.463 298.993C281.7 300.055 281.617 301.164 281.225 302.179C280.833 303.194 280.148 304.07 279.258 304.697C278.368 305.323 277.313 305.671 276.225 305.698C275.501 305.715 274.78 305.589 274.105 305.327C273.429 305.065 272.811 304.673 272.287 304.172C271.763 303.672 271.343 303.073 271.05 302.41C270.758 301.747 270.599 301.033 270.583 300.309C270.56 299.221 270.86 298.151 271.445 297.233C272.03 296.315 272.873 295.591 273.87 295.153Z" fill="#272D3C"/>
<path fill-rule="evenodd" clip-rule="evenodd" d="M242.358 80.562C243.672 79.9833 245.129 79.807 246.543 80.0555C247.958 80.304 249.267 80.9661 250.305 81.9581C251.344 82.9502 252.065 84.2277 252.378 85.6294C252.691 87.0311 252.582 88.4941 252.064 89.8337C251.546 91.1733 250.643 92.3294 249.468 93.156C248.294 93.9826 246.901 94.4427 245.465 94.4781L245.464 94.4781C244.508 94.5003 243.557 94.3339 242.666 93.9885C241.775 93.6431 240.96 93.1255 240.269 92.4652C239.578 91.805 239.023 91.015 238.637 90.1404C238.431 89.6723 238.275 89.185 238.171 88.6865L144.353 91.4463L129.936 84.1637L113.153 84.4949L113.088 81.8555L130.534 81.5079L144.951 88.7904L238.113 86.0469C238.271 85.0766 238.624 84.1437 239.158 83.307C239.93 82.0959 241.043 81.1407 242.358 80.562ZM246.239 81.7891C245.167 81.6008 244.063 81.7344 243.067 82.1729C242.071 82.6115 241.227 83.3353 240.642 84.2531C240.057 85.1707 239.757 86.241 239.78 87.3289C239.796 88.0532 239.955 88.7671 240.248 89.4299C240.54 90.093 240.961 90.6919 241.485 91.1924C242.009 91.693 242.626 92.0854 243.302 92.3473C243.977 92.609 244.698 92.7351 245.422 92.7185C246.51 92.6915 247.565 92.3429 248.455 91.7166C249.345 91.0902 250.03 90.2141 250.422 89.199C250.815 88.1839 250.898 87.0752 250.66 86.013C250.423 84.9508 249.877 83.9827 249.09 83.2309C248.303 82.4791 247.311 81.9774 246.239 81.7891Z" fill="#272D3C"/>
<path fill-rule="evenodd" clip-rule="evenodd" d="M125.971 172.464C124.557 172.216 123.1 172.392 121.786 172.971C120.471 173.549 119.358 174.505 118.586 175.716C118.053 176.552 117.699 177.485 117.541 178.456L84.3793 181.199L69.9621 173.917L69.364 176.572L83.7812 183.855L117.6 181.095C117.703 181.594 117.859 182.081 118.066 182.549C118.452 183.424 119.006 184.214 119.697 184.874C120.388 185.534 121.203 186.052 122.094 186.397C122.986 186.743 123.936 186.909 124.892 186.887L124.893 186.887C126.329 186.851 127.722 186.391 128.897 185.565C130.071 184.738 130.975 183.582 131.492 182.242C132.01 180.903 132.12 179.44 131.807 178.038C131.494 176.636 130.772 175.359 129.734 174.367C128.695 173.375 127.386 172.713 125.971 172.464ZM122.495 174.582C123.491 174.143 124.595 174.01 125.667 174.198C126.739 174.386 127.731 174.888 128.518 175.64C129.305 176.391 129.852 177.359 130.089 178.422C130.326 179.484 130.243 180.593 129.851 181.608C129.458 182.623 128.774 183.499 127.884 184.125C126.994 184.752 125.938 185.1 124.851 185.127C124.126 185.144 123.406 185.018 122.73 184.756C122.055 184.494 121.437 184.102 120.913 183.601C120.389 183.101 119.969 182.502 119.676 181.839C119.384 181.176 119.225 180.462 119.208 179.738C119.185 178.65 119.485 177.579 120.07 176.662C120.655 175.744 121.499 175.02 122.495 174.582Z" fill="#272D3C"/>
<path fill-rule="evenodd" clip-rule="evenodd" d="M194.833 356.028C196.148 355.45 197.604 355.273 199.019 355.522C200.433 355.77 201.742 356.432 202.781 357.424C203.82 358.416 204.541 359.694 204.854 361.096C205.167 362.497 205.058 363.96 204.54 365.3C204.022 366.64 203.118 367.796 201.944 368.622C200.769 369.449 199.376 369.909 197.941 369.944L197.939 369.944C196.984 369.967 196.033 369.8 195.142 369.455C194.25 369.109 193.436 368.592 192.744 367.932C192.053 367.271 191.499 366.481 191.113 365.607C190.907 365.139 190.751 364.651 190.647 364.153L96.8284 366.913L82.4112 359.63L35.6287 359.961L35.5632 357.322L83.0093 356.974L97.4265 364.257L190.588 361.513C190.746 360.543 191.1 359.61 191.633 358.773C192.405 357.562 193.519 356.607 194.833 356.028ZM198.714 357.255C197.642 357.067 196.538 357.201 195.542 357.639C194.546 358.078 193.702 358.802 193.117 359.719C192.533 360.637 192.233 361.707 192.256 362.795C192.272 363.519 192.431 364.233 192.723 364.896C193.016 365.559 193.436 366.158 193.96 366.659C194.484 367.159 195.102 367.552 195.777 367.814C196.453 368.075 197.173 368.201 197.898 368.185C198.986 368.158 200.041 367.809 200.931 367.183C201.821 366.557 202.505 365.68 202.898 364.665C203.29 363.65 203.373 362.542 203.136 361.479C202.899 360.417 202.352 359.449 201.565 358.697C200.778 357.945 199.786 357.444 198.714 357.255Z" fill="#272D3C"/>
<path fill-rule="evenodd" clip-rule="evenodd" d="M223.661 388.085C222.247 387.836 220.79 388.013 219.476 388.591C218.161 389.17 217.048 390.125 216.276 391.336C215.742 392.173 215.389 393.106 215.231 394.076L148.471 396.82L134.054 389.537L86.6082 389.885L86.6736 392.524L133.456 392.193L147.873 399.476L215.289 396.716C215.393 397.214 215.549 397.702 215.756 398.17C216.141 399.044 216.696 399.834 217.387 400.495C218.078 401.155 218.893 401.672 219.784 402.018C220.675 402.363 221.626 402.53 222.582 402.507L222.583 402.507C224.019 402.472 225.412 402.012 226.586 401.185C227.761 400.359 228.664 399.203 229.182 397.863C229.7 396.523 229.809 395.06 229.496 393.659C229.183 392.257 228.462 390.979 227.423 389.987C226.385 388.995 225.076 388.333 223.661 388.085ZM220.185 390.202C221.181 389.764 222.285 389.63 223.357 389.818C224.429 390.007 225.421 390.508 226.208 391.26C226.995 392.012 227.541 392.98 227.778 394.042C228.016 395.104 227.933 396.213 227.54 397.228C227.148 398.243 226.463 399.12 225.573 399.746C224.683 400.372 223.628 400.721 222.54 400.748C221.816 400.764 221.095 400.638 220.42 400.377C219.744 400.115 219.127 399.722 218.603 399.222C218.079 398.721 217.658 398.122 217.366 397.459C217.073 396.796 216.914 396.082 216.898 395.358C216.875 394.27 217.175 393.2 217.76 392.282C218.345 391.365 219.189 390.641 220.185 390.202Z" fill="#272D3C"/>
<path fill-rule="evenodd" clip-rule="evenodd" d="M220.735 260.364C219.686 259.32 218.987 257.99 218.716 256.556L151.261 256.824L137.01 249.221L0.10112 250.232L0.0947266 247.592L137.668 246.579L151.919 254.182L218.706 253.916C218.882 252.948 219.253 252.022 219.801 251.195C220.596 249.997 221.728 249.062 223.055 248.508C224.381 247.954 225.842 247.805 227.253 248.082C228.664 248.358 229.961 249.047 230.98 250.06C232 251.074 232.696 252.367 232.98 253.776C233.264 255.185 233.124 256.647 232.578 257.977C232.031 259.306 231.102 260.444 229.909 261.246C228.716 262.047 227.311 262.477 225.874 262.481H225.873C223.948 262.482 222.1 261.721 220.735 260.364ZM226.915 249.809C225.846 249.6 224.739 249.712 223.733 250.132C222.728 250.552 221.87 251.261 221.268 252.169C220.666 253.076 220.346 254.142 220.349 255.231C220.357 256.69 220.942 258.087 221.976 259.116C223.011 260.145 224.411 260.722 225.87 260.72C226.959 260.718 228.023 260.392 228.928 259.785C229.832 259.177 230.536 258.315 230.95 257.308C231.364 256.3 231.47 255.192 231.255 254.124C231.039 253.056 230.512 252.076 229.739 251.308C228.967 250.54 227.984 250.018 226.915 249.809Z" fill="#272D3C"/>
</g>
</svg>
