<svg xmlns="http://www.w3.org/2000/svg" xmlns:xlink="http://www.w3.org/1999/xlink" viewBox="0 0 722.71 830.86"><defs><style>.cls-1{fill:url(#Dégradé_sans_nom_75);}.cls-2{fill:url(#Dégradé_sans_nom_286);}.cls-3{fill:url(#Dégradé_sans_nom_286-2);}.cls-4{fill:url(#Dégradé_sans_nom_286-3);}.cls-5{fill:url(#Dégradé_sans_nom_341);}.cls-6,.cls-7{fill:#d5e7f2;}.cls-7,.cls-8{fill-rule:evenodd;}.cls-8{fill:#8fbdd9;}</style><linearGradient id="Dégradé_sans_nom_75" x1="39.76" y1="43.99" x2="839.26" y2="588.76" gradientUnits="userSpaceOnUse"><stop offset="0.04" stop-color="#d5e7f2" stop-opacity="0.1"/><stop offset="0.21" stop-color="#d5e7f2" stop-opacity="0.7"/><stop offset="0.31" stop-color="#b5c5d1" stop-opacity="0"/><stop offset="0.39" stop-color="#a4b2be" stop-opacity="0.05"/><stop offset="0.4" stop-color="#a4b2be" stop-opacity="0.07"/><stop offset="0.42" stop-color="#a2b0bc" stop-opacity="0.15"/><stop offset="0.44" stop-color="#a0aeba" stop-opacity="0.27"/><stop offset="0.45" stop-color="#9dabb7" stop-opacity="0.44"/><stop offset="0.47" stop-color="#99a7b3" stop-opacity="0.65"/><stop offset="0.48" stop-color="#94a2ae" stop-opacity="0.9"/><stop offset="0.5" stop-color="#8693a0" stop-opacity="0.76"/><stop offset="0.54" stop-color="#737e8b" stop-opacity="0.56"/><stop offset="0.57" stop-color="#646e7c" stop-opacity="0.4"/><stop offset="0.6" stop-color="#596270" stop-opacity="0.29"/><stop offset="0.64" stop-color="#525b69" stop-opacity="0.22"/><stop offset="0.66" stop-color="#505967" stop-opacity="0.2"/><stop offset="0.7" stop-color="#8793a0" stop-opacity="0.6"/><stop offset="0.81" stop-color="#2b3140"/><stop offset="0.87" stop-color="#454c5b" stop-opacity="0.75"/><stop offset="0.88" stop-color="#5e6775" stop-opacity="0.5"/><stop offset="0.89" stop-color="#3f4655" stop-opacity="0.61"/><stop offset="0.9" stop-color="#2c3241" stop-opacity="0.68"/><stop offset="0.94" stop-color="#272d3c" stop-opacity="0.7"/></linearGradient><linearGradient id="Dégradé_sans_nom_286" x1="-170.68" y1="166.14" x2="689.28" y2="752.11" gradientUnits="userSpaceOnUse"><stop offset="0.06" stop-color="#ff0d21" stop-opacity="0"/><stop offset="0.06" stop-color="#fe0d21" stop-opacity="0.12"/><stop offset="0.07" stop-color="#fb0e22" stop-opacity="0.42"/><stop offset="0.09" stop-color="#f70e22" stop-opacity="0.8"/><stop offset="0.09" stop-color="#f60e22" stop-opacity="0.78"/><stop offset="0.1" stop-color="#f50e22" stop-opacity="0.73"/><stop offset="0.1" stop-color="#f20f23" stop-opacity="0.64"/><stop offset="0.11" stop-color="#ee1023" stop-opacity="0.52"/><stop offset="0.12" stop-color="#e91124" stop-opacity="0.36"/><stop offset="0.12" stop-color="#e71124" stop-opacity="0.3"/><stop offset="0.13" stop-color="#e11225" stop-opacity="0.42"/><stop offset="0.16" stop-color="#d71326" stop-opacity="0.58"/><stop offset="0.18" stop-color="#d01427" stop-opacity="0.7"/><stop offset="0.21" stop-color="#cc1528" stop-opacity="0.78"/><stop offset="0.23" stop-color="#cb1528" stop-opacity="0.8"/><stop offset="0.31" stop-color="#bb172a" stop-opacity="0.45"/><stop offset="0.38" stop-color="#af192b" stop-opacity="0.16"/><stop offset="0.41" stop-color="#aa1a2c" stop-opacity="0.05"/><stop offset="0.49" stop-color="#8d1e2f" stop-opacity="0.3"/><stop offset="0.62" stop-color="#6b2333" stop-opacity="0.4"/><stop offset="0.66" stop-color="#9b2232" stop-opacity="0.67"/><stop offset="0.69" stop-color="#c42130" stop-opacity="0.91"/><stop offset="0.71" stop-color="#d42130"/><stop offset="0.71" stop-color="#d12130"/><stop offset="0.72" stop-color="#ba2332"/><stop offset="0.75" stop-color="#c52231" stop-opacity="0.58"/><stop offset="0.77" stop-color="#cd2130" stop-opacity="0.31"/><stop offset="0.78" stop-color="#d02130" stop-opacity="0.2"/><stop offset="0.82" stop-color="#c72231" stop-opacity="0.15"/><stop offset="0.85" stop-color="#bf2332" stop-opacity="0.1"/><stop offset="0.89" stop-color="#942635" stop-opacity="0.35"/><stop offset="0.96" stop-color="#452b3a" stop-opacity="0.82"/><stop offset="1" stop-color="#272d3c"/></linearGradient><linearGradient id="Dégradé_sans_nom_286-2" x1="-153.31" y1="140.64" x2="706.65" y2="726.62" xlink:href="#Dégradé_sans_nom_286"/><linearGradient id="Dégradé_sans_nom_286-3" x1="-102.91" y1="81.75" x2="757.05" y2="667.73" xlink:href="#Dégradé_sans_nom_286"/><linearGradient id="Dégradé_sans_nom_341" x1="-42.09" y1="141.51" x2="833.06" y2="737.83" gradientUnits="userSpaceOnUse"><stop offset="0.04" stop-color="#1c7460"/><stop offset="0.07" stop-color="#236d5f" stop-opacity="0.77"/><stop offset="0.13" stop-color="#315f5d" stop-opacity="0.3"/><stop offset="0.21" stop-color="#225f57"/><stop offset="0.26" stop-color="#284a4d" stop-opacity="0.5"/><stop offset="0.31" stop-color="#244f4e" stop-opacity="0.1"/><stop offset="0.37" stop-color="#254d4d" stop-opacity="0.2"/><stop offset="0.39" stop-color="#254d4d" stop-opacity="0.24"/><stop offset="0.41" stop-color="#254e4e" stop-opacity="0.37"/><stop offset="0.41" stop-color="#254e4e" stop-opacity="0.4"/><stop offset="0.42" stop-color="#245250" stop-opacity="0.44"/><stop offset="0.45" stop-color="#215d55" stop-opacity="0.56"/><stop offset="0.47" stop-color="#1d6f5e" stop-opacity="0.75"/><stop offset="0.48" stop-color="#1c7460" stop-opacity="0.8"/><stop offset="0.5" stop-color="#206d5e" stop-opacity="0.73"/><stop offset="0.55" stop-color="#295d58" stop-opacity="0.56"/><stop offset="0.58" stop-color="#2c5756" stop-opacity="0.5"/><stop offset="0.62" stop-color="#265452" stop-opacity="0.3"/><stop offset="0.66" stop-color="#235250" stop-opacity="0.2"/><stop offset="0.66" stop-color="#235250" stop-opacity="0.15"/><stop offset="0.66" stop-color="#235350" stop-opacity="0.1"/><stop offset="0.7" stop-color="#1f5d55" stop-opacity="0.2"/><stop offset="0.75" stop-color="#1f6056"/><stop offset="0.76" stop-color="#215a53" stop-opacity="0.88"/><stop offset="0.77" stop-color="#24504f" stop-opacity="0.67"/><stop offset="0.78" stop-color="#25494c" stop-opacity="0.54"/><stop offset="0.79" stop-color="#26474b" stop-opacity="0.5"/><stop offset="0.8" stop-color="#26484b" stop-opacity="0.53"/><stop offset="0.81" stop-color="#254b4d" stop-opacity="0.61"/><stop offset="0.82" stop-color="#24504f" stop-opacity="0.75"/><stop offset="0.83" stop-color="#235752" stop-opacity="0.95"/><stop offset="0.83" stop-color="#235953"/><stop offset="0.85" stop-color="#244c4c" stop-opacity="0.79"/><stop offset="0.88" stop-color="#263a43" stop-opacity="0.5"/><stop offset="0.89" stop-color="#253f46" stop-opacity="0.61"/><stop offset="0.9" stop-color="#244347" stop-opacity="0.68"/><stop offset="0.94" stop-color="#244448" stop-opacity="0.7"/></linearGradient></defs><title>landing_page_ilus</title><g id="Calque_2" data-name="Calque 2"><g id="Calque_2-2" data-name="Calque 2"><path class="cls-1" d="M696,643.42c13.18-33,9.7-34.87,3.83-40.47-20.4-19.46-88.86,24-136.74,0-21.7-10.89-27.61-33.79-35-50.19C481.51,449.08,373.56,422.44,230.84,394.25c-88.27-17.43-105-140.82-132.62-255.85-9.66-40.19-11.37-62.34,0-80.62,43-69.16,230.91-14.81,244.9-10.64l16.5-14.61c-14-4.18-201.88-58.53-244.9,10.64-11.37,18.28-9.66,40.43,0,80.62,27.65,115,46.28,192.55,112.47,253.49C343.24,484.12,500.11,443,546.72,546.67c7.37,16.4,15.82,32.2,37.52,43.1,47.88,24,82.14-28.81,132.85-12.68,7.73,2.46,8.61,18.76-4.57,51.72Z"/><path class="cls-2" d="M415.16,532.53C362.61,487,285.52,466.75,192,447.73,267,501.12,353.28,506.34,415.16,532.53Z"/><path class="cls-3" d="M522.43,638.64c-21.71-10.9-30.15-26.7-37.52-43.1-14.32-31.83-39-50-69.75-63a196,196,0,0,1,51.15,69.1c7.38,16.4,13.28,39.3,35,50.2,47.27,23.73,129.14-19.32,150.46-1.63L655.27,626C604.57,609.84,570.3,662.68,522.43,638.64Z"/><path class="cls-4" d="M176.47,424.94C110.28,364,91.65,286.48,64,171.45c-9.66-40.19-11.36-62.34,0-80.62C100.55,32.07,43.44,4.43,34,0L17.75,14.39h0c0,.09-.07.19-.11.28,9.71,4.57,66.32,32.21,29.89,90.78-11.36,18.28-9.66,40.43,0,80.62,27.65,115,44.36,238.42,132.62,255.85q11.65,2.31,23,4.61A274.85,274.85,0,0,1,176.47,424.94Z"/><path class="cls-5" d="M644.52,830.86c13.18-33,9.69-34.86,3.83-40.46-20.4-19.46-88.86,24-136.74,0-21.7-10.9-14.2-73.57-21.58-90-46.61-103.68-246-224.33-388.68-252.52C23.29,435,35.54,358.51,7.9,243.48c-9.66-40.19-11.37-62.34,0-80.62,22-35.39,81.93-38.44,137.09-32.43,52.66,5.74,96.7-38.84,103.53-36.81L265,79c-7.11-2.12-54.85,41.39-109.95,36.15-53.32-5.07-109.52-.93-130.67,33.09-11.37,18.28-9.66,40.43,0,80.62,27.64,115,21.07,163,73.29,202.06C213.74,537.77,442.06,591.74,517.56,722.36c9,15.57-6.52,43.95,15.18,54.85,47.88,24,82.14-28.8,132.85-12.67,7.72,2.45,8.61,18.75-4.57,51.71Z"/><path class="cls-6" d="M331.12,325.72l-10.55,27H316.2l30.15-75.41H350l30,75.41h-4.37l-10.87-27Zm32-3.84-10.76-27.16a109.09,109.09,0,0,1-4.05-12H348a86,86,0,0,1-4.05,11.71l-11,27.48Z"/><polygon class="cls-6" points="444.05 314.75 408.89 314.75 408.89 349.05 447.88 349.05 447.88 352.77 404.52 352.77 404.52 277.36 445.97 277.36 445.97 281.09 408.89 281.09 408.89 311.02 444.05 311.02 444.05 314.75"/><path class="cls-6" d="M536.32,349.79c-4.26,2.13-12.57,4.36-23,4.36-19.29,0-38.79-12-38.79-38.87,0-19.81,13.85-39.2,41.77-39.2,11.08,0,17.26,2.56,19.71,3.62l-1.71,3.73a42.39,42.39,0,0,0-17.79-3.73c-24.29,0-37.61,15.34-37.61,36.22,0,19.28,12.79,34.4,36.23,34.4,7.35,0,14.59-1.49,19.6-4.05Z"/><path class="cls-6" d="M291.88,374.42h-1.1l-5.56,13.28h1.41l1.7-4.16h6L296,387.7h1.39Zm-3.27,8.1,2.71-6.57,2.67,6.57Z"/><path class="cls-6" d="M298.8,374h1.27v11.45a1.06,1.06,0,0,0,1.15,1.16,2.4,2.4,0,0,0,.48-.06,2.63,2.63,0,0,0,.52-.15l.23,1a3.94,3.94,0,0,1-.88.24,4.31,4.31,0,0,1-.88.1,1.87,1.87,0,0,1-1.38-.5,1.84,1.84,0,0,1-.51-1.39Z"/><path class="cls-6" d="M307.44,387.83a4,4,0,0,1-1.83-.42,4.56,4.56,0,0,1-1.45-1.12,4.78,4.78,0,0,1-.94-1.59,5.27,5.27,0,0,1-.34-1.85,5.67,5.67,0,0,1,.33-1.93,5,5,0,0,1,.92-1.62,4.53,4.53,0,0,1,1.43-1.1,4.05,4.05,0,0,1,1.85-.41,3.76,3.76,0,0,1,2.17.62,6.05,6.05,0,0,1,1.57,1.58v-2h1.14v9.78a3.93,3.93,0,0,1-.39,1.79,3.74,3.74,0,0,1-1,1.3,4.3,4.3,0,0,1-1.52.78,6.16,6.16,0,0,1-1.84.27,5.4,5.4,0,0,1-2.72-.6,4.85,4.85,0,0,1-1.66-1.62l.79-.61a3.4,3.4,0,0,0,1.53,1.38,4.94,4.94,0,0,0,2.06.43,4.52,4.52,0,0,0,1.34-.19,3.22,3.22,0,0,0,1.12-.58,2.75,2.75,0,0,0,.76-1,3.22,3.22,0,0,0,.28-1.37v-1.92a4.3,4.3,0,0,1-3.58,2m.36-1.07a3,3,0,0,0,1.1-.21,3.79,3.79,0,0,0,1-.54,3.63,3.63,0,0,0,.74-.78,2.73,2.73,0,0,0,.39-.88v-3a3.95,3.95,0,0,0-1.37-1.74,3.91,3.91,0,0,0-1-.51,3.06,3.06,0,0,0-1-.18,3,3,0,0,0-1.46.34,3.38,3.38,0,0,0-1.1.91,3.89,3.89,0,0,0-.68,1.27,4.44,4.44,0,0,0-.24,1.44,4,4,0,0,0,.28,1.5,3.89,3.89,0,0,0,.78,1.24,3.52,3.52,0,0,0,1.15.84,3.18,3.18,0,0,0,1.42.31"/><path class="cls-6" d="M319,387.88a4.56,4.56,0,0,1-1.95-.4,4.65,4.65,0,0,1-1.55-1.1,5.23,5.23,0,0,1-1-1.62,5.34,5.34,0,0,1-.37-2,5.19,5.19,0,0,1,.37-1.94,5.25,5.25,0,0,1,1-1.59,4.72,4.72,0,0,1,3.49-1.49,4.75,4.75,0,0,1,1.95.4,5,5,0,0,1,1.53,1.1,5.2,5.2,0,0,1,1,1.59,5.11,5.11,0,0,1,.36,1.91v.3a.88.88,0,0,1,0,.2h-8.34a4,4,0,0,0,.35,1.45,4,4,0,0,0,.8,1.15,3.6,3.6,0,0,0,1.11.76,3.46,3.46,0,0,0,2.28.14,4.42,4.42,0,0,0,.86-.35,3.51,3.51,0,0,0,.71-.56,2.36,2.36,0,0,0,.49-.72l1.1.3a3.5,3.5,0,0,1-.64,1,4.47,4.47,0,0,1-.95.76,4.62,4.62,0,0,1-1.2.51,5.51,5.51,0,0,1-1.36.17m3.59-5.57a4,4,0,0,0-1.15-2.54,3.54,3.54,0,0,0-2.44-1,3.39,3.39,0,0,0-1.35.27,3.2,3.2,0,0,0-1.11.73,3.44,3.44,0,0,0-.77,1.12,4.17,4.17,0,0,0-.34,1.42Z"/><path class="cls-6" d="M330.34,379.07a4,4,0,0,0-2.24.71,3.57,3.57,0,0,0-1.35,1.86v6.06h-1.27V378h1.2v2.34a4.38,4.38,0,0,1,1.46-1.76,3.39,3.39,0,0,1,2-.63.82.82,0,0,1,.24,0Z"/><path class="cls-6" d="M331.74,374.05H333v1.86h-1.27Zm0,3.9H333v9.75h-1.27Z"/><path class="cls-6" d="M338,387.88a3.4,3.4,0,0,1-1.29-.23,3.5,3.5,0,0,1-1-.64,3.15,3.15,0,0,1-.68-1,2.91,2.91,0,0,1-.24-1.19,2.37,2.37,0,0,1,.3-1.17,2.79,2.79,0,0,1,.84-.94,4.28,4.28,0,0,1,1.29-.61,6.11,6.11,0,0,1,1.65-.21,8.64,8.64,0,0,1,1.51.13,5.81,5.81,0,0,1,1.37.38v-.88a2.8,2.8,0,0,0-.74-2.05,2.62,2.62,0,0,0-2-.76,4.34,4.34,0,0,0-1.54.3,7.33,7.33,0,0,0-1.59.86l-.45-.85a6.66,6.66,0,0,1,3.67-1.27,3.93,3.93,0,0,1,2.88,1,3.77,3.77,0,0,1,1.05,2.84v4.39c0,.35.15.52.47.52v1.13a4.21,4.21,0,0,1-.49.05,1.14,1.14,0,0,1-.76-.24.9.9,0,0,1-.28-.67l-.05-.77a4.48,4.48,0,0,1-1.69,1.35,5.21,5.21,0,0,1-2.19.46m.3-1a4.55,4.55,0,0,0,1.82-.37,3,3,0,0,0,1.26-1,1.14,1.14,0,0,0,.26-.36,1,1,0,0,0,.08-.37v-1.58a8.65,8.65,0,0,0-1.32-.38,8.08,8.08,0,0,0-1.39-.13,3.91,3.91,0,0,0-2.19.56,1.73,1.73,0,0,0-.85,1.48,2,2,0,0,0,.18.84,2.23,2.23,0,0,0,.49.69,2.19,2.19,0,0,0,.74.45,2.55,2.55,0,0,0,.92.17"/><polygon class="cls-6" points="370.88 386.54 370.88 387.7 361.95 387.7 361.95 374.42 370.71 374.42 370.71 375.58 363.27 375.58 363.27 380.36 369.76 380.36 369.76 381.47 363.27 381.47 363.27 386.54 370.88 386.54"/><path class="cls-6" d="M380.87,387.7H379.6v-5.45a4.76,4.76,0,0,0-.52-2.52,1.74,1.74,0,0,0-1.58-.79,3.17,3.17,0,0,0-1.12.21,3.68,3.68,0,0,0-1,.58,4.24,4.24,0,0,0-.85.89,3.37,3.37,0,0,0-.54,1.11v6h-1.28V378h1.17v2.21a4.46,4.46,0,0,1,1.7-1.72,4.72,4.72,0,0,1,2.43-.66,2.82,2.82,0,0,1,1.36.3,2.43,2.43,0,0,1,.9.84,4,4,0,0,1,.49,1.33,9.4,9.4,0,0,1,.15,1.74Z"/><path class="cls-6" d="M387.19,387.83a4,4,0,0,1-1.84-.42,4.63,4.63,0,0,1-1.44-1.12,5,5,0,0,1-1-1.59,5.27,5.27,0,0,1-.33-1.85,5.67,5.67,0,0,1,.33-1.93,4.78,4.78,0,0,1,.92-1.62,4.53,4.53,0,0,1,1.43-1.1,4,4,0,0,1,1.85-.41,3.71,3.71,0,0,1,2.16.62A5.94,5.94,0,0,1,390.9,380v-2H392v9.78a3.93,3.93,0,0,1-.38,1.79,3.86,3.86,0,0,1-1,1.3,4.3,4.3,0,0,1-1.52.78,6.21,6.21,0,0,1-1.84.27,5.4,5.4,0,0,1-2.72-.6,4.77,4.77,0,0,1-1.66-1.62l.78-.61a3.47,3.47,0,0,0,1.54,1.38,4.91,4.91,0,0,0,2.06.43,4.52,4.52,0,0,0,1.34-.19,3.22,3.22,0,0,0,1.12-.58,2.62,2.62,0,0,0,.75-1,3.07,3.07,0,0,0,.29-1.37v-1.92a4.1,4.1,0,0,1-1.54,1.47,4.06,4.06,0,0,1-2,.55m.36-1.07a3,3,0,0,0,1.1-.21,4,4,0,0,0,1-.54,3.58,3.58,0,0,0,.73-.78,2.56,2.56,0,0,0,.4-.88v-3a3.95,3.95,0,0,0-1.37-1.74,3.91,3.91,0,0,0-1-.51,3.21,3.21,0,0,0-2.5.16,3.6,3.6,0,0,0-1.1.91,4.09,4.09,0,0,0-.68,1.27,4.71,4.71,0,0,0-.23,1.44,4,4,0,0,0,.28,1.5,4,4,0,0,0,.77,1.24,3.56,3.56,0,0,0,1.16.84,3.21,3.21,0,0,0,1.42.31"/><path class="cls-6" d="M394.54,374.05h1.28v1.86h-1.28Zm0,3.9h1.28v9.75h-1.28Z"/><path class="cls-6" d="M406.51,387.7h-1.27v-5.45a4.78,4.78,0,0,0-.51-2.52,1.74,1.74,0,0,0-1.58-.79,3.13,3.13,0,0,0-1.12.21,3.55,3.55,0,0,0-1,.58,4.24,4.24,0,0,0-.85.89,3.37,3.37,0,0,0-.54,1.11v6h-1.28V378h1.16v2.21a4.51,4.51,0,0,1,1.72-1.72,4.63,4.63,0,0,1,2.42-.66,2.85,2.85,0,0,1,1.36.3,2.43,2.43,0,0,1,.9.84,4,4,0,0,1,.49,1.33,9.44,9.44,0,0,1,.14,1.74Z"/><path class="cls-6" d="M413.14,387.88a4.71,4.71,0,0,1-2-.4,4.82,4.82,0,0,1-1.54-1.1,5.43,5.43,0,0,1-1-1.62,5.33,5.33,0,0,1-.36-2,5.19,5.19,0,0,1,.36-1.94,5.25,5.25,0,0,1,1-1.59,4.72,4.72,0,0,1,3.49-1.49,4.59,4.59,0,0,1,3.48,1.5,5,5,0,0,1,1,1.59,5.11,5.11,0,0,1,.36,1.91v.3a.88.88,0,0,1,0,.2h-8.34a3.82,3.82,0,0,0,.36,1.45,4,4,0,0,0,.8,1.15,3.4,3.4,0,0,0,2.45,1,3.31,3.31,0,0,0,.93-.13,4.42,4.42,0,0,0,.86-.35,3.25,3.25,0,0,0,.71-.56,2.05,2.05,0,0,0,.49-.72l1.1.3a3.26,3.26,0,0,1-.63,1,4.8,4.8,0,0,1-1,.76,4.7,4.7,0,0,1-1.19.51,5.65,5.65,0,0,1-1.37.17m3.59-5.57a4.07,4.07,0,0,0-.36-1.43,3.89,3.89,0,0,0-.78-1.11,3.54,3.54,0,0,0-2.45-1,3.34,3.34,0,0,0-1.34.27,3.24,3.24,0,0,0-1.12.73,3.44,3.44,0,0,0-.77,1.12,4.17,4.17,0,0,0-.34,1.42Z"/><path class="cls-6" d="M423.82,387.88a4.63,4.63,0,0,1-1.95-.4,4.87,4.87,0,0,1-1.55-1.1,5.23,5.23,0,0,1-1-1.62,5.33,5.33,0,0,1-.36-2,5.19,5.19,0,0,1,.36-1.94,5.25,5.25,0,0,1,1-1.59,5,5,0,0,1,1.55-1.09,4.78,4.78,0,0,1,6.41,2.69,5.11,5.11,0,0,1,.36,1.91v.3a.88.88,0,0,1,0,.2h-8.34a4,4,0,0,0,.36,1.45,4,4,0,0,0,.8,1.15,3.38,3.38,0,0,0,1.11.76,3.43,3.43,0,0,0,2.27.14,4.42,4.42,0,0,0,.86-.35,3.57,3.57,0,0,0,.72-.56,2.16,2.16,0,0,0,.48-.72l1.1.3a3.26,3.26,0,0,1-.63,1,4.47,4.47,0,0,1-.95.76,4.84,4.84,0,0,1-1.21.51,5.51,5.51,0,0,1-1.36.17m3.59-5.57a3.68,3.68,0,0,0-.36-1.43,4.09,4.09,0,0,0-.78-1.11,3.54,3.54,0,0,0-2.45-1,3.34,3.34,0,0,0-1.34.27,3.24,3.24,0,0,0-1.12.73,3.57,3.57,0,0,0-.76,1.12,3.76,3.76,0,0,0-.35,1.42Z"/><path class="cls-6" d="M435.16,379.07a4,4,0,0,0-2.25.71,3.6,3.6,0,0,0-1.34,1.86v6.06h-1.28V378h1.2v2.34a4.55,4.55,0,0,1,1.46-1.76,3.42,3.42,0,0,1,2-.63.82.82,0,0,1,.24,0Z"/><path class="cls-6" d="M436.56,374.05h1.27v1.86h-1.27Zm0,3.9h1.27v9.75h-1.27Z"/><path class="cls-6" d="M448.53,387.7h-1.27v-5.45a4.78,4.78,0,0,0-.51-2.52,1.76,1.76,0,0,0-1.58-.79,3.13,3.13,0,0,0-1.12.21,3.43,3.43,0,0,0-1,.58,4.28,4.28,0,0,0-.86.89,3.57,3.57,0,0,0-.54,1.11v6h-1.27V378h1.16v2.21a4.51,4.51,0,0,1,1.72-1.72,4.61,4.61,0,0,1,2.42-.66,2.85,2.85,0,0,1,1.36.3,2.59,2.59,0,0,1,.9.84,4,4,0,0,1,.48,1.33,8.61,8.61,0,0,1,.15,1.74Z"/><path class="cls-6" d="M454.86,387.83a4,4,0,0,1-1.84-.42,4.41,4.41,0,0,1-1.44-1.12,4.81,4.81,0,0,1-.95-1.59,5.27,5.27,0,0,1-.34-1.85,5.67,5.67,0,0,1,.33-1.93,4.8,4.8,0,0,1,.93-1.62,4.42,4.42,0,0,1,1.43-1.1,4,4,0,0,1,1.84-.41,3.74,3.74,0,0,1,2.17.62,6.05,6.05,0,0,1,1.57,1.58v-2h1.14v9.78a4.06,4.06,0,0,1-.38,1.79,3.88,3.88,0,0,1-1,1.3,4.25,4.25,0,0,1-1.51.78,6.22,6.22,0,0,1-1.85.27,5.36,5.36,0,0,1-2.71-.6,4.8,4.8,0,0,1-1.67-1.62l.79-.61a3.47,3.47,0,0,0,1.54,1.38,4.86,4.86,0,0,0,2.05.43,4.59,4.59,0,0,0,1.35-.19,3.27,3.27,0,0,0,1.11-.58,2.75,2.75,0,0,0,.76-1,3.07,3.07,0,0,0,.28-1.37v-1.92a4.26,4.26,0,0,1-3.57,2m.35-1.07a3,3,0,0,0,1.11-.21,3.73,3.73,0,0,0,1-.54,3.63,3.63,0,0,0,.74-.78,2.36,2.36,0,0,0,.39-.88v-3a3.86,3.86,0,0,0-.57-1,4,4,0,0,0-1.77-1.27,3.06,3.06,0,0,0-1-.18,3,3,0,0,0-1.46.34,3.48,3.48,0,0,0-1.1.91,3.89,3.89,0,0,0-.68,1.27,4.44,4.44,0,0,0-.24,1.44,4.2,4.2,0,0,0,.28,1.5,4.07,4.07,0,0,0,.78,1.24,3.63,3.63,0,0,0,1.15.84,3.24,3.24,0,0,0,1.42.31"/><path class="cls-6" d="M466.06,381a6.88,6.88,0,0,1,.43-2.38,6.49,6.49,0,0,1,1.22-2.12,6.23,6.23,0,0,1,2-1.52,5.84,5.84,0,0,1,2.68-.6,5.6,5.6,0,0,1,3,.8,4.94,4.94,0,0,1,1.86,2.1l-1,.64a3.81,3.81,0,0,0-.78-1.11,4.54,4.54,0,0,0-1-.73,4,4,0,0,0-1.09-.4,5.15,5.15,0,0,0-1.1-.12,4.35,4.35,0,0,0-2.11.49,4.77,4.77,0,0,0-1.54,1.27,5.4,5.4,0,0,0-.95,1.77,6.41,6.41,0,0,0-.31,2,5.8,5.8,0,0,0,.38,2.11,5.88,5.88,0,0,0,1,1.79,5.19,5.19,0,0,0,1.57,1.23,4.3,4.3,0,0,0,2,.46,5.16,5.16,0,0,0,1.15-.14,4.23,4.23,0,0,0,1.14-.45,4.42,4.42,0,0,0,1-.77,4,4,0,0,0,.79-1.11l1.08.56a4,4,0,0,1-.9,1.32,5.89,5.89,0,0,1-1.29,1,6.09,6.09,0,0,1-1.5.59,6.17,6.17,0,0,1-1.57.21,5.28,5.28,0,0,1-2.5-.6,6.5,6.5,0,0,1-2-1.56,7.28,7.28,0,0,1-1.29-2.19,7.18,7.18,0,0,1-.46-2.5"/><path class="cls-6" d="M483.37,387.88a4.63,4.63,0,0,1-1.95-.4,4.91,4.91,0,0,1-1.53-1.09,5.2,5.2,0,0,1-1-1.61,5.46,5.46,0,0,1-.35-1.93,5.26,5.26,0,0,1,.36-1.94,5.07,5.07,0,0,1,1-1.61,5,5,0,0,1,1.52-1.11,4.51,4.51,0,0,1,1.93-.41,4.57,4.57,0,0,1,1.93.41,5.18,5.18,0,0,1,1.54,1.11,5,5,0,0,1,1,1.61,5.07,5.07,0,0,1,.37,1.94,5.25,5.25,0,0,1-.36,1.93,4.85,4.85,0,0,1-1,1.61,4.8,4.8,0,0,1-1.53,1.09,4.63,4.63,0,0,1-1.95.4m-3.54-5a4.25,4.25,0,0,0,.28,1.53,4.3,4.3,0,0,0,.76,1.23,3.52,3.52,0,0,0,1.12.83,3.23,3.23,0,0,0,1.38.3,3.06,3.06,0,0,0,1.37-.31,3.59,3.59,0,0,0,1.13-.84,4,4,0,0,0,.77-1.24,4.32,4.32,0,0,0,0-3.06,3.87,3.87,0,0,0-.77-1.25,3.44,3.44,0,0,0-1.13-.84,3.18,3.18,0,0,0-2.74,0,3.4,3.4,0,0,0-1.12.85,3.92,3.92,0,0,0-.77,1.26,4.34,4.34,0,0,0-.28,1.54"/><path class="cls-6" d="M504.54,387.7h-1.27v-5.45a4.55,4.55,0,0,0-.54-2.5,1.82,1.82,0,0,0-1.61-.81,2.67,2.67,0,0,0-1.06.21,3.1,3.1,0,0,0-.92.58,4,4,0,0,0-.73.89,4,4,0,0,0-.49,1.13v5.95h-1.28v-5.45a4.67,4.67,0,0,0-.52-2.52,1.78,1.78,0,0,0-1.61-.79,2.87,2.87,0,0,0-2,.77,4.19,4.19,0,0,0-1.23,2v6H490V378h1.16v2.21a4.61,4.61,0,0,1,1.57-1.75,3.9,3.9,0,0,1,2.16-.63,2.81,2.81,0,0,1,2,.69,3,3,0,0,1,.91,1.82,4.17,4.17,0,0,1,3.76-2.51,2.94,2.94,0,0,1,1.39.3,2.51,2.51,0,0,1,.92.85,3.88,3.88,0,0,1,.5,1.33,8.42,8.42,0,0,1,.16,1.73Z"/><path class="cls-6" d="M511.91,387.88a3.77,3.77,0,0,1-2.18-.63,4.85,4.85,0,0,1-1.52-1.57v6h-1.28V378h1.15v1.89a4.77,4.77,0,0,1,1.54-1.49,4,4,0,0,1,2.09-.56,3.89,3.89,0,0,1,1.84.42,4.6,4.6,0,0,1,1.47,1.12,5,5,0,0,1,1,1.62,5.27,5.27,0,0,1,.35,1.88,6,6,0,0,1-.32,1.95,5.18,5.18,0,0,1-.91,1.61,4.49,4.49,0,0,1-1.4,1.09,4,4,0,0,1-1.79.4m-.35-1.12a3,3,0,0,0,1.43-.34,3.62,3.62,0,0,0,1.1-.88,3.89,3.89,0,0,0,.7-1.26,4.46,4.46,0,0,0,.25-1.45,4.15,4.15,0,0,0-.28-1.49,4.22,4.22,0,0,0-.77-1.26,3.7,3.7,0,0,0-1.15-.85,3.18,3.18,0,0,0-1.43-.32,2.91,2.91,0,0,0-1,.19,4.52,4.52,0,0,0-1,.52,3.8,3.8,0,0,0-.78.77,2,2,0,0,0-.4.93v3a4.49,4.49,0,0,0,.57,1,4.12,4.12,0,0,0,.78.78,3.49,3.49,0,0,0,.95.51,2.87,2.87,0,0,0,1.05.19"/><path class="cls-6" d="M522.38,387.88a4.63,4.63,0,0,1-2-.4,4.72,4.72,0,0,1-1.54-1.1,5.06,5.06,0,0,1-1-1.62,5.34,5.34,0,0,1-.37-2,5.19,5.19,0,0,1,.37-1.94,5.07,5.07,0,0,1,1-1.59,4.72,4.72,0,0,1,3.49-1.49,4.79,4.79,0,0,1,2,.4,4.87,4.87,0,0,1,1.53,1.1,5.2,5.2,0,0,1,1,1.59,5.31,5.31,0,0,1,.35,1.91v.3a.53.53,0,0,1,0,.2h-8.34a4.23,4.23,0,0,0,.36,1.45,4.15,4.15,0,0,0,.8,1.15,3.6,3.6,0,0,0,1.11.76,3.46,3.46,0,0,0,2.28.14,4.69,4.69,0,0,0,.86-.35,3.51,3.51,0,0,0,.71-.56,2.19,2.19,0,0,0,.49-.72l1.1.3a3.46,3.46,0,0,1-.63,1,4.8,4.8,0,0,1-1,.76,4.62,4.62,0,0,1-1.2.51,5.59,5.59,0,0,1-1.37.17m3.6-5.57a4,4,0,0,0-1.15-2.54,3.4,3.4,0,0,0-1.11-.73,3.31,3.31,0,0,0-1.34-.27A3.38,3.38,0,0,0,521,379a3.34,3.34,0,0,0-1.12.73,3.57,3.57,0,0,0-.76,1.12,4.17,4.17,0,0,0-.35,1.42Z"/><path class="cls-6" d="M533.46,387.23l-.33.15-.49.19c-.19.06-.4.11-.64.16a3.65,3.65,0,0,1-.74.08,2.9,2.9,0,0,1-.79-.11,1.9,1.9,0,0,1-.66-.35,1.73,1.73,0,0,1-.61-1.41v-7h-1.35v-1h1.35v-3.29h1.27V378h2.24v1h-2.24v6.62a1,1,0,0,0,.38.8,1.38,1.38,0,0,0,.8.25,2.33,2.33,0,0,0,1-.18,3.66,3.66,0,0,0,.52-.25Z"/><path class="cls-6" d="M534.75,374.05H536v1.86h-1.27Zm0,3.9H536v9.75h-1.27Z"/><path class="cls-6" d="M543.21,387.23l-.33.15-.5.19a6.39,6.39,0,0,1-.63.16,3.67,3.67,0,0,1-.75.08,3,3,0,0,1-.79-.11,1.86,1.86,0,0,1-.65-.35,1.66,1.66,0,0,1-.45-.59,1.9,1.9,0,0,1-.17-.82v-7h-1.35v-1h1.35v-3.29h1.27V378h2.25v1h-2.25v6.62a1,1,0,0,0,.39.8,1.35,1.35,0,0,0,.79.25,2.33,2.33,0,0,0,1-.18,4.83,4.83,0,0,0,.53-.25Z"/><path class="cls-6" d="M544.5,374.05h1.27v1.86H544.5Zm0,3.9h1.27v9.75H544.5Z"/><path class="cls-6" d="M552.43,387.88a4.63,4.63,0,0,1-1.95-.4,4.74,4.74,0,0,1-2.52-2.7,5.25,5.25,0,0,1-.36-1.93,5.09,5.09,0,0,1,2.9-4.66,4.75,4.75,0,0,1,3.86,0,4.94,4.94,0,0,1,1.54,1.11,5,5,0,0,1,1,1.61,5.45,5.45,0,0,1,0,3.87,4.88,4.88,0,0,1-1,1.61,4.69,4.69,0,0,1-1.53,1.09,4.63,4.63,0,0,1-2,.4m-3.54-5a4.25,4.25,0,0,0,.28,1.53,4.3,4.3,0,0,0,.76,1.23,3.52,3.52,0,0,0,1.12.83,3.23,3.23,0,0,0,1.38.3,3,3,0,0,0,1.37-.31,3.75,3.75,0,0,0,1.14-.84,4.22,4.22,0,0,0,.76-1.24,4.32,4.32,0,0,0,0-3.06,4,4,0,0,0-.76-1.25,3.59,3.59,0,0,0-1.14-.84,3.18,3.18,0,0,0-2.74,0,3.4,3.4,0,0,0-1.12.85,4.1,4.1,0,0,0-.77,1.26,4.34,4.34,0,0,0-.28,1.54"/><path class="cls-6" d="M567.3,387.7H566v-5.45a4.67,4.67,0,0,0-.52-2.52,1.74,1.74,0,0,0-1.58-.79,3.21,3.21,0,0,0-1.12.21,3.68,3.68,0,0,0-1,.58,4.51,4.51,0,0,0-.85.89,3.37,3.37,0,0,0-.54,1.11v6H559.1V378h1.16v2.21a4.81,4.81,0,0,1,4.14-2.38,2.82,2.82,0,0,1,1.36.3,2.43,2.43,0,0,1,.9.84,4,4,0,0,1,.49,1.33,9.4,9.4,0,0,1,.15,1.74Z"/><path class="cls-6" d="M353.15,387.7h-1.27v-5.45a4.78,4.78,0,0,0-.51-2.52,1.74,1.74,0,0,0-1.58-.79,3.22,3.22,0,0,0-1.13.21,3.5,3.5,0,0,0-1,.58,4.28,4.28,0,0,0-.86.89,3.81,3.81,0,0,0-.54,1.11v6H345V378h1.16v2.21a4.55,4.55,0,0,1,1.71-1.72,4.69,4.69,0,0,1,2.43-.66,2.85,2.85,0,0,1,1.36.3,2.51,2.51,0,0,1,.9.84,4,4,0,0,1,.48,1.33,9.4,9.4,0,0,1,.15,1.74Z"/><path class="cls-7" d="M176.3,377.88c2.33-8.52,4.29-17.12,6-25.78.75-3.93,1.36-7.88,2-11.83.47-3,.77-6,1.31-9,.6-3.32.84-6.68,1.22-10s.6-6.48.79-9.73c.3-5.14.63-10.27.74-15.41.23-10.69.1-21.38-.66-32.05l-.81-11.45a2.28,2.28,0,0,0-.59-1.39c-.45,5.21-.64,10.4-1.29,15.56-.43,3.45-.71,6.93-1.25,10.37-.75,4.79-1.64,9.57-2.54,14.34a258.83,258.83,0,0,1-6.6,26.49A268,268,0,0,1,165,344.66,263.76,263.76,0,0,1,149.46,376a244.73,244.73,0,0,1-20,29,197.88,197.88,0,0,1-17.79,19.68A235.18,235.18,0,0,1,88.22,445c-5,3.66-10,7.23-15.28,10.54A252.61,252.61,0,0,1,49,468.86c-5.43,2.64-10.94,5.11-16.57,7.38-2.64,1.06-5.27,2.12-7.95,3.1-1.4.5-1.57,1-.66,1.84,2.59,2.47,5.19,4.94,7.86,7.34,4.86,4.37,9.84,8.64,15.13,12.59,2.37,1.76,4.72,3.57,7.16,5.25,4,2.76,8,5.51,12.14,8.08a244.36,244.36,0,0,0,24.52,13.34c.79.38,1.21.33,1.74-.25,2.83-3.12,5.74-6.19,8.53-9.35a336.39,336.39,0,0,0,22.79-28.94,363.78,363.78,0,0,0,23.4-37.95q2.85-5.3,5.24-10.77c1.2-2.74,2.74-5.36,4-8.06,3.31-6.92,6.21-14,9-21.09A348.09,348.09,0,0,0,176.3,377.88Z"/><path class="cls-7" d="M194.46,454.85c0-3.2-.21-5,.11-11.1.25-4.71-.11-9.43.06-14.16.22-6.33-.2-12.65-.1-19,.16-10.22-.3-20.44-.32-30.67-.05-19.07-1-38.13-1-57.21,0-6-.18-12.06-.37-18.1-3.06,54.48-16.4,107.18-33.75,150.54,8.82,10.93,17.59,23,21.34,29.69,4.42,7.85,11.74,16.43,13.39,15.84.8-.28,1-4.37.87-5.74C194.67,494.66,194.24,482.89,194.46,454.85Z"/><path class="cls-7" d="M144.6,184.48a147.63,147.63,0,0,1,9.28,26.22c1.76,6.67,3.14,13.41,4.24,20.2.68,4.24,1.28,8.5,1.71,12.77.3,3,.55,5.94.84,8.91.59,5.89.87,11.79,1,17.69.19,8.42.34,16.85-.24,25.28-.19,2.68-.2,5.36-.35,8.05-.31,5.3-.73,10.59-1.22,15.88-.34,3.68-.76,7.35-1.16,11-.66,6.05-1.5,12.07-2.37,18.1a10.2,10.2,0,0,0-.4,3.15c.19-.14.32-.2.37-.29.26-.41.5-.84.73-1.27a182.87,182.87,0,0,0,13.35-33.66A243,243,0,0,0,179,272c.74-7.2,1-14.43,1.17-21.65.12-5.38-.21-10.76-.57-16.13a163.66,163.66,0,0,0-2-17.08A114.49,114.49,0,0,0,171.19,194a61,61,0,0,0-4.43-9,3.26,3.26,0,0,0-2.7-1.74c-4.61-.53-9.19-1.29-13.78-2-1.88-.27-3.75-.57-5.64-.78-1.13-.13-1.42.22-1.09,1.24A20.52,20.52,0,0,0,144.6,184.48Z"/><path class="cls-7" d="M182.38,221.31c-.24-3.26-.54-6.5-.8-9.75-.21-2.6-.41-5.2-.62-7.8-.35-4.11-.72-8.23-1.06-12.34-.22-2.77-.42-5.55-.62-8.32a2,2,0,0,0-.39-1.11q-4.54-6.24-9.1-12.48c-.14-.19-.28-.49-.74-.25,7.38,17.94,10.55,36.75,13.34,55.56C182.39,223.65,182.46,222.47,182.38,221.31Z"/><path class="cls-7" d="M197.14,174.27h.26v-8.87q0-7.18,0-14.39h-.7c-.12.75-.27,1.49-.37,2.25-.71,5.31-1.39,10.63-2.14,15.95-.11.72-.14,1.14.81,1.12.38,0,.81,0,.88.47a.51.51,0,0,1-.12.44s0,0,0,0a1.87,1.87,0,0,1-.7.31c-.35.12-.73.22-1.09.33a10.28,10.28,0,0,0-4.38,2.93h0a9.57,9.57,0,0,0-1.5,2.21h0a8.26,8.26,0,0,0-.69,5.54,7,7,0,0,1,.17,1.28c0,.49,0,1,0,1.51-.11,6.78-.13,13.54-.45,20.31-.18,3.91-.15,7.82-.28,11.73-.32,9.34-.4,18.69-.57,28,0,.29-.15.65.34,1a52.37,52.37,0,0,0,1.58-7.78c.21-2.15.25-4.31.37-6.47,0-.45-.08-.94.48-1.24.72-.4.63-1.08.71-1.72a1,1,0,0,0-.8-1.21c-.32-.11-.32-.5-.27-.79a21.6,21.6,0,0,0,.25-3.31c0-.37.11-.7.59-.79,1-.18,1-.92,1.05-1.63s0-1.43-1.09-1.46a.45.45,0,0,1-.42-.51,25.4,25.4,0,0,1,.29-2.61c.12-.62.86-.34,1.29-.54.88-.4.61-1.19.69-1.85s-.29-.85-.9-.86c-.85,0-1.1-.47-1.06-1.15,0-.53,0-1.05,0-1.58,0-.71.24-1.12,1.1-1.06s1.37-.11,1.54-.95c.25-1.31.07-1.63-1.49-1.87-1.36-.22-.71-1.15-.82-1.8s.19-1,1-1a4.82,4.82,0,0,0,.76,0c1-.1,1.28-.59,1.34-1.75,0-.91-.52-1-1.33-1.05-1.8-.08-1.7-.12-1.53-1.74.13-1.29,1-1.13,1.89-1.11s1.29-.33,1.33-1.14-.31-1.21-1.23-1.18c-.31,0-.62,0-.95,0-.53,0-.82-.26-.83-.76a72.32,72.32,0,0,1,.43-7.38l.16.08.07,0c1.41.62,2.47,1.51,3.91,1.65.41,0,.86-.14,1.15.23a2.08,2.08,0,0,0,.35-.57,1.94,1.94,0,0,1-.35.57l0,0,0,0v.18c0,.59,0,1.17,0,1.75q0,48.39,0,96.79v25.05q0,58.44,0,116.88v30.78q0,11.38,0,22.77v14c0,.56,0,1.11,0,1.67a.54.54,0,0,0,.57.53c.42,0,.73-.12.76-.54s0-1,0-1.49V483.89q0-11.62,0-23.26,0-62.26,0-124.53v-5.33l-.05-37.84h0a2.28,2.28,0,0,1,0,.26v-4.66l0-98v-3h-.27a6.6,6.6,0,1,1,0-13.2Zm-.21,13.45a6.91,6.91,0,0,0-.75,1.9A6.91,6.91,0,0,1,196.93,187.72Z"/><polygon class="cls-8" points="390.72 430.9 390.72 430.9 390.27 430.9 390.27 430.9 390.27 430.93 390.72 430.93 390.72 430.93 390.72 430.9 390.72 430.9"/><path class="cls-8" d="M196.16,338.63h0v.19h0l.22-.19h-.22Z"/><path class="cls-8" d="M196.6,291.43l.44,0V290h-.13Z"/><polygon class="cls-8" points="193.31 361.73 193.31 361.73 193 361.73 193 361.77 193.31 361.77 193.31 361.74 193.31 361.73 193.31 361.73"/><path class="cls-8" d="M212.08,250.46c.16,7.22.43,14.45,1.16,21.65a242.38,242.38,0,0,0,8.58,44.58,182.17,182.17,0,0,0,13.35,33.66c.23.43.47.85.72,1.27a2.51,2.51,0,0,0,.37.3,10.23,10.23,0,0,0-.39-3.16c-.87-6-1.72-12.05-2.37-18.1-.4-3.67-.83-7.35-1.17-11-.48-5.29-.91-10.58-1.21-15.88-.16-2.69-.17-5.37-.35-8.05-.58-8.43-.44-16.86-.24-25.28.13-5.9.41-11.8,1-17.69.3-3,.55-5.94.85-8.91.35-3.49.81-7,1.35-10.46a4,4,0,0,1-2.48,2.21,4.9,4.9,0,0,1-5.32-1.86c-.15-.21-.3-.43-.53-.78-.8.64-2.2,2-2.2,2s-10.4,9.79-11.13,10.57C212,247.06,212.05,248.92,212.08,250.46Z"/><path class="cls-8" d="M212.15,241s8.21-7.65,11-9.91l2.29-1.84c.23.35.37.56.53.77a4.89,4.89,0,0,0,5.31,1.86A4,4,0,0,0,234,227.5a5.05,5.05,0,0,0-3.89-4.13,4.31,4.31,0,0,0-4.8,2.26,10.37,10.37,0,0,1-1.28,1.68l-11.77,10.48Zm17.29-15.49a2.48,2.48,0,0,1,2.31,2.24,2,2,0,0,1-2.06,2.08,2.35,2.35,0,0,1-2.35-2.15A2,2,0,0,1,229.44,225.51Z"/><path class="cls-8" d="M220.58,195.93a3.94,3.94,0,0,0,2.69,3.94c.74.3.76.75.76,1.34,0,2.89-.05,5.07-.09,6.55a5,5,0,0,1-1.84,3.76l-1.35,1.11a7.18,7.18,0,0,0-2.62,5.09l-.47,7.06-4.56,4-.36,4.14,14.5-11.83,5.69-4.42a6.83,6.83,0,0,0,2.22-3l2.21-6.14h0c1.17-3.33,2.34-6.65,3.55-10a10.58,10.58,0,0,1,1.87-3.12c2.16-2.58,2.65-6.14,1-8.61a6.69,6.69,0,0,0-8-2.51,7.91,7.91,0,0,0-5.16,7.3,6.24,6.24,0,0,0,5.29,6.23c.39.07.78.12,1.4.19-.56,1.62-1.09,3.14-1.63,4.67s-1.14,3.26-1.71,4.87l1.54.44-1.54-.44-2,4.79a6.66,6.66,0,0,1-1.79,2.48l-9.76,8.54.15-2.79a7.17,7.17,0,0,1,3-5.47l.62-.45a5,5,0,0,0,2.1-4c0-2,.06-4.92.05-8.28a1.43,1.43,0,0,1,1-1.58,3.84,3.84,0,0,0,2.48-3.7,4.08,4.08,0,0,0-2.49-3.72c-.41-.21-.85-.36-1.27-.55l-2.05.05c-.21.11-.42.23-.64.33A4.17,4.17,0,0,0,220.58,195.93Zm13.89-4.66a3.72,3.72,0,0,1,2.09-4.54,3.26,3.26,0,0,1,4.43,1.65,3.72,3.72,0,0,1-2.2,4.65A3.1,3.1,0,0,1,234.47,191.27ZM225.42,194a2.17,2.17,0,0,1,2.06,2.24,2.23,2.23,0,0,1-2.57,1.88,2.06,2.06,0,0,1-2-2.28A2.2,2.2,0,0,1,225.42,194Z"/><path class="cls-8" d="M223.7,169.6c-.47-.24-.61.06-.75.25q-4.56,6.22-9.1,12.48a2,2,0,0,0-.38,1.11c-.21,2.77-.4,5.54-.64,8.32-.33,4.11-.7,8.22-1.05,12.34-.21,2.6-.41,5.2-.62,7.8-.26,3.25-.56,6.49-.8,9.74-.08,1.17,0,2.35,0,3.52C213.14,206.34,216.32,187.54,223.7,169.6Z"/><path class="cls-8" d="M220.72,228l0,0-.11-.12h0c0,.1-.07.19-.11.29h0s0,.05,0,.08Z"/><path class="cls-8" d="M205.72,402.64a12.15,12.15,0,0,1-6.62,1.92h-.3v7.81H199a20.33,20.33,0,0,0,17.43-9.74,21.38,21.38,0,0,0,1.67-3.31l.27-.71c.14-.42.28-.84.39-1.27a20.4,20.4,0,0,0,.82-5.45A21.12,21.12,0,0,0,212,375.18l-.62-.49-.8-.59c-.5-.34-1-.66-1.53-1a19.75,19.75,0,0,0-9.43-2.6h-.83V379h.54a12.38,12.38,0,0,1,8.61,3.72l.29.3c.19.22.38.43.55.66s.36.45.52.69.33.48.48.74l.22.38A13.11,13.11,0,0,1,205.72,402.64Z"/><path class="cls-8" d="M212.16,360.4l0,0-1.56,1.69L209,363.84l-.6.65-.16.16-.06,0-.84-.28a26.7,26.7,0,0,0-3.45-.84l-1.45-5.68c-.73-.07-1.45-.12-2.18-.14H198.8v11.95h.85a20.79,20.79,0,0,1,9.17,2.36c.5.25,1,.54,1.45.83.27.17.54.34.81.53s.38.27.57.41a20.37,20.37,0,0,1,2.13,1.81h0c.44.41.86.86,1.26,1.31l.33.38c.38.45.74.92,1.07,1.4l.34.48.51.81.3.51a.06.06,0,0,1,0,0c.11.18.21.36.31.55l.3.58c.09.2.19.39.27.59a12.67,12.67,0,0,1,.55,1.32,3.53,3.53,0,0,1,.15.39c.09.26.18.51.26.78s.09.28.13.41a3.86,3.86,0,0,1,.12.42c.06.21.12.42.16.63s.11.42.15.64.09.42.13.64c.11.65.2,1.31.26,2,0,.21,0,.43.05.66,0,.6.05,1.2,0,1.81,0,.25,0,.49,0,.74V393c0,.23,0,.48-.07.71s-.05.56-.09.84c0,0,0,0,0,0,0,.24-.07.49-.11.73,0,.08,0,.17-.05.27a.13.13,0,0,0,0,.06l-.09.46h0a.52.52,0,0,0,0,.11c-.09.4-.19.79-.3,1.18s-.23.82-.37,1.23a.65.65,0,0,0,0,.13l-.13.36c-.11.27-.21.55-.32.82s-.19.43-.28.65a22.54,22.54,0,0,1-1.77,3.19,21.51,21.51,0,0,1-8.61,7.5,20.67,20.67,0,0,1-9.14,2h-.22v8.83a33.57,33.57,0,0,1,2.83,3c.23,0,.47,0,.7-.06l.79-.08.11-.48-.06-.07.22-1-.22,1,.06.07,1.22-5.21a26.2,26.2,0,0,0,4.27-1.22h0l.06,0,2.15,2.22,1.84,1.91,0,0a32.42,32.42,0,0,0,6.15-3.72l-.1-.33h0l-.29-1-.2-.7-1-3.62c.6-.54,1.17-1.09,1.71-1.67s1-1,1.42-1.58a0,0,0,0,1,0,0l1.62.46.49.14,3,.84.33.1.06,0a34,34,0,0,0,3.52-6.39l-4.16-4a27.7,27.7,0,0,0,1.11-4.46l5.53-1.49a34.66,34.66,0,0,0-.07-7.34l-5.55-1.35a31.24,31.24,0,0,0-1.21-4.45l4.06-4.1a32.23,32.23,0,0,0-1.66-3.26,34.11,34.11,0,0,0-2-3.06l-.07,0-5.41,1.66,0,0a29.21,29.21,0,0,0-3.19-3.2l1.51-5.65A32.49,32.49,0,0,0,212.16,360.4ZM208.7,418h0l-1.07.36Zm9.87-.88.11.41-.11-.41-.21-.69-1-3.62h0l1,3.62Z"/><path class="cls-8" d="M222.53,460.3l9.41-1.85a55,55,0,0,0,.62-12l-9.15-2.79a47,47,0,0,0-1.59-7.38l7.24-6.27a57,57,0,0,0-2.45-5.5,53.15,53.15,0,0,0-3-5.19l-6.12,3.5L213.75,425l0,0-.05,0L210,421.22l0,0a23.37,23.37,0,0,1-3.93,1.13L205,427s0,0,.05.07a35.56,35.56,0,0,1-5.26,50.3c-.45.38-.91.73-1.39,1.07l0,0v22.23h0l1.38-.58c.92-.41,1.84-.84,2.74-1.3,1.8-.93,3.51-1.94,5.19-3l-2.17-9.33a47.4,47.4,0,0,0,5.61-5l9.07,3.12a55.41,55.41,0,0,0,6.51-10.06l-6.54-7A46.9,46.9,0,0,0,222.53,460.3Z"/><path class="cls-8" d="M368.59,478.86c-2.68-1-5.32-2-8-3.1-5.63-2.26-11.13-4.74-16.56-7.37q-6.78-3.3-13.29-7c-3.6-2-7.13-4.14-10.61-6.33-5.27-3.3-10.31-6.88-15.29-10.53a227.09,227.09,0,0,1-22.18-19l-1.32-1.25a202.7,202.7,0,0,1-17.79-19.68,245.92,245.92,0,0,1-19.95-29,265.28,265.28,0,0,1-15.58-31.37q-2.49-6-4.67-12l.08-.07c-.36-1-.71-1.93-1-2.9l-.08.07c-1.37-3.89-2.63-7.82-3.82-11.77q-1.51-5-2.87-10.13l.06-.06c-.34-1.27-.67-2.54-1-3.81l-.06.06c-1-4.16-2-8.34-2.75-12.55-.56-3-1.13-6-1.65-9v-.71c-.31-1.8-.62-3.6-.9-5.41-.54-3.44-.81-6.91-1.25-10.36-.1-.82-.21-1.62-.31-2.41-.54-4-1.11-7.56-1.5-11.71,0-.18,0-.36,0-.55l0,.89v.36c-.15,5.92-.74,10.31-.82,11.45-.28,4.07-.49,8.17-.61,12.26l-.06,2.45c0,.82,0,1.64-.05,2.46s0,1.64,0,2.46,0,1.86,0,2.8v.7c0,1.44,0,2.88,0,4.31v.15c0,1.48,0,3,.07,4.46.11,5.14.44,10.27.74,15.4.19,3.25.42,6.5.79,9.74.34,3,.58,6,1.06,9,.05.33.11.65.17,1,.13.74.25,1.49.36,2.24.33,2.24.59,4.5.94,6.74.63,3.95,1.24,7.91,2,11.84.4,2.09.82,4.19,1.27,6.28l0-.05.08-.09.19-.2,1.86-2a38.73,38.73,0,0,1,7.31,4.22l-1.78,6.63a33.74,33.74,0,0,1,3.77,3.79l6.44-2a37.4,37.4,0,0,1,2.32,3.59,35.92,35.92,0,0,1,1.94,3.81l-4.76,4.83a34.68,34.68,0,0,1,1.42,5.21l6.51,1.6a40,40,0,0,1,.09,8.61l-6.49,1.74a34.76,34.76,0,0,1-1.3,5.23l3.52,4.73-3.92,9.12,5.54,11.76-6.46,9.34,10.24,10.78c-.13,1.92-.18,3.87-.12,5.83,0,.68.06,1.34.1,2l-11.61,6.4a72.82,72.82,0,0,0,4.48,17l13.27-.17a61,61,0,0,0,3.89,6.82l-6.83,11.33a74.19,74.19,0,0,0,12.41,12.51l11.4-6.77a63.29,63.29,0,0,0,6.78,4l-.27,13.22a72.87,72.87,0,0,0,17,4.62l2.88-5.15.15-.28.76-1.34.09-.17.16-.29,2.42-4.32c1.93.13,3.87.18,5.83.12.69,0,1.36-.06,2-.1l5.15,9.36.12.21.2.36.12.22.7,1.28.1.18A73.48,73.48,0,0,0,327,521l-.07-5.44,0-1.55v-1.22l-.07-5a59.59,59.59,0,0,0,6.82-3.91l3.47,2.09.47.28.35.22.22.13,1.17.71,5.66,3.42a73.94,73.94,0,0,0,12.51-12.43l-2.09-3.5-.57-1c2.23-1.88,4.41-3.8,6.58-5.74,2.66-2.4,5.26-4.87,7.85-7.35.44-.42.63-.74.54-1a.57.57,0,0,0-.12-.21A2.58,2.58,0,0,0,368.59,478.86ZM206.17,296.07V296c0-.17.09-.15.18-.13Zm0-2v0c0-.18.09-.16.18-.13Zm75,132.54a231,231,0,0,0,23.13,19.89c5,3.66,10,7.24,15.3,10.55,3.48,2.18,7,4.3,10.6,6.32a32.15,32.15,0,1,1-49-36.76Zm16,71.87c-1.15-.07-2.29-.17-3.41-.33l-1.07-.16h-.05l-.9-.16h0l-1.06-.2-.31-.06-.69-.16-.92-.22-.91-.24c-.34-.09-.67-.18-1-.29a1.28,1.28,0,0,1-.23-.06l-.82-.25-.84-.29-.68-.24h0c-.27-.09-.54-.2-.81-.3L282.3,495l-.8-.34-.56-.25-.73-.34-1-.5h0l-1-.52-1-.55c-.65-.37-1.3-.76-1.93-1.17l-1-.62-.9-.62-.06-.05c-.3-.21-.59-.42-.87-.64s-.53-.39-.79-.6a1.46,1.46,0,0,1-.21-.16c-.26-.21-.52-.41-.77-.63s-.58-.47-.86-.73-.55-.47-.81-.72l0,0,0,0-.77-.73-.71-.69-.1-.1-.29-.3c-.17-.16-.33-.33-.49-.5l-.68-.73c-.27-.31-.55-.62-.82-.94l-.05-.06c-.3-.34-.6-.7-.88-1.06a.41.41,0,0,1-.1-.13c-.31-.38-.61-.76-.9-1.15s-.61-.83-.9-1.25-.58-.85-.86-1.28-.48-.74-.72-1.13l-.15-.26c-.25-.41-.49-.82-.72-1.25s-.46-.83-.68-1.26c-.07-.12-.14-.25-.2-.38-.17-.35-.34-.69-.5-1a.16.16,0,0,1,0-.07l0,0-.39-.84c0-.06-.05-.12-.08-.19l-.24-.56c-.13-.3-.26-.6-.37-.91-.07-.15-.13-.31-.19-.47-.19-.46-.36-.92-.52-1.4-.07-.21-.16-.43-.22-.65,0,0,0-.07,0-.11l0-.1c-.09-.27-.18-.53-.25-.8l0,0c0-.15-.09-.31-.14-.47a.31.31,0,0,0,0-.08c-.1-.33-.19-.67-.28-1s-.16-.59-.23-.89c-.14-.55-.27-1.12-.39-1.68l0-.14c0-.19-.07-.38-.1-.56s-.12-.6-.17-.9-.13-.84-.19-1.26-.09-.61-.13-.92-.05-.5-.08-.74l-.06-.63c0-.13,0-.26,0-.38,0-.37-.07-.76-.09-1.13s0-.87-.05-1.29,0-.86,0-1.29c0-.91,0-1.82.08-2.74a45.66,45.66,0,0,1,17.49-33.31c.57.64,1.16,1.29,1.76,1.93q.21.24.45.48a42.53,42.53,0,1,0,65.61,49.2l.59.3c.78.4,1.56.79,2.35,1.17A45.87,45.87,0,0,1,297.1,498.44Z"/><path class="cls-8" d="M202.21,188.67h0l.19,1.78.08-.06.12,1.94c.1,1.34.18,2.67.27,4,0,.84.11,1.67.16,2.51s.12,1.74.17,2.62l.21,3.08.15,2.3.24,3.52c0,.54.06,1.07.1,1.61q.48,7.19.95,14.37c0,.51.07,1,.1,1.55l0,.46.16,2.44.36,8.51.07,1c.07,1.15.57,3.63.57,3.63s.32,1.35.46,2l0-17.7,0-2.23-.27-6.86-.87-22V197l-.06-1.45-.1-2.72,0-1.27v0a10.3,10.3,0,0,1-.06-1.24v0a1.93,1.93,0,0,1,0-.24v-.08c0-.17,0-.32,0-.5s0-.57.07-.85a13.64,13.64,0,0,1,.43-2.31l0,0,0-.05h0a0,0,0,0,0,0,0v0a.17.17,0,0,1,0-.05.35.35,0,0,1,0-.11s0,0,0,0a5.7,5.7,0,0,1,.33-1h0c0-.16.08-.34.12-.52s.07-.45.1-.68h0l.06-.43c0-.17,0-.33,0-.5a1.61,1.61,0,0,0,0-.31c0-.16,0-.32,0-.48h0a11.52,11.52,0,0,0,.09-1.17c0-.16,0-.32,0-.48a9.32,9.32,0,0,0-.43-2.54,9.52,9.52,0,0,0-7.87-6.59,7.62,7.62,0,0,0-1.08-.08c-.2,0-.41,0-.61,0s-.25,0-.38,0l-.39,0-.44,0a9.45,9.45,0,0,0-6,3.25h0l-.24.29a4.59,4.59,0,0,0-.33.44c-.09.11-.17.24-.25.36l-.23.38-.19.35a5.24,5.24,0,0,0-.23.48.8.8,0,0,0-.08.16h0c-.07.17-.13.34-.19.52l-.11.3s0,.08,0,.12-.08.27-.11.41a5,5,0,0,0-.12.53c0,.08,0,.15,0,.23a2.9,2.9,0,0,0-.06.41c0,.21-.05.44-.06.65s0,.26,0,.38a1.09,1.09,0,0,0,0,.18.66.66,0,0,0,0,.14V181c0,.11,0,.22,0,.33a1.77,1.77,0,0,0,0,.33c0,.18,0,.34.06.5s.06.33.09.49a3.41,3.41,0,0,0,.1.46,5.28,5.28,0,0,0,.24.77v0c0,.09.07.19.11.28a5.09,5.09,0,0,0,.22.54l.2.4c.09.17.19.35.3.52s.21.32.31.47a1.5,1.5,0,0,0,.18.24.75.75,0,0,0,.07.12l.1.11,0,0,0,0s0,0,0,0l.15.16a.91.91,0,0,0,.13.16,7.43,7.43,0,0,0,1.09,1.08l.26.2a9.37,9.37,0,0,0,4.8,1.93l.37,0c.21,0,.42,0,.64,0l.47,0,.28,0,.44,0h.05a9.46,9.46,0,0,0,4.44-1.52Zm-2.39-2a6,6,0,0,1-3,.79h-.19l-.22,0a6.27,6.27,0,0,1-1-.2,6.49,6.49,0,0,1-.75-.23l-.19-.1a6.53,6.53,0,0,1-2.54-2.05,4.25,4.25,0,0,1-.31-.43,6.43,6.43,0,0,1-.42-.77c-.05-.12-.11-.24-.15-.36a5.2,5.2,0,0,1-.21-.67,6,6,0,0,1-.14-.61,6.39,6.39,0,0,1-.09-.89,2.11,2.11,0,0,1,0-.26,6.58,6.58,0,0,1,6.59-6.56h.27v0a6.48,6.48,0,0,1,5.71,6.57A6.66,6.66,0,0,1,199.82,186.63Z"/></g></g></svg>