<svg width="28" height="28" viewBox="0 0 28 28" fill="none" xmlns="http://www.w3.org/2000/svg">
<path d="M9.95802 7.1919C9.95802 7.52015 9.86068 7.84103 9.67831 8.11396C9.49595 8.38689 9.23674 8.59962 8.93347 8.72524C8.63021 8.85085 8.29651 8.88372 7.97456 8.81968C7.65262 8.75564 7.35689 8.59757 7.12478 8.36546C6.89267 8.13336 6.73461 7.83763 6.67057 7.51569C6.60653 7.19374 6.6394 6.86004 6.76501 6.55677C6.89063 6.25351 7.10335 5.9943 7.37628 5.81194C7.64922 5.62957 7.9701 5.53223 8.29835 5.53223C8.73852 5.53223 9.16066 5.70709 9.47191 6.01834C9.78316 6.32959 9.95802 6.75173 9.95802 7.1919V7.1919ZM27.6612 2.21289V25.4483C27.6605 26.035 27.4271 26.5974 27.0123 27.0123C26.5974 27.4271 26.035 27.6605 25.4483 27.6612H2.21289C1.6262 27.6605 1.06372 27.4271 0.648869 27.0123C0.234014 26.5974 0.000658919 26.035 0 25.4483V2.21289C0.000658919 1.6262 0.234014 1.06372 0.648869 0.648869C1.06372 0.234014 1.6262 0.000658919 2.21289 0H25.4483C26.035 0.000658919 26.5974 0.234014 27.0123 0.648869C27.4271 1.06372 27.6605 1.6262 27.6612 2.21289V2.21289ZM25.4496 25.4483L25.4483 2.21289H2.21289V25.4483H25.4483H25.4496ZM8.29835 10.5112C8.0049 10.5112 7.72347 10.6278 7.51597 10.8353C7.30847 11.0428 7.1919 11.3242 7.1919 11.6177V20.4693C7.1919 20.7627 7.30847 21.0441 7.51597 21.2516C7.72347 21.4591 8.0049 21.5757 8.29835 21.5757C8.5918 21.5757 8.87322 21.4591 9.08072 21.2516C9.28822 21.0441 9.40479 20.7627 9.40479 20.4693V11.6177C9.40479 11.3242 9.28822 11.0428 9.08072 10.8353C8.87322 10.6278 8.5918 10.5112 8.29835 10.5112ZM16.5967 10.5112C15.5998 10.5102 14.6258 10.8101 13.8022 11.3718C13.7419 11.1065 13.586 10.8728 13.3642 10.7152C13.1424 10.5577 12.8703 10.4875 12.6 10.5179C12.3297 10.5483 12.08 10.6773 11.8988 10.8802C11.7176 11.0831 11.6175 11.3456 11.6177 11.6177V20.4693C11.6177 20.7627 11.7343 21.0441 11.9418 21.2516C12.1493 21.4591 12.4307 21.5757 12.7241 21.5757C13.0176 21.5757 13.299 21.4591 13.5065 21.2516C13.714 21.0441 13.8306 20.7627 13.8306 20.4693V15.4902C13.8306 14.7566 14.122 14.0531 14.6408 13.5343C15.1595 13.0156 15.8631 12.7241 16.5967 12.7241C17.3303 12.7241 18.0339 13.0156 18.5526 13.5343C19.0714 14.0531 19.3628 14.7566 19.3628 15.4902V20.4693C19.3628 20.7627 19.4794 21.0441 19.6869 21.2516C19.8944 21.4591 20.1758 21.5757 20.4693 21.5757C20.7627 21.5757 21.0441 21.4591 21.2516 21.2516C21.4591 21.0441 21.5757 20.7627 21.5757 20.4693V15.4902C21.5742 14.1702 21.0492 12.9046 20.1158 11.9712C19.1823 11.0377 17.9168 10.5127 16.5967 10.5112V10.5112Z" fill="#135278"/>
</svg>
