<svg width="28" height="28" viewBox="0 0 28 28" fill="none" xmlns="http://www.w3.org/2000/svg">
<path d="M10.2163 7.53077C10.2163 7.85902 10.119 8.1799 9.93661 8.45283C9.75425 8.72576 9.49504 8.93849 9.19178 9.0641C8.88851 9.18972 8.55481 9.22259 8.23286 9.15855C7.91092 9.09451 7.61519 8.93644 7.38308 8.70433C7.15098 8.47222 6.99291 8.1765 6.92887 7.85455C6.86483 7.53261 6.8977 7.1989 7.02331 6.89564C7.14893 6.59237 7.36165 6.33317 7.63459 6.1508C7.90752 5.96844 8.2284 5.8711 8.55665 5.8711C8.99682 5.8711 9.41896 6.04596 9.73021 6.3572C10.0415 6.66845 10.2163 7.0906 10.2163 7.53077V7.53077ZM27.9195 2.55176V25.7871C27.9188 26.3738 27.6854 26.9363 27.2706 27.3512C26.8557 27.766 26.2933 27.9994 25.7066 28H2.47119C1.8845 27.9994 1.32203 27.766 0.90717 27.3512C0.492315 26.9363 0.25896 26.3738 0.258301 25.7871V2.55176C0.25896 1.96507 0.492315 1.40259 0.90717 0.987736C1.32203 0.572881 1.8845 0.339526 2.47119 0.338867H25.7066C26.2933 0.339526 26.8557 0.572881 27.2706 0.987736C27.6854 1.40259 27.9188 1.96507 27.9195 2.55176V2.55176ZM25.7079 25.7871L25.7066 2.55176H2.47119V25.7871H25.7066H25.7079ZM8.55665 10.8501C8.2632 10.8501 7.98177 10.9667 7.77427 11.1742C7.56677 11.3817 7.4502 11.6631 7.4502 11.9566V20.8081C7.4502 21.1016 7.56677 21.383 7.77427 21.5905C7.98177 21.798 8.2632 21.9146 8.55665 21.9146C8.8501 21.9146 9.13152 21.798 9.33902 21.5905C9.54652 21.383 9.66309 21.1016 9.66309 20.8081V11.9566C9.66309 11.6631 9.54652 11.3817 9.33902 11.1742C9.13152 10.9667 8.8501 10.8501 8.55665 10.8501ZM16.855 10.8501C15.8581 10.849 14.8841 11.149 14.0605 11.7106C14.0002 11.4454 13.8443 11.2116 13.6225 11.0541C13.4007 10.8966 13.1286 10.8263 12.8583 10.8568C12.588 10.8872 12.3383 11.0162 12.1571 11.2191C11.9759 11.422 11.8758 11.6845 11.876 11.9566V20.8081C11.876 21.1016 11.9926 21.383 12.2001 21.5905C12.4076 21.798 12.689 21.9146 12.9824 21.9146C13.2759 21.9146 13.5573 21.798 13.7648 21.5905C13.9723 21.383 14.0889 21.1016 14.0889 20.8081V15.8291C14.0889 15.0955 14.3803 14.3919 14.8991 13.8732C15.4178 13.3544 16.1214 13.063 16.855 13.063C17.5886 13.063 18.2922 13.3544 18.8109 13.8732C19.3297 14.3919 19.6211 15.0955 19.6211 15.8291V20.8081C19.6211 21.1016 19.7377 21.383 19.9452 21.5905C20.1527 21.798 20.4341 21.9146 20.7276 21.9146C21.021 21.9146 21.3024 21.798 21.5099 21.5905C21.7174 21.383 21.834 21.1016 21.834 20.8081V15.8291C21.8325 14.509 21.3075 13.2435 20.3741 12.31C19.4406 11.3766 18.1751 10.8516 16.855 10.8501V10.8501Z" fill="#D5E7F2" fill-opacity="0.75"/>
</svg>
