<svg width="907" height="66" viewBox="0 0 907 66" fill="none" xmlns="http://www.w3.org/2000/svg">
<path d="M34.6469 6.7H35.6469V5.7H34.6469V6.7ZM34.6469 16.06V17.06H35.6469V16.06H34.6469ZM23.3669 16.06V15.06H22.3669V16.06H23.3669ZM23.3669 49V50H24.3669V49H23.3669ZM11.6069 49H10.6069V50H11.6069V49ZM11.6069 16.06H12.6069V15.06H11.6069V16.06ZM0.446941 16.06H-0.553059V17.06H0.446941V16.06ZM0.446941 6.7V5.7H-0.553059V6.7H0.446941ZM33.6469 6.7V16.06H35.6469V6.7H33.6469ZM34.6469 15.06H23.3669V17.06H34.6469V15.06ZM22.3669 16.06V49H24.3669V16.06H22.3669ZM23.3669 48H11.6069V50H23.3669V48ZM12.6069 49V16.06H10.6069V49H12.6069ZM11.6069 15.06H0.446941V17.06H11.6069V15.06ZM1.44694 16.06V6.7H-0.553059V16.06H1.44694ZM0.446941 7.7H34.6469V5.7H0.446941V7.7ZM84.3579 18.94L83.6003 19.5927L83.6056 19.5989L83.6111 19.6051L84.3579 18.94ZM87.7779 49V50H88.7779V49H87.7779ZM76.0179 49H75.0179V50H76.0179V49ZM74.5179 26.44L73.7719 27.106L73.778 27.1128L73.7841 27.1194L74.5179 26.44ZM66.3579 26.44L67.0916 27.1194L67.0978 27.1128L67.1038 27.106L66.3579 26.44ZM64.8579 49V50H65.8579V49H64.8579ZM53.0979 49H52.0979V50H53.0979V49ZM53.0979 4.6V3.6H52.0979V4.6H53.0979ZM64.8579 4.6H65.8579V3.6H64.8579V4.6ZM64.8579 20.14H63.8579V23.3724L65.6832 20.7047L64.8579 20.14ZM69.0579 16.48L69.5211 17.3663L69.5285 17.3623L69.0579 16.48ZM75.2379 16.04C78.8256 16.04 81.5742 17.241 83.6003 19.5927L85.1155 18.2873C82.6616 15.439 79.3301 14.04 75.2379 14.04V16.04ZM83.6111 19.6051C85.686 21.9348 86.7779 25.1537 86.7779 29.38H88.7779C88.7779 24.8063 87.5898 21.0652 85.1046 18.2749L83.6111 19.6051ZM86.7779 29.38V49H88.7779V29.38H86.7779ZM87.7779 48H76.0179V50H87.7779V48ZM77.0179 49V30.94H75.0179V49H77.0179ZM77.0179 30.94C77.0179 28.847 76.4698 27.0762 75.2516 25.7606L73.7841 27.1194C74.566 27.9638 75.0179 29.193 75.0179 30.94H77.0179ZM75.2638 25.774C74.0503 24.4149 72.425 23.76 70.4979 23.76V25.76C71.9307 25.76 72.9854 26.2251 73.7719 27.106L75.2638 25.774ZM70.4979 23.76C68.5069 23.76 66.8348 24.4044 65.6119 25.774L67.1038 27.106C67.8809 26.2356 68.9689 25.76 70.4979 25.76V23.76ZM65.6241 25.7606C64.406 27.0762 63.8579 28.847 63.8579 30.94H65.8579C65.8579 29.193 66.3098 27.9638 67.0916 27.1194L65.6241 25.7606ZM63.8579 30.94V49H65.8579V30.94H63.8579ZM64.8579 48H53.0979V50H64.8579V48ZM54.0979 49V4.6H52.0979V49H54.0979ZM53.0979 5.6H64.8579V3.6H53.0979V5.6ZM63.8579 4.6V20.14H65.8579V4.6H63.8579ZM65.6832 20.7047C66.6235 19.3304 67.8947 18.2164 69.5211 17.3662L68.5946 15.5938C66.7011 16.5836 65.1722 17.9096 64.0326 19.5753L65.6832 20.7047ZM69.5285 17.3623C71.1648 16.4896 73.0592 16.04 75.2379 16.04V14.04C72.7765 14.04 70.551 14.5504 68.5873 15.5976L69.5285 17.3623ZM140.311 34.54V35.54H141.189L141.302 34.6693L140.311 34.54ZM118.051 34.54V33.54H116.983L117.053 34.6051L118.051 34.54ZM119.551 38.68L118.828 39.3712L118.843 39.3873L118.859 39.4026L119.551 38.68ZM127.231 37.36V36.36H126.6L126.328 36.9293L127.231 37.36ZM139.771 37.36L140.746 37.5787L141.02 36.36H139.771V37.36ZM136.711 43.6L135.94 42.9631L135.938 42.9649L136.711 43.6ZM131.071 47.86L131.486 48.7698L131.486 48.7698L131.071 47.86ZM114.631 47.32L114.151 48.1974L114.157 48.2005L114.631 47.32ZM108.571 41.32L107.696 41.8045L107.702 41.8147L108.571 41.32ZM108.571 23.02L109.442 23.5103L109.445 23.5045L108.571 23.02ZM114.571 17.02L114.097 16.1395L114.091 16.1426L114.571 17.02ZM132.331 16.96L132.8 16.0769L132.8 16.0769L132.331 16.96ZM138.331 22.84L137.459 23.3303L137.462 23.3361L138.331 22.84ZM128.491 28.84V29.84H129.491V28.84H128.491ZM127.051 25.48L126.392 26.2326L126.401 26.2405L126.411 26.2482L127.051 25.48ZM119.911 25.42L120.548 26.191L120.557 26.1829L120.567 26.1746L119.911 25.42ZM118.111 28.84L117.127 28.6588L116.91 29.84H118.111V28.84ZM139.491 31.78C139.491 32.6564 139.434 33.5332 139.319 34.4107L141.302 34.6693C141.428 33.7068 141.491 32.7436 141.491 31.78H139.491ZM140.311 33.54H118.051V35.54H140.311V33.54ZM117.053 34.6051C117.181 36.5769 117.726 38.2194 118.828 39.3712L120.273 37.9888C119.615 37.3006 119.16 36.1831 119.049 34.4749L117.053 34.6051ZM118.859 39.4026C119.985 40.4791 121.401 41 123.031 41V39C121.86 39 120.957 38.6409 120.242 37.9574L118.859 39.4026ZM123.031 41C124.164 41 125.196 40.7441 126.083 40.1866C126.97 39.629 127.646 38.8105 128.133 37.7907L126.328 36.9293C125.975 37.6695 125.531 38.171 125.019 38.4934C124.505 38.8159 123.858 39 123.031 39V41ZM127.231 38.36H139.771V36.36H127.231V38.36ZM138.795 37.1413C138.309 39.3071 137.36 41.244 135.94 42.9631L137.482 44.2369C139.101 42.276 140.192 40.0529 140.746 37.5787L138.795 37.1413ZM135.938 42.9649C134.562 44.6386 132.808 45.9685 130.656 46.9502L131.486 48.7698C133.894 47.6715 135.899 46.1614 137.483 44.2351L135.938 42.9649ZM130.656 46.9502C128.519 47.925 126.142 48.42 123.511 48.42V50.42C126.399 50.42 129.063 49.875 131.486 48.7698L130.656 46.9502ZM123.511 48.42C120.335 48.42 117.542 47.7517 115.105 46.4395L114.157 48.2005C116.92 49.6883 120.046 50.42 123.511 50.42V48.42ZM115.111 46.4426C112.718 45.134 110.83 43.2684 109.44 40.8253L107.702 41.8147C109.271 44.5716 111.424 46.706 114.151 48.1974L115.111 46.4426ZM109.445 40.8355C108.102 38.4089 107.411 35.5218 107.411 32.14H105.411C105.411 35.7982 106.16 39.0311 107.696 41.8045L109.445 40.8355ZM107.411 32.14C107.411 28.7577 108.102 25.8935 109.442 23.5103L107.699 22.5297C106.16 25.2665 105.411 28.4823 105.411 32.14H107.411ZM109.445 23.5045C110.795 21.067 112.66 19.2047 115.051 17.8974L114.091 16.1426C111.361 17.6353 109.226 19.773 107.696 22.5355L109.445 23.5045ZM115.045 17.9005C117.48 16.5892 120.293 15.92 123.511 15.92V13.92C120.008 13.92 116.861 14.6508 114.097 16.1395L115.045 17.9005ZM123.511 15.92C126.691 15.92 129.466 16.5704 131.862 17.8431L132.8 16.0769C130.076 14.6296 126.97 13.92 123.511 13.92V15.92ZM131.862 17.8431C134.25 19.1121 136.112 20.9347 137.459 23.3303L139.202 22.3497C137.67 19.6253 135.531 17.5279 132.8 16.0769L131.862 17.8431ZM137.462 23.3361C138.801 25.6792 139.491 28.4817 139.491 31.78H141.491C141.491 28.1983 140.74 25.0408 139.199 22.3439L137.462 23.3361ZM129.491 28.84C129.491 27.1537 128.915 25.7319 127.691 24.7118L126.411 26.2482C127.106 26.8281 127.491 27.6463 127.491 28.84H129.491ZM127.709 24.7274C126.543 23.7072 125.1 23.22 123.451 23.22V25.22C124.682 25.22 125.638 25.5728 126.392 26.2326L127.709 24.7274ZM123.451 23.22C121.816 23.22 120.388 23.6794 119.255 24.6654L120.567 26.1746C121.273 25.5606 122.206 25.22 123.451 25.22V23.22ZM119.274 24.649C118.125 25.5983 117.437 26.9771 117.127 28.6588L119.094 29.0212C119.344 27.6629 119.857 26.7617 120.548 26.191L119.274 24.649ZM118.111 29.84H128.491V27.84H118.111V29.84ZM211.748 42.1L212.697 41.7863L212.47 41.1H211.748V42.1ZM196.748 42.1V41.1H196.025L195.798 41.7863L196.748 42.1ZM194.468 49V50H195.19L195.417 49.3137L194.468 49ZM182.108 49L181.168 48.6575L180.679 50H182.108V49ZM197.528 6.7V5.7H196.828L196.588 6.35751L197.528 6.7ZM211.088 6.7L212.028 6.35868L211.788 5.7H211.088V6.7ZM226.448 49V50H227.875L227.388 48.6587L226.448 49ZM214.028 49L213.078 49.3137L213.305 50H214.028V49ZM208.808 33.1V34.1H210.195L209.756 32.7838L208.808 33.1ZM204.248 19.42L205.196 19.1038L204.241 16.2389L203.298 19.1075L204.248 19.42ZM199.748 33.1L198.798 32.7875L198.366 34.1H199.748V33.1ZM211.748 41.1H196.748V43.1H211.748V41.1ZM195.798 41.7863L193.518 48.6863L195.417 49.3137L197.697 42.4137L195.798 41.7863ZM194.468 48H182.108V50H194.468V48ZM183.047 49.3425L198.467 7.04249L196.588 6.35751L181.168 48.6575L183.047 49.3425ZM197.528 7.7H211.088V5.7H197.528V7.7ZM210.148 7.04131L225.508 49.3413L227.388 48.6587L212.028 6.35868L210.148 7.04131ZM226.448 48H214.028V50H226.448V48ZM214.977 48.6863L212.697 41.7863L210.798 42.4137L213.078 49.3137L214.977 48.6863ZM209.756 32.7838L205.196 19.1038L203.299 19.7362L207.859 33.4162L209.756 32.7838ZM203.298 19.1075L198.798 32.7875L200.698 33.4125L205.198 19.7325L203.298 19.1075ZM199.748 34.1H208.808V32.1H199.748V34.1ZM256.141 4.6H257.141V3.6H256.141V4.6ZM256.141 49V50H257.141V49H256.141ZM244.381 49H243.381V50H244.381V49ZM244.381 4.6V3.6H243.381V4.6H244.381ZM255.141 4.6V49H257.141V4.6H255.141ZM256.141 48H244.381V50H256.141V48ZM245.381 49V4.6H243.381V49H245.381ZM244.381 5.6H256.141V3.6H244.381V5.6ZM295.298 16.3L294.817 17.1771L294.826 17.1818L295.298 16.3ZM299.258 20.02L298.396 20.528L300.258 23.6842V20.02H299.258ZM299.258 15.34V14.34H298.258V15.34H299.258ZM311.018 15.34H312.018V14.34H311.018V15.34ZM309.218 57.16L308.315 56.7301L308.312 56.7356L309.218 57.16ZM303.578 63.28L303.067 62.4201L303.061 62.4237L303.578 63.28ZM281.498 61.9L282.114 61.1123L282.114 61.1123L281.498 61.9ZM276.158 51.94V50.94H275.047L275.163 52.0442L276.158 51.94ZM287.738 51.94L288.714 51.7231L288.54 50.94H287.738V51.94ZM289.538 54.46L289.008 55.308L289.008 55.308L289.538 54.46ZM299.258 44.32H300.258V40.6558L298.396 43.812L299.258 44.32ZM295.298 48.04L294.826 47.1582L294.817 47.1629L295.298 48.04ZM282.038 47.32L281.494 48.1592L281.501 48.1637L282.038 47.32ZM276.878 41.32L275.973 41.7451L275.977 41.7534L275.981 41.7617L276.878 41.32ZM276.878 23.02L275.98 22.5783L275.975 22.5895L276.878 23.02ZM282.038 17.02L281.501 16.1763L281.494 16.1808L282.038 17.02ZM297.458 27.04L296.727 27.7232L296.733 27.7293L296.739 27.7354L297.458 27.04ZM288.758 27.04L289.477 27.735L289.482 27.7291L289.488 27.7232L288.758 27.04ZM288.758 37.3L288.017 37.9715L288.022 37.9774L288.027 37.9832L288.758 37.3ZM297.458 37.3L296.739 36.6046L296.733 36.6107L296.727 36.6168L297.458 37.3ZM289.358 15.92C291.502 15.92 293.31 16.3518 294.817 17.1771L295.778 15.4229C293.925 14.4082 291.774 13.92 289.358 13.92V15.92ZM294.826 17.1818C296.397 18.0222 297.577 19.1381 298.396 20.528L300.119 19.512C299.099 17.7819 297.638 16.4178 295.769 15.4182L294.826 17.1818ZM300.258 20.02V15.34H298.258V20.02H300.258ZM299.258 16.34H311.018V14.34H299.258V16.34ZM310.018 15.34V48.64H312.018V15.34H310.018ZM310.018 48.64C310.018 51.671 309.443 54.3611 308.315 56.7301L310.121 57.5899C311.393 54.9189 312.018 51.929 312.018 48.64H310.018ZM308.312 56.7356C307.202 59.1042 305.465 60.9967 303.067 62.4201L304.088 64.1399C306.811 62.5233 308.834 60.3358 310.123 57.5844L308.312 56.7356ZM303.061 62.4237C300.739 63.8243 297.732 64.56 293.978 64.56V66.56C297.983 66.56 301.376 65.7757 304.094 64.1363L303.061 62.4237ZM293.978 64.56C288.931 64.56 285.01 63.377 282.114 61.1123L280.882 62.6877C284.226 65.303 288.625 66.56 293.978 66.56V64.56ZM282.114 61.1123C279.223 58.8513 277.566 55.786 277.152 51.8358L275.163 52.0442C275.629 56.494 277.533 60.0687 280.882 62.6877L282.114 61.1123ZM276.158 52.94H287.738V50.94H276.158V52.94ZM286.762 52.1569C287.061 53.5053 287.826 54.5697 289.008 55.308L290.068 53.612C289.329 53.1503 288.894 52.5347 288.714 51.7231L286.762 52.1569ZM289.008 55.308C290.172 56.0359 291.613 56.36 293.258 56.36V54.36C291.863 54.36 290.823 54.0841 290.068 53.612L289.008 55.308ZM293.258 56.36C295.443 56.36 297.256 55.7429 298.504 54.346C299.732 52.9707 300.258 51.008 300.258 48.64H298.258C298.258 50.752 297.784 52.1493 297.012 53.014C296.259 53.8571 295.072 54.36 293.258 54.36V56.36ZM300.258 48.64V44.32H298.258V48.64H300.258ZM298.396 43.812C297.577 45.2019 296.397 46.3178 294.826 47.1582L295.769 48.9218C297.638 47.9222 299.099 46.5581 300.119 44.828L298.396 43.812ZM294.817 47.1629C293.31 47.9882 291.502 48.42 289.358 48.42V50.42C291.774 50.42 293.925 49.9318 295.778 48.9171L294.817 47.1629ZM289.358 48.42C286.862 48.42 284.61 47.7713 282.575 46.4763L281.501 48.1637C283.866 49.6687 286.493 50.42 289.358 50.42V48.42ZM282.582 46.4808C280.591 45.1909 278.985 43.3372 277.775 40.8783L275.981 41.7617C277.33 44.5028 279.164 46.6491 281.494 48.1592L282.582 46.4808ZM277.783 40.8949C276.616 38.4111 276.018 35.5011 276.018 32.14H274.018C274.018 35.7389 274.659 38.9489 275.973 41.7451L277.783 40.8949ZM276.018 32.14C276.018 28.7784 276.616 25.891 277.78 23.4505L275.975 22.5895C274.659 25.349 274.018 28.5416 274.018 32.14H276.018ZM277.775 23.4617C278.985 21.0028 280.591 19.1491 282.582 17.8591L281.494 16.1808C279.164 17.6909 277.33 19.8372 275.981 22.5783L277.775 23.4617ZM282.575 17.8637C284.61 16.5687 286.862 15.92 289.358 15.92V13.92C286.493 13.92 283.866 14.6713 281.501 16.1763L282.575 17.8637ZM300.258 32.14C300.258 29.7891 299.6 27.8152 298.176 26.3446L296.739 27.7354C297.716 28.7448 298.258 30.1709 298.258 32.14H300.258ZM298.188 26.3568C296.836 24.9118 295.13 24.18 293.138 24.18V26.18C294.585 26.18 295.759 26.6882 296.727 27.7232L298.188 26.3568ZM293.138 24.18C291.112 24.18 289.384 24.9065 288.027 26.3568L289.488 27.7232C290.451 26.6935 291.643 26.18 293.138 26.18V24.18ZM288.039 26.345C286.647 27.7848 286.018 29.7658 286.018 32.14H288.018C288.018 30.1142 288.549 28.6952 289.477 27.735L288.039 26.345ZM286.018 32.14C286.018 34.4835 286.651 36.4647 288.017 37.9715L289.499 36.6285C288.544 35.5753 288.018 34.1165 288.018 32.14H286.018ZM288.027 37.9832C289.384 39.4335 291.112 40.16 293.138 40.16V38.16C291.643 38.16 290.451 37.6465 289.488 36.6168L288.027 37.9832ZM293.138 40.16C295.13 40.16 296.836 39.4282 298.188 37.9832L296.727 36.6168C295.759 37.6518 294.585 38.16 293.138 38.16V40.16ZM298.176 37.9954C299.603 36.5215 300.258 34.525 300.258 32.14H298.258C298.258 34.155 297.713 35.5985 296.739 36.6046L298.176 37.9954ZM363.799 34.54V35.54H364.677L364.791 34.6693L363.799 34.54ZM341.539 34.54V33.54H340.472L340.541 34.6051L341.539 34.54ZM343.039 38.68L342.316 39.3712L342.332 39.3873L342.348 39.4026L343.039 38.68ZM350.719 37.36V36.36H350.088L349.817 36.9293L350.719 37.36ZM363.259 37.36L364.235 37.5787L364.508 36.36H363.259V37.36ZM360.199 43.6L359.428 42.9631L359.427 42.9649L360.199 43.6ZM354.559 47.86L354.974 48.7698L354.974 48.7698L354.559 47.86ZM338.119 47.32L337.639 48.1974L337.645 48.2005L338.119 47.32ZM332.059 41.32L331.184 41.8045L331.19 41.8147L332.059 41.32ZM332.059 23.02L332.931 23.5103L332.934 23.5045L332.059 23.02ZM338.059 17.02L337.585 16.1395L337.579 16.1426L338.059 17.02ZM355.819 16.96L356.288 16.0769L356.288 16.0769L355.819 16.96ZM361.819 22.84L360.947 23.3303L360.951 23.3361L361.819 22.84ZM351.979 28.84V29.84H352.979V28.84H351.979ZM350.539 25.48L349.88 26.2326L349.89 26.2405L349.899 26.2482L350.539 25.48ZM343.399 25.42L344.036 26.191L344.046 26.1829L344.055 26.1746L343.399 25.42ZM341.599 28.84L340.616 28.6588L340.398 29.84H341.599V28.84ZM362.979 31.78C362.979 32.6564 362.922 33.5332 362.807 34.4107L364.791 34.6693C364.916 33.7068 364.979 32.7436 364.979 31.78H362.979ZM363.799 33.54H341.539V35.54H363.799V33.54ZM340.541 34.6051C340.67 36.5769 341.215 38.2194 342.316 39.3712L343.762 37.9888C343.103 37.3006 342.648 36.1831 342.537 34.4749L340.541 34.6051ZM342.348 39.4026C343.473 40.4791 344.889 41 346.519 41V39C345.349 39 344.445 38.6409 343.73 37.9574L342.348 39.4026ZM346.519 41C347.652 41 348.684 40.7441 349.571 40.1866C350.458 39.629 351.135 38.8105 351.621 37.7907L349.817 36.9293C349.463 37.6695 349.02 38.171 348.507 38.4934C347.994 38.8159 347.346 39 346.519 39V41ZM350.719 38.36H363.259V36.36H350.719V38.36ZM362.283 37.1413C361.798 39.3071 360.848 41.244 359.428 42.9631L360.97 44.2369C362.59 42.276 363.68 40.0529 364.235 37.5787L362.283 37.1413ZM359.427 42.9649C358.05 44.6386 356.296 45.9685 354.144 46.9502L354.974 48.7698C357.382 47.6715 359.388 46.1614 360.971 44.2351L359.427 42.9649ZM354.144 46.9502C352.007 47.925 349.63 48.42 346.999 48.42V50.42C349.888 50.42 352.551 49.875 354.974 48.7698L354.144 46.9502ZM346.999 48.42C343.824 48.42 341.03 47.7517 338.593 46.4395L337.645 48.2005C340.408 49.6883 343.534 50.42 346.999 50.42V48.42ZM338.599 46.4426C336.206 45.134 334.319 43.2684 332.928 40.8253L331.19 41.8147C332.759 44.5716 334.912 46.706 337.639 48.1974L338.599 46.4426ZM332.934 40.8355C331.59 38.4089 330.899 35.5218 330.899 32.14H328.899C328.899 35.7982 329.648 39.0311 331.184 41.8045L332.934 40.8355ZM330.899 32.14C330.899 28.7577 331.59 25.8935 332.931 23.5103L331.187 22.5297C329.648 25.2665 328.899 28.4823 328.899 32.14H330.899ZM332.934 23.5045C334.284 21.067 336.148 19.2047 338.539 17.8974L337.579 16.1426C334.85 17.6353 332.714 19.773 331.184 22.5355L332.934 23.5045ZM338.533 17.9005C340.968 16.5892 343.781 15.92 346.999 15.92V13.92C343.497 13.92 340.35 14.6508 337.585 16.1395L338.533 17.9005ZM346.999 15.92C350.179 15.92 352.954 16.5704 355.35 17.8431L356.288 16.0769C353.564 14.6296 350.459 13.92 346.999 13.92V15.92ZM355.35 17.8431C357.739 19.1121 359.6 20.9347 360.947 23.3303L362.691 22.3497C361.158 19.6253 359.019 17.5279 356.288 16.0769L355.35 17.8431ZM360.951 23.3361C362.29 25.6792 362.979 28.4817 362.979 31.78H364.979C364.979 28.1983 364.228 25.0408 362.687 22.3439L360.951 23.3361ZM352.979 28.84C352.979 27.1537 352.403 25.7319 351.179 24.7118L349.899 26.2482C350.595 26.8281 350.979 27.6463 350.979 28.84H352.979ZM351.197 24.7274C350.032 23.7072 348.588 23.22 346.939 23.22V25.22C348.17 25.22 349.126 25.5728 349.88 26.2326L351.197 24.7274ZM346.939 23.22C345.304 23.22 343.877 23.6794 342.743 24.6654L344.055 26.1746C344.761 25.5606 345.694 25.22 346.939 25.22V23.22ZM342.762 24.649C341.613 25.5983 340.925 26.9771 340.616 28.6588L342.582 29.0212C342.833 27.6629 343.345 26.7617 344.036 26.191L342.762 24.649ZM341.599 29.84H351.979V27.84H341.599V29.84ZM394.652 21.28H393.652V24.4997L395.476 21.8465L394.652 21.28ZM399.452 16.72L399.963 17.5791L399.452 16.72ZM405.512 15.04H406.512V14.04H405.512V15.04ZM405.512 27.58V28.58H406.512V27.58H405.512ZM396.512 29.08L397.139 29.8584L397.139 29.8584L396.512 29.08ZM394.652 49V50H395.652V49H394.652ZM382.892 49H381.892V50H382.892V49ZM382.892 15.34V14.34H381.892V15.34H382.892ZM394.652 15.34H395.652V14.34H394.652V15.34ZM395.476 21.8465C396.719 20.0376 398.215 18.6205 399.963 17.5791L398.94 15.8609C396.928 17.0595 395.224 18.6824 393.828 20.7135L395.476 21.8465ZM399.963 17.5791C401.691 16.55 403.534 16.04 405.512 16.04V14.04C403.169 14.04 400.972 14.65 398.94 15.8609L399.963 17.5791ZM404.512 15.04V27.58H406.512V15.04H404.512ZM405.512 26.58H402.212V28.58H405.512V26.58ZM402.212 26.58C399.552 26.58 397.381 27.0939 395.884 28.3016L397.139 29.8584C398.122 29.0661 399.751 28.58 402.212 28.58V26.58ZM395.884 28.3016C394.302 29.5771 393.652 31.6873 393.652 34.3H395.652C395.652 31.9527 396.241 30.5829 397.139 29.8584L395.884 28.3016ZM393.652 34.3V49H395.652V34.3H393.652ZM394.652 48H382.892V50H394.652V48ZM383.892 49V15.34H381.892V49H383.892ZM382.892 16.34H394.652V14.34H382.892V16.34ZM393.652 15.34V21.28H395.652V15.34H393.652ZM424.728 10.54L424.044 11.2703L424.057 11.2816L424.069 11.2926L424.728 10.54ZM424.728 1.84L424.056 1.09901L424.05 1.10432L424.044 1.10973L424.728 1.84ZM434.688 1.84L434.004 2.57027L434.01 2.57567L434.016 2.58099L434.688 1.84ZM434.688 10.54L435.358 11.2821L435.359 11.281L434.688 10.54ZM435.588 15.34H436.588V14.34H435.588V15.34ZM435.588 49V50H436.588V49H435.588ZM423.828 49H422.828V50H423.828V49ZM423.828 15.34V14.34H422.828V15.34H423.828ZM429.768 11.22C427.873 11.22 426.445 10.7144 425.386 9.78742L424.069 11.2926C425.57 12.6056 427.502 13.22 429.768 13.22V11.22ZM425.411 9.80973C424.376 8.84158 423.868 7.66729 423.868 6.22H421.868C421.868 8.21271 422.599 9.91842 424.044 11.2703L425.411 9.80973ZM423.868 6.22C423.868 4.72537 424.381 3.53353 425.411 2.57027L424.044 1.10973C422.594 2.46647 421.868 4.19462 421.868 6.22H423.868ZM425.399 2.58099C426.459 1.62034 427.882 1.1 429.768 1.1V-0.900003C427.493 -0.900003 425.556 -0.260349 424.056 1.09901L425.399 2.58099ZM429.768 1.1C431.608 1.1 432.986 1.61731 434.004 2.57027L435.371 1.10973C433.909 -0.25732 432.007 -0.900003 429.768 -0.900003V1.1ZM434.016 2.58099C435.082 3.54739 435.608 4.73622 435.608 6.22H437.608C437.608 4.18378 436.853 2.45261 435.359 1.09901L434.016 2.58099ZM435.608 6.22C435.608 7.65632 435.088 8.82764 434.016 9.79901L435.359 11.281C436.847 9.93236 437.608 8.22368 437.608 6.22H435.608ZM434.017 9.7979C433 10.7171 431.617 11.22 429.768 11.22V13.22C431.998 13.22 433.896 12.6029 435.358 11.2821L434.017 9.7979ZM434.588 15.34V49H436.588V15.34H434.588ZM435.588 48H423.828V50H435.588V48ZM424.828 49V15.34H422.828V49H424.828ZM423.828 16.34H435.588V14.34H423.828V16.34ZM456.325 23.02L455.427 22.5783L455.422 22.5895L456.325 23.02ZM461.485 17.02L460.948 16.1763L460.941 16.1808L461.485 17.02ZM474.805 16.3L474.324 17.1771L474.324 17.1771L474.805 16.3ZM478.705 20.02L477.843 20.528L479.705 23.6842V20.02H478.705ZM478.705 15.34V14.34H477.705V15.34H478.705ZM490.465 15.34H491.465V14.34H490.465V15.34ZM490.465 49V50H491.465V49H490.465ZM478.705 49H477.705V50H478.705V49ZM478.705 44.32H479.705V40.6558L477.843 43.812L478.705 44.32ZM474.745 48.04L474.273 47.1582L474.264 47.1629L474.745 48.04ZM461.485 47.32L460.941 48.1592L460.948 48.1637L461.485 47.32ZM456.325 41.32L455.419 41.7451L455.423 41.7534L455.427 41.7617L456.325 41.32ZM476.905 27.04L476.174 27.7232L476.18 27.7293L476.186 27.7354L476.905 27.04ZM468.205 27.04L468.924 27.735L468.929 27.7291L468.935 27.7232L468.205 27.04ZM468.205 37.3L467.464 37.9715L467.469 37.9774L467.474 37.9832L468.205 37.3ZM476.905 37.3L476.186 36.6046L476.18 36.6107L476.174 36.6168L476.905 37.3ZM455.465 32.14C455.465 28.7784 456.063 25.891 457.227 23.4505L455.422 22.5895C454.106 25.349 453.465 28.5416 453.465 32.14H455.465ZM457.222 23.4617C458.432 21.0028 460.038 19.1491 462.028 17.8591L460.941 16.1808C458.611 17.6909 456.777 19.8372 455.427 22.5783L457.222 23.4617ZM462.021 17.8637C464.056 16.5687 466.309 15.92 468.805 15.92V13.92C465.94 13.92 463.313 14.6713 460.948 16.1763L462.021 17.8637ZM468.805 15.92C470.992 15.92 472.82 16.3531 474.324 17.1771L475.285 15.4229C473.43 14.4069 471.257 13.92 468.805 13.92V15.92ZM474.324 17.1771C475.856 18.0158 477.02 19.1321 477.843 20.528L479.566 19.512C478.549 17.7879 477.113 16.4242 475.285 15.4229L474.324 17.1771ZM479.705 20.02V15.34H477.705V20.02H479.705ZM478.705 16.34H490.465V14.34H478.705V16.34ZM489.465 15.34V49H491.465V15.34H489.465ZM490.465 48H478.705V50H490.465V48ZM479.705 49V44.32H477.705V49H479.705ZM477.843 43.812C477.024 45.2019 475.844 46.3178 474.273 47.1582L475.216 48.9218C477.085 47.9222 478.546 46.5581 479.566 44.828L477.843 43.812ZM474.264 47.1629C472.757 47.9882 470.949 48.42 468.805 48.42V50.42C471.221 50.42 473.372 49.9318 475.225 48.9171L474.264 47.1629ZM468.805 48.42C466.309 48.42 464.056 47.7713 462.021 46.4763L460.948 48.1637C463.313 49.6687 465.94 50.42 468.805 50.42V48.42ZM462.028 46.4808C460.038 45.1909 458.432 43.3372 457.222 40.8783L455.427 41.7617C456.777 44.5028 458.611 46.6491 460.941 48.1592L462.028 46.4808ZM457.23 40.8949C456.063 38.4111 455.465 35.5011 455.465 32.14H453.465C453.465 35.7389 454.106 38.9489 455.419 41.7451L457.23 40.8949ZM479.705 32.14C479.705 29.7891 479.046 27.8152 477.623 26.3446L476.186 27.7354C477.163 28.7448 477.705 30.1709 477.705 32.14H479.705ZM477.635 26.3568C476.283 24.9118 474.577 24.18 472.585 24.18V26.18C474.032 26.18 475.206 26.6882 476.174 27.7232L477.635 26.3568ZM472.585 24.18C470.559 24.18 468.831 24.9065 467.474 26.3568L468.935 27.7232C469.898 26.6935 471.09 26.18 472.585 26.18V24.18ZM467.486 26.345C466.094 27.7848 465.465 29.7658 465.465 32.14H467.465C467.465 30.1142 467.995 28.6952 468.924 27.735L467.486 26.345ZM465.465 32.14C465.465 34.4835 466.098 36.4647 467.464 37.9715L468.946 36.6285C467.991 35.5753 467.465 34.1165 467.465 32.14H465.465ZM467.474 37.9832C468.831 39.4335 470.559 40.16 472.585 40.16V38.16C471.09 38.16 469.898 37.6465 468.935 36.6168L467.474 37.9832ZM472.585 40.16C474.577 40.16 476.283 39.4282 477.635 37.9832L476.174 36.6168C475.206 37.6518 474.032 38.16 472.585 38.16V40.16ZM477.623 37.9954C479.05 36.5215 479.705 34.525 479.705 32.14H477.705C477.705 34.155 477.16 35.5985 476.186 36.6046L477.623 37.9954ZM542.526 18.94L541.774 19.5993L541.779 19.6051L542.526 18.94ZM545.946 49V50H546.946V49H545.946ZM534.186 49H533.186V50H534.186V49ZM532.686 26.44L531.94 27.106L531.946 27.1128L531.952 27.1194L532.686 26.44ZM524.526 26.44L525.26 27.1194L525.266 27.1128L525.272 27.106L524.526 26.44ZM523.026 49V50H524.026V49H523.026ZM511.266 49H510.266V50H511.266V49ZM511.266 15.34V14.34H510.266V15.34H511.266ZM523.026 15.34H524.026V14.34H523.026V15.34ZM523.026 20.14H522.026V23.3724L523.851 20.7047L523.026 20.14ZM527.226 16.48L527.689 17.3662L527.697 17.3621L527.705 17.3579L527.226 16.48ZM533.286 16.04C536.917 16.04 539.708 17.2437 541.774 19.5993L543.278 18.2807C540.783 15.4363 537.415 14.04 533.286 14.04V16.04ZM541.779 19.6051C543.854 21.9348 544.946 25.1537 544.946 29.38H546.946C546.946 24.8063 545.758 21.0652 543.273 18.2749L541.779 19.6051ZM544.946 29.38V49H546.946V29.38H544.946ZM545.946 48H534.186V50H545.946V48ZM535.186 49V30.94H533.186V49H535.186ZM535.186 30.94C535.186 28.847 534.638 27.0762 533.42 25.7606L531.952 27.1194C532.734 27.9638 533.186 29.193 533.186 30.94H535.186ZM533.432 25.774C532.218 24.4149 530.593 23.76 528.666 23.76V25.76C530.099 25.76 531.153 26.2251 531.94 27.106L533.432 25.774ZM528.666 23.76C526.675 23.76 525.003 24.4044 523.78 25.774L525.272 27.106C526.049 26.2356 527.137 25.76 528.666 25.76V23.76ZM523.792 25.7606C522.574 27.0762 522.026 28.847 522.026 30.94H524.026C524.026 29.193 524.478 27.9638 525.26 27.1194L523.792 25.7606ZM522.026 30.94V49H524.026V30.94H522.026ZM523.026 48H511.266V50H523.026V48ZM512.266 49V15.34H510.266V49H512.266ZM511.266 16.34H523.026V14.34H511.266V16.34ZM522.026 15.34V20.14H524.026V15.34H522.026ZM523.851 20.7047C524.791 19.3304 526.063 18.2164 527.689 17.3662L526.763 15.5938C524.869 16.5836 523.34 17.9096 522.201 19.5753L523.851 20.7047ZM527.705 17.3579C529.299 16.4885 531.15 16.04 533.286 16.04V14.04C530.862 14.04 528.673 14.5515 526.747 15.6021L527.705 17.3579ZM613.503 49L612.623 49.4741L612.906 50H613.503V49ZM605.103 33.4L605.983 32.9259L605.7 32.4H605.103V33.4ZM603.843 33.4V32.4H602.843V33.4H603.843ZM603.843 49V50H604.843V49H603.843ZM592.083 49H591.083V50H592.083V49ZM592.083 6.7V5.7H591.083V6.7H592.083ZM619.263 8.5L618.81 9.39147L618.822 9.39745L619.263 8.5ZM624.603 13.36L623.737 13.8597L623.741 13.867L624.603 13.36ZM624.003 27.88L623.194 27.2918L623.192 27.2945L624.003 27.88ZM617.103 32.5L616.813 31.5429L615.606 31.9083L616.237 33.0005L617.103 32.5ZM626.643 49V50H628.376L627.509 48.4995L626.643 49ZM603.843 25.36H602.843V26.36H603.843V25.36ZM613.263 24.22L612.574 23.495L612.574 23.495L613.263 24.22ZM613.203 17.74L612.496 18.4471L612.514 18.4648L612.532 18.4815L613.203 17.74ZM603.843 16.54V15.54H602.843V16.54H603.843ZM614.383 48.5259L605.983 32.9259L604.223 33.8741L612.623 49.4741L614.383 48.5259ZM605.103 32.4H603.843V34.4H605.103V32.4ZM602.843 33.4V49H604.843V33.4H602.843ZM603.843 48H592.083V50H603.843V48ZM593.083 49V6.7H591.083V49H593.083ZM592.083 7.7H610.623V5.7H592.083V7.7ZM610.623 7.7C613.909 7.7 616.624 8.28015 618.81 9.39138L619.716 7.60861C617.182 6.31985 614.137 5.7 610.623 5.7V7.7ZM618.822 9.39745C621.022 10.4786 622.645 11.9678 623.737 13.8597L625.469 12.8603C624.161 10.5922 622.224 8.84136 619.704 7.60255L618.822 9.39745ZM623.741 13.867C624.843 15.7409 625.403 17.8632 625.403 20.26H627.403C627.403 17.5368 626.763 15.0591 625.465 12.853L623.741 13.867ZM625.403 20.26C625.403 22.9418 624.662 25.2731 623.194 27.2918L624.812 28.4682C626.544 26.0869 627.403 23.3382 627.403 20.26H625.403ZM623.192 27.2945C621.784 29.2446 619.685 30.6737 616.813 31.5429L617.393 33.4571C620.601 32.4863 623.102 30.8354 624.814 28.4655L623.192 27.2945ZM616.237 33.0005L625.777 49.5005L627.509 48.4995L617.969 31.9995L616.237 33.0005ZM626.643 48H613.503V50H626.643V48ZM603.843 26.36H609.663V24.36H603.843V26.36ZM609.663 26.36C611.405 26.36 612.897 25.9472 613.952 24.945L612.574 23.495C612.029 24.0128 611.121 24.36 609.663 24.36V26.36ZM613.952 24.945C615.006 23.9433 615.463 22.5464 615.463 20.92H613.463C613.463 22.1736 613.12 22.9767 612.574 23.495L613.952 24.945ZM615.463 20.92C615.463 19.3391 614.965 17.9858 613.874 16.9985L612.532 18.4815C613.121 19.0142 613.463 19.7809 613.463 20.92H615.463ZM613.91 17.0329C612.861 15.9835 611.386 15.54 609.663 15.54V17.54C611.06 17.54 611.945 17.8965 612.496 18.4471L613.91 17.0329ZM609.663 15.54H603.843V17.54H609.663V15.54ZM602.843 16.54V25.36H604.843V16.54H602.843ZM677.831 34.54V35.54H678.709L678.823 34.6693L677.831 34.54ZM655.571 34.54V33.54H654.504L654.573 34.6051L655.571 34.54ZM657.071 38.68L656.348 39.3712L656.364 39.3873L656.38 39.4026L657.071 38.68ZM664.751 37.36V36.36H664.12L663.849 36.9293L664.751 37.36ZM677.291 37.36L678.267 37.5787L678.54 36.36H677.291V37.36ZM674.231 43.6L673.46 42.9631L673.459 42.9649L674.231 43.6ZM668.591 47.86L669.006 48.7698L669.006 48.7698L668.591 47.86ZM652.151 47.32L651.671 48.1974L651.677 48.2005L652.151 47.32ZM646.091 41.32L645.216 41.8045L645.222 41.8147L646.091 41.32ZM646.091 23.02L646.963 23.5103L646.966 23.5045L646.091 23.02ZM652.091 17.02L651.617 16.1395L651.611 16.1426L652.091 17.02ZM669.851 16.96L670.32 16.0769L670.32 16.0769L669.851 16.96ZM675.851 22.84L674.979 23.3303L674.983 23.3361L675.851 22.84ZM666.011 28.84V29.84H667.011V28.84H666.011ZM664.571 25.48L663.913 26.2326L663.922 26.2405L663.931 26.2482L664.571 25.48ZM657.431 25.42L658.068 26.191L658.078 26.1829L658.087 26.1746L657.431 25.42ZM655.631 28.84L654.648 28.6588L654.43 29.84H655.631V28.84ZM677.011 31.78C677.011 32.6564 676.954 33.5332 676.839 34.4107L678.823 34.6693C678.948 33.7068 679.011 32.7436 679.011 31.78H677.011ZM677.831 33.54H655.571V35.54H677.831V33.54ZM654.573 34.6051C654.702 36.5769 655.247 38.2194 656.348 39.3712L657.794 37.9888C657.135 37.3006 656.68 36.1831 656.569 34.4749L654.573 34.6051ZM656.38 39.4026C657.505 40.4791 658.922 41 660.551 41V39C659.381 39 658.477 38.6409 657.762 37.9574L656.38 39.4026ZM660.551 41C661.684 41 662.716 40.7441 663.603 40.1866C664.49 39.629 665.167 38.8105 665.654 37.7907L663.849 36.9293C663.495 37.6695 663.052 38.171 662.539 38.4934C662.026 38.8159 661.378 39 660.551 39V41ZM664.751 38.36H677.291V36.36H664.751V38.36ZM676.315 37.1413C675.83 39.3071 674.88 41.244 673.46 42.9631L675.002 44.2369C676.622 42.276 677.712 40.0529 678.267 37.5787L676.315 37.1413ZM673.459 42.9649C672.082 44.6386 670.328 45.9685 668.176 46.9502L669.006 48.7698C671.414 47.6715 673.42 46.1614 675.003 44.2351L673.459 42.9649ZM668.176 46.9502C666.039 47.925 663.662 48.42 661.031 48.42V50.42C663.92 50.42 666.583 49.875 669.006 48.7698L668.176 46.9502ZM661.031 48.42C657.856 48.42 655.062 47.7517 652.625 46.4395L651.677 48.2005C654.44 49.6883 657.566 50.42 661.031 50.42V48.42ZM652.631 46.4426C650.238 45.134 648.351 43.2684 646.96 40.8253L645.222 41.8147C646.791 44.5716 648.944 46.706 651.671 48.1974L652.631 46.4426ZM646.966 40.8355C645.622 38.4089 644.931 35.5218 644.931 32.14H642.931C642.931 35.7982 643.68 39.0311 645.216 41.8045L646.966 40.8355ZM644.931 32.14C644.931 28.7577 645.622 25.8935 646.963 23.5103L645.219 22.5297C643.68 25.2665 642.931 28.4823 642.931 32.14H644.931ZM646.966 23.5045C648.316 21.067 650.18 19.2047 652.571 17.8974L651.611 16.1426C648.882 17.6353 646.746 19.773 645.216 22.5355L646.966 23.5045ZM652.565 17.9005C655 16.5892 657.813 15.92 661.031 15.92V13.92C657.529 13.92 654.382 14.6508 651.617 16.1395L652.565 17.9005ZM661.031 15.92C664.211 15.92 666.986 16.5704 669.382 17.8431L670.32 16.0769C667.596 14.6296 664.491 13.92 661.031 13.92V15.92ZM669.382 17.8431C671.771 19.1121 673.632 20.9347 674.979 23.3303L676.723 22.3497C675.19 19.6253 673.052 17.5279 670.32 16.0769L669.382 17.8431ZM674.983 23.3361C676.322 25.6792 677.011 28.4817 677.011 31.78H679.011C679.011 28.1983 678.26 25.0408 676.719 22.3439L674.983 23.3361ZM667.011 28.84C667.011 27.1537 666.435 25.7319 665.211 24.7118L663.931 26.2482C664.627 26.8281 665.011 27.6463 665.011 28.84H667.011ZM665.23 24.7274C664.064 23.7072 662.62 23.22 660.971 23.22V25.22C662.202 25.22 663.158 25.5728 663.913 26.2326L665.23 24.7274ZM660.971 23.22C659.336 23.22 657.909 23.6794 656.775 24.6654L658.087 26.1746C658.793 25.5606 659.726 25.22 660.971 25.22V23.22ZM656.794 24.649C655.645 25.5983 654.957 26.9771 654.648 28.6588L656.614 29.0212C656.865 27.6629 657.377 26.7617 658.068 26.191L656.794 24.649ZM655.631 29.84H666.011V27.84H655.631V29.84ZM708.684 20.02H707.684V23.7653L709.551 20.5185L708.684 20.02ZM712.584 16.3L713.048 17.1858L713.056 17.1815L713.064 17.1771L712.584 16.3ZM725.784 17.02L725.24 17.8592L725.247 17.8637L725.784 17.02ZM730.944 23.02L730.041 23.4505L730.046 23.4617L730.944 23.02ZM730.944 41.32L730.044 40.8837L730.041 40.8895L730.944 41.32ZM725.784 47.32L725.247 46.4763L725.24 46.4808L725.784 47.32ZM712.584 48.1L712.103 48.9771L712.111 48.9815L712.12 48.9858L712.584 48.1ZM708.684 44.32L709.551 43.8215L707.684 40.5747V44.32H708.684ZM708.684 49V50H709.684V49H708.684ZM696.924 49H695.924V50H696.924V49ZM696.924 4.6V3.6H695.924V4.6H696.924ZM708.684 4.6H709.684V3.6H708.684V4.6ZM719.124 27.04L718.393 27.7232L718.405 27.7353L718.417 27.7471L719.124 27.04ZM710.424 27.04L709.705 26.3446L709.699 26.3507L709.693 26.3568L710.424 27.04ZM710.424 37.3L709.693 37.9832L709.699 37.9893L709.705 37.9954L710.424 37.3ZM719.124 37.3L718.394 36.6161L718.393 36.6168L719.124 37.3ZM709.551 20.5185C710.373 19.088 711.531 17.9802 713.048 17.1858L712.12 15.4142C710.276 16.3798 708.834 17.752 707.817 19.5215L709.551 20.5185ZM713.064 17.1771C714.571 16.3518 716.38 15.92 718.524 15.92V13.92C716.108 13.92 713.956 14.4082 712.103 15.4229L713.064 17.1771ZM718.524 15.92C721.019 15.92 723.249 16.5686 725.24 17.8592L726.328 16.1808C723.999 14.6714 721.388 13.92 718.524 13.92V15.92ZM725.247 17.8637C727.272 19.1526 728.873 21.0015 730.041 23.4505L731.846 22.5895C730.534 19.8385 728.695 17.6874 726.321 16.1763L725.247 17.8637ZM730.046 23.4617C731.247 25.8994 731.864 28.7828 731.864 32.14H733.864C733.864 28.5372 733.201 25.3406 731.841 22.5783L730.046 23.4617ZM731.864 32.14C731.864 35.4968 731.247 38.4027 730.044 40.8837L731.843 41.7563C733.201 38.9572 733.864 35.7432 733.864 32.14H731.864ZM730.041 40.8895C728.873 43.3385 727.272 45.1874 725.247 46.4763L726.321 48.1637C728.695 46.6526 730.534 44.5015 731.846 41.7505L730.041 40.8895ZM725.24 46.4808C723.249 47.7714 721.019 48.42 718.524 48.42V50.42C721.388 50.42 723.999 49.6686 726.328 48.1592L725.24 46.4808ZM718.524 48.42C716.373 48.42 714.558 48.0054 713.048 47.2142L712.12 48.9858C713.969 49.9546 716.114 50.42 718.524 50.42V48.42ZM713.064 47.2229C711.539 46.3877 710.375 45.256 709.551 43.8215L707.817 44.8185C708.832 46.584 710.269 47.9723 712.103 48.9771L713.064 47.2229ZM707.684 44.32V49H709.684V44.32H707.684ZM708.684 48H696.924V50H708.684V48ZM697.924 49V4.6H695.924V49H697.924ZM696.924 5.6H708.684V3.6H696.924V5.6ZM707.684 4.6V20.02H709.684V4.6H707.684ZM721.924 32.14C721.924 29.7568 721.269 27.7714 719.831 26.3329L718.417 27.7471C719.378 28.7086 719.924 30.1232 719.924 32.14H721.924ZM719.854 26.3568C718.502 24.9118 716.796 24.18 714.804 24.18V26.18C716.251 26.18 717.425 26.6882 718.393 27.7232L719.854 26.3568ZM714.804 24.18C712.812 24.18 711.093 24.9106 709.705 26.3446L711.142 27.7354C712.155 26.6894 713.356 26.18 714.804 26.18V24.18ZM709.693 26.3568C708.317 27.8286 707.684 29.7981 707.684 32.14H709.684C709.684 30.1619 710.211 28.7314 711.154 27.7232L709.693 26.3568ZM707.684 32.14C707.684 34.5162 708.314 36.5082 709.693 37.9832L711.154 36.6168C710.214 35.6118 709.684 34.1638 709.684 32.14H707.684ZM709.705 37.9954C711.093 39.4294 712.812 40.16 714.804 40.16V38.16C713.356 38.16 712.155 37.6506 711.142 36.6046L709.705 37.9954ZM714.804 40.16C716.796 40.16 718.502 39.4282 719.854 37.9832L718.393 36.6168C717.425 37.6518 716.251 38.16 714.804 38.16V40.16ZM719.853 37.9839C721.265 36.478 721.924 34.4923 721.924 32.14H719.924C719.924 34.1077 719.382 35.562 718.394 36.6161L719.853 37.9839ZM786.245 15.34H787.245V14.34H786.245V15.34ZM786.245 49V50H787.245V49H786.245ZM774.425 49H773.425V50H774.425V49ZM774.425 44.2H775.425V40.8605L773.589 43.6504L774.425 44.2ZM770.285 47.92L770.748 48.8062L770.756 48.8021L770.764 48.7979L770.285 47.92ZM754.925 45.46L754.167 46.1127L754.173 46.1189L754.178 46.1251L754.925 45.46ZM751.565 15.34V14.34H750.565V15.34H751.565ZM763.265 15.34H764.265V14.34H763.265V15.34ZM764.765 37.96L764.019 38.626L764.031 38.6401L764.045 38.6536L764.765 37.96ZM772.925 37.96L773.659 38.6394L773.665 38.6328L773.671 38.626L772.925 37.96ZM774.425 15.34V14.34H773.425V15.34H774.425ZM785.245 15.34V49H787.245V15.34H785.245ZM786.245 48H774.425V50H786.245V48ZM775.425 49V44.2H773.425V49H775.425ZM773.589 43.6504C772.689 45.0198 771.437 46.1525 769.806 47.0421L770.764 48.7979C772.653 47.7675 774.161 46.4202 775.26 44.7496L773.589 43.6504ZM769.822 47.0338C768.224 47.8686 766.368 48.3 764.225 48.3V50.3C766.642 50.3 768.825 49.8114 770.748 48.8062L769.822 47.0338ZM764.225 48.3C760.545 48.3 757.734 47.1102 755.672 44.7949L754.178 46.1251C756.676 48.9298 760.065 50.3 764.225 50.3V48.3ZM755.682 44.8073C753.64 42.4367 752.565 39.1723 752.565 34.9H750.565C750.565 39.5077 751.73 43.2833 754.167 46.1127L755.682 44.8073ZM752.565 34.9V15.34H750.565V34.9H752.565ZM751.565 16.34H763.265V14.34H751.565V16.34ZM762.265 15.34V33.4H764.265V15.34H762.265ZM762.265 33.4C762.265 35.4951 762.814 37.2762 764.019 38.626L765.511 37.294C764.716 36.4038 764.265 35.1449 764.265 33.4H762.265ZM764.045 38.6536C765.297 39.9539 766.929 40.58 768.845 40.58V38.58C767.401 38.58 766.313 38.1261 765.485 37.2664L764.045 38.6536ZM768.845 40.58C770.792 40.58 772.437 39.9586 773.659 38.6394L772.191 37.2806C771.413 38.1214 770.338 38.58 768.845 38.58V40.58ZM773.671 38.626C774.876 37.2762 775.425 35.4951 775.425 33.4H773.425C773.425 35.1449 772.974 36.4038 772.179 37.294L773.671 38.626ZM775.425 33.4V15.34H773.425V33.4H775.425ZM774.425 16.34H786.245V14.34H774.425V16.34ZM807.938 10.54L807.255 11.2703L807.267 11.2816L807.279 11.2926L807.938 10.54ZM807.938 1.84L807.266 1.09901L807.26 1.10432L807.255 1.10973L807.938 1.84ZM817.898 1.84L817.215 2.57027L817.22 2.57567L817.226 2.58099L817.898 1.84ZM817.898 10.54L818.568 11.2821L818.569 11.281L817.898 10.54ZM818.798 15.34H819.798V14.34H818.798V15.34ZM818.798 49V50H819.798V49H818.798ZM807.038 49H806.038V50H807.038V49ZM807.038 15.34V14.34H806.038V15.34H807.038ZM812.978 11.22C811.084 11.22 809.656 10.7144 808.596 9.78742L807.279 11.2926C808.78 12.6056 810.712 13.22 812.978 13.22V11.22ZM808.621 9.80973C807.586 8.84158 807.078 7.66729 807.078 6.22H805.078C805.078 8.21271 805.809 9.91842 807.255 11.2703L808.621 9.80973ZM807.078 6.22C807.078 4.72537 807.591 3.53353 808.621 2.57027L807.255 1.10973C805.804 2.46647 805.078 4.19462 805.078 6.22H807.078ZM808.609 2.58099C809.669 1.62034 811.093 1.1 812.978 1.1V-0.900003C810.703 -0.900003 808.766 -0.260349 807.266 1.09901L808.609 2.58099ZM812.978 1.1C814.818 1.1 816.196 1.61731 817.215 2.57027L818.581 1.10973C817.12 -0.25732 815.217 -0.900003 812.978 -0.900003V1.1ZM817.226 2.58099C818.293 3.54739 818.818 4.73622 818.818 6.22H820.818C820.818 4.18378 820.063 2.45261 818.569 1.09901L817.226 2.58099ZM818.818 6.22C818.818 7.65632 818.298 8.82764 817.226 9.79901L818.569 11.281C820.057 9.93236 820.818 8.22368 820.818 6.22H818.818ZM817.227 9.7979C816.21 10.7171 814.827 11.22 812.978 11.22V13.22C815.208 13.22 817.106 12.6029 818.568 11.2821L817.227 9.7979ZM817.798 15.34V49H819.798V15.34H817.798ZM818.798 48H807.038V50H818.798V48ZM808.038 49V15.34H806.038V49H808.038ZM807.038 16.34H818.798V14.34H807.038V16.34ZM851.355 4.6H852.355V3.6H851.355V4.6ZM851.355 49V50H852.355V49H851.355ZM839.595 49H838.595V50H839.595V49ZM839.595 4.6V3.6H838.595V4.6H839.595ZM850.355 4.6V49H852.355V4.6H850.355ZM851.355 48H839.595V50H851.355V48ZM840.595 49V4.6H838.595V49H840.595ZM839.595 5.6H851.355V3.6H839.595V5.6ZM872.092 23.02L871.195 22.5783L871.189 22.5895L872.092 23.02ZM877.312 17.02L876.775 16.1763L876.775 16.1763L877.312 17.02ZM890.392 16.3L889.911 17.1771L889.924 17.1838L889.936 17.1902L890.392 16.3ZM894.412 19.96L893.56 20.4841L895.412 23.493V19.96H894.412ZM894.412 4.6V3.6H893.412V4.6H894.412ZM906.232 4.6H907.232V3.6H906.232V4.6ZM906.232 49V50H907.232V49H906.232ZM894.412 49H893.412V50H894.412V49ZM894.412 44.32H895.412V40.6558L893.55 43.812L894.412 44.32ZM890.512 48.04L890.031 47.1629L890.512 48.04ZM877.252 47.32L876.708 48.1592L876.715 48.1637L877.252 47.32ZM872.092 41.32L871.187 41.7451L871.191 41.7534L871.195 41.7617L872.092 41.32ZM892.672 27.04L891.942 27.7232L891.947 27.7293L891.953 27.7354L892.672 27.04ZM883.972 27.04L884.691 27.735L884.696 27.7291L884.702 27.7232L883.972 27.04ZM883.972 37.3L883.231 37.9715L883.236 37.9774L883.242 37.9832L883.972 37.3ZM892.672 37.3L891.953 36.6046L891.947 36.6107L891.942 36.6168L892.672 37.3ZM871.232 32.14C871.232 28.7784 871.83 25.891 872.994 23.4505L871.189 22.5895C869.873 25.349 869.232 28.5416 869.232 32.14H871.232ZM872.989 23.4617C874.197 21.0073 875.82 19.1545 877.849 17.8637L876.775 16.1763C874.403 17.6855 872.546 19.8327 871.195 22.5783L872.989 23.4617ZM877.849 17.8637C879.884 16.5687 882.136 15.92 884.632 15.92V13.92C881.767 13.92 879.14 14.6713 876.775 16.1763L877.849 17.8637ZM884.632 15.92C886.646 15.92 888.397 16.3476 889.911 17.1771L890.872 15.4229C889.027 14.4124 886.938 13.92 884.632 13.92V15.92ZM889.936 17.1902C891.503 17.9916 892.702 19.0888 893.56 20.4841L895.263 19.4359C894.202 17.7112 892.721 16.3684 890.847 15.4098L889.936 17.1902ZM895.412 19.96V4.6H893.412V19.96H895.412ZM894.412 5.6H906.232V3.6H894.412V5.6ZM905.232 4.6V49H907.232V4.6H905.232ZM906.232 48H894.412V50H906.232V48ZM895.412 49V44.32H893.412V49H895.412ZM893.55 43.812C892.727 45.2079 891.563 46.3242 890.031 47.1629L890.992 48.9171C892.821 47.9158 894.256 46.5521 895.273 44.828L893.55 43.812ZM890.031 47.1629C888.524 47.9882 886.716 48.42 884.572 48.42V50.42C886.988 50.42 889.139 49.9318 890.992 48.9171L890.031 47.1629ZM884.572 48.42C882.076 48.42 879.824 47.7713 877.789 46.4763L876.715 48.1637C879.08 49.6687 881.707 50.42 884.572 50.42V48.42ZM877.796 46.4808C875.806 45.1909 874.2 43.3372 872.989 40.8783L871.195 41.7617C872.544 44.5028 874.378 46.6491 876.708 48.1592L877.796 46.4808ZM872.997 40.8949C871.83 38.4111 871.232 35.5011 871.232 32.14H869.232C869.232 35.7389 869.873 38.9489 871.187 41.7451L872.997 40.8949ZM895.472 32.14C895.472 29.7891 894.814 27.8152 893.39 26.3446L891.953 27.7354C892.93 28.7448 893.472 30.1709 893.472 32.14H895.472ZM893.402 26.3568C892.05 24.9118 890.345 24.18 888.352 24.18V26.18C889.799 26.18 890.973 26.6882 891.942 27.7232L893.402 26.3568ZM888.352 24.18C886.326 24.18 884.598 24.9065 883.242 26.3568L884.702 27.7232C885.665 26.6935 886.857 26.18 888.352 26.18V24.18ZM883.253 26.345C881.861 27.7848 881.232 29.7658 881.232 32.14H883.232C883.232 30.1142 883.763 28.6952 884.691 27.735L883.253 26.345ZM881.232 32.14C881.232 34.4835 881.865 36.4647 883.231 37.9715L884.713 36.6285C883.758 35.5753 883.232 34.1165 883.232 32.14H881.232ZM883.242 37.9832C884.598 39.4335 886.326 40.16 888.352 40.16V38.16C886.857 38.16 885.665 37.6465 884.702 36.6168L883.242 37.9832ZM888.352 40.16C890.345 40.16 892.05 39.4282 893.402 37.9832L891.942 36.6168C890.973 37.6518 889.799 38.16 888.352 38.16V40.16ZM893.39 37.9954C894.817 36.5215 895.472 34.525 895.472 32.14H893.472C893.472 34.155 892.927 35.5985 891.953 36.6046L893.39 37.9954Z" fill="#D5E7F2"/>
</svg>
